<?xml version="1.0" encoding="UTF-8" standalone="no"?>
<svg
   xmlns:dc="http://purl.org/dc/elements/1.1/"
   xmlns:cc="http://creativecommons.org/ns#"
   xmlns:rdf="http://www.w3.org/1999/02/22-rdf-syntax-ns#"
   xmlns:svg="http://www.w3.org/2000/svg"
   xmlns="http://www.w3.org/2000/svg"
   xmlns:xlink="http://www.w3.org/1999/xlink"
   height="79"
   width="66"
   xml:space="preserve"
   viewBox="0 0 66 79.000004"
   y="0px"
   x="0px"
   id="Layer_1"
   version="1.1"><metadata
   id="metadata149"><rdf:RDF><cc:Work
       rdf:about=""><dc:format>image/svg+xml</dc:format><dc:type
         rdf:resource="http://purl.org/dc/dcmitype/StillImage" /><dc:title></dc:title></cc:Work></rdf:RDF></metadata><defs
   id="defs147" />
<style
   id="style2"
   type="text/css">
	.st0{fill:#282B61;}
	.st1{fill:#FFFFFF;}
	.st2{fill:url(#SVGID_1_);}
	.st3{fill:url(#SVGID_5_);}
	.st4{fill:url(#SVGID_6_);}
	.st5{fill:url(#SVGID_7_);}
	.st6{fill:url(#SVGID_8_);}
	.st7{fill:url(#SVGID_12_);}
	.st8{fill:url(#SVGID_13_);}
	.st9{fill:url(#SVGID_14_);}
</style>

<g
   transform="translate(-23.31,-25.16)"
   id="g24">
	<path
   style="fill:#ffffff"
   id="path6"
   d="m 24.31,95.9 c 0,-2.33 1.89,-3.82 4.03,-3.82 1.34,0 2.41,0.63 3.1,1.57 L 29.9,94.74 C 29.56,94.28 28.95,94 28.35,94 c -1.16,0 -1.95,0.83 -1.95,1.9 0,1.09 0.79,1.92 1.95,1.92 0.6,0 1.21,-0.28 1.54,-0.74 l 1.54,1.09 c -0.69,0.96 -1.76,1.57 -3.1,1.57 -2.13,0 -4.02,-1.51 -4.02,-3.84 z"
   class="st1" />
	<path
   style="fill:#ffffff"
   id="path8"
   d="m 39.85,96.59 h -5.54 c 0.22,0.85 0.91,1.32 1.9,1.32 0.74,0 1.48,-0.3 1.92,-0.82 l 1.21,1.21 c -0.69,0.93 -1.98,1.43 -3.27,1.43 -2.25,0 -3.9,-1.54 -3.9,-3.81 0,-2.38 1.79,-3.86 3.9,-3.86 2.09,0 3.81,1.48 3.81,3.73 0.01,0.22 -0.01,0.47 -0.03,0.8 z m -2.03,-1.33 c -0.06,-0.87 -0.79,-1.38 -1.71,-1.38 -0.83,0 -1.57,0.39 -1.79,1.38 z"
   class="st1" />
	<path
   style="fill:#ffffff"
   id="path10"
   d="m 41.32,88.35 h 2.06 V 99.6 h -2.06 z"
   class="st1" />
	<path
   style="fill:#ffffff"
   id="path12"
   d="m 52.38,92.27 v 7.33 h -2.06 v -1.2 c -0.31,0.96 -1.48,1.37 -2.2,1.37 -1.92,0 -2.93,-1.27 -2.91,-3.48 v -4.03 h 2.06 v 3.81 c 0,1.15 0.69,1.67 1.4,1.67 0.74,0 1.65,-0.39 1.65,-1.72 v -3.76 h 2.06 z"
   class="st1" />
	<path
   style="fill:#ffffff"
   id="path14"
   d="m 53.84,97.24 h 1.94 c 0,0.43 0.36,0.88 1.09,0.88 0.6,0 1.05,-0.25 1.05,-0.68 0,-0.31 -0.25,-0.47 -0.8,-0.61 L 56.14,96.59 C 54.25,96.09 54,95.03 54,94.26 c 0,-1.13 1.18,-2.19 2.88,-2.19 1.34,0 2.91,0.66 2.9,2.39 h -1.97 c 0,-0.49 -0.41,-0.75 -0.9,-0.75 -0.47,0 -0.85,0.24 -0.85,0.61 0,0.35 0.31,0.52 0.72,0.63 l 1.21,0.31 c 1.76,0.47 1.98,1.57 1.98,2.17 0,1.54 -1.57,2.3 -3.08,2.3 -1.54,0.01 -3.03,-0.87 -3.05,-2.49 z"
   class="st1" />
	<path
   style="fill:#ffffff"
   id="path16"
   d="m 69.34,95.93 c 0,2.23 -1.67,3.82 -3.73,3.82 -1.24,0 -2.38,-0.58 -2.93,-1.59 v 5 H 61.67 V 92.25 h 1.01 v 1.45 c 0.54,-1.01 1.7,-1.61 2.93,-1.61 2.06,0 3.73,1.61 3.73,3.84 z m -0.99,0.02 c 0,-1.64 -1.26,-2.9 -2.82,-2.9 -1.53,0 -2.85,1.15 -2.85,2.85 0,1.78 1.38,2.9 2.85,2.9 1.56,0 2.82,-1.23 2.82,-2.85 z"
   class="st1" />
	<path
   style="fill:#ffffff"
   id="path18"
   d="M 71.19,88.11 H 72.2 V 99.6 h -1.01 z"
   class="st1" />
	<path
   style="fill:#ffffff"
   id="path20"
   d="m 81,92.25 v 7.35 h -1.01 v -1.29 c -0.44,1.04 -1.64,1.45 -2.55,1.45 -1.78,0 -2.99,-1.2 -2.97,-3.23 v -4.28 h 1.01 v 4.23 c 0,1.42 0.88,2.28 2.08,2.28 1.16,0 2.42,-0.66 2.44,-2.44 v -4.08 h 1 z"
   class="st1" />
	<path
   style="fill:#ffffff"
   id="path22"
   d="m 82.76,97.62 h 0.93 c 0.11,0.61 0.68,1.24 1.75,1.24 1.05,0 1.7,-0.52 1.7,-1.26 0,-0.6 -0.41,-0.99 -1.16,-1.18 l -1.05,-0.25 c -1.04,-0.25 -1.87,-0.79 -1.87,-2.01 0,-1.2 1.02,-2.06 2.42,-2.06 1.23,0 2.36,0.68 2.41,2 H 86.9 C 86.85,93.44 86.21,93 85.48,93 c -0.85,0 -1.43,0.49 -1.43,1.18 0,0.69 0.6,0.99 1.13,1.12 l 1.09,0.27 c 1.43,0.35 1.87,1.21 1.87,2.06 0,1.31 -1.18,2.14 -2.71,2.14 -1.27,-0.01 -2.55,-0.75 -2.67,-2.15 z"
   class="st1" />
</g>
<g
   transform="translate(-23.31,-25.16)"
   id="g83">
	<g
   id="g35">
		<linearGradient
   y2="16.431999"
   x2="57.922699"
   y1="71.184502"
   x1="26.311399"
   gradientUnits="userSpaceOnUse"
   id="SVGID_1_">
			<stop
   id="stop26"
   style="stop-color:#EC6F87;stop-opacity:0"
   offset="9.709999e-04" />
			<stop
   id="stop28"
   style="stop-color:#EC6F87;stop-opacity:0.9688"
   offset="0.5561" />
			<stop
   id="stop30"
   style="stop-color:#EC6F87"
   offset="1" />
		</linearGradient>
		<path
   style="fill:url(#SVGID_1_)"
   id="path33"
   d="m 34.21,73.43 9.03,-6.38 c -3.26,-3.65 -5.26,-8.44 -5.26,-13.72 0,-5.4 2.09,-10.3 5.49,-13.98 l -9.06,-6.36 c -4.63,5.5 -7.43,12.6 -7.43,20.33 -0.01,7.63 2.71,14.64 7.23,20.11 z"
   class="st2" />
	</g>
	<g
   id="g54">
		<g
   id="g52">
			<g
   id="g50">
				<defs
   id="defs38">
					<path
   d="m 58.59,26.65 c 0,0 -0.01,0 -0.01,0 0,0 -0.01,0 -0.01,0 -7.33,0 -14.01,2.99 -18.81,7.8 -4.81,4.8 -7.8,11.49 -7.8,18.82 0,7.33 2.99,14.02 7.8,18.82 4.8,4.8 11.48,7.8 18.81,7.8 0,0 0.01,0 0.01,0 0,0 0.01,0 0.01,0 7.33,0 14.02,-2.99 18.81,-7.8 1.23,-1.22 2.34,-2.57 3.31,-4.02 l -9.82,-6.9 c -0.57,0.88 -1.23,1.7 -1.97,2.44 -2.66,2.65 -6.28,4.28 -10.34,4.28 -4.06,0 -7.67,-1.63 -10.34,-4.28 -2.65,-2.66 -4.28,-6.28 -4.28,-10.34 0,-4.06 1.63,-7.67 4.28,-10.34 2.66,-2.65 6.28,-4.28 10.34,-4.28 4.06,0 7.67,1.63 10.34,4.28 0.71,0.71 1.35,1.5 1.9,2.34 l 9.83,-6.89 C 79.69,36.96 78.61,35.65 77.4,34.45 72.6,29.64 65.91,26.65 58.59,26.65"
   id="SVGID_2_" />
				</defs>
				<linearGradient
   y2="53.264301"
   x2="80.705299"
   y1="53.264301"
   x1="31.9592"
   gradientUnits="userSpaceOnUse"
   id="SVGID_3_">
					<stop
   id="stop40"
   style="stop-color:#FFFFFF;stop-opacity:0"
   offset="9.713955e-04" />
					<stop
   id="stop42"
   style="stop-color:#FFFFFF"
   offset="1" />
				</linearGradient>
				<use
   height="100%"
   width="100%"
   y="0"
   x="0"
   id="use45"
   style="overflow:visible;fill:url(#SVGID_3_)"
   xlink:href="#SVGID_2_" />
				<clipPath
   id="SVGID_4_">
					<use
   height="100%"
   width="100%"
   y="0"
   x="0"
   id="use47"
   style="overflow:visible"
   xlink:href="#SVGID_2_" />
				</clipPath>
			</g>
		</g>
	</g>
	<g
   id="g63">
		<linearGradient
   y2="73.776299"
   x2="46.639599"
   y1="53.1553"
   x1="82.356102"
   gradientUnits="userSpaceOnUse"
   id="SVGID_5_">
			<stop
   id="stop56"
   style="stop-color:#51B8A2;stop-opacity:0.2"
   offset="0" />
			<stop
   id="stop58"
   style="stop-color:#51B8A2"
   offset="1" />
		</linearGradient>
		<path
   style="fill:url(#SVGID_5_)"
   id="path61"
   d="m 58.59,73.85 c 7.22,0 13.57,-3.72 17.25,-9.34 l -9.11,-6.18 c -1.7,2.71 -4.71,4.52 -8.14,4.52 -2.45,0 -4.69,-0.93 -6.39,-2.45 l -8.89,6.64 c 3.78,4.17 9.21,6.81 15.28,6.81 z"
   class="st3" />
	</g>
	<g
   id="g72">
		<linearGradient
   y2="39.459801"
   x2="38.408798"
   y1="41.1106"
   x1="79.610802"
   gradientUnits="userSpaceOnUse"
   id="SVGID_6_">
			<stop
   id="stop65"
   style="stop-color:#37B0C6;stop-opacity:0.2"
   offset="2.889583e-04" />
			<stop
   id="stop67"
   style="stop-color:#37B0C6"
   offset="1" />
		</linearGradient>
		<path
   style="fill:url(#SVGID_6_)"
   id="path70"
   d="m 66.63,48.22 9.02,-6.35 c -3.54,-5.32 -9.47,-8.93 -16.34,-9.21 -0.28,-0.01 -0.56,-0.02 -0.84,-0.02 -5.94,0 -11.33,2.55 -15.11,6.63 l 9.34,6.46 c 1.62,-1.24 3.63,-1.98 5.82,-1.98 3.42,0.01 6.41,1.79 8.11,4.47 z"
   class="st4" />
	</g>
	<g
   id="g81">
		<linearGradient
   y2="68.764801"
   x2="40.3246"
   y1="29.936199"
   x1="53.821301"
   gradientUnits="userSpaceOnUse"
   id="SVGID_7_">
			<stop
   id="stop74"
   style="stop-color:#F9B982;stop-opacity:0"
   offset="4.546958e-04" />
			<stop
   id="stop76"
   style="stop-color:#F9B982"
   offset="0.9995" />
		</linearGradient>
		<path
   style="fill:url(#SVGID_7_)"
   id="path79"
   d="m 40.02,62.29 c 0.86,1.77 1.96,3.38 3.24,4.81 l 8.88,-6.65 c -2.78,-2.49 -3.95,-6.5 -2.65,-10.25 0.63,-1.82 1.77,-3.32 3.19,-4.42 l -9.2,-6.43 c -1.9,2.05 -3.42,4.49 -4.37,7.24 -1.8,5.18 -1.48,10.76 0.91,15.7 z"
   class="st5" />
	</g>
</g>
<g
   transform="translate(-23.31,-25.16)"
   id="g142">
	<g
   id="g94">
		<linearGradient
   y2="16.3741"
   x2="57.922699"
   y1="71.126602"
   x1="26.311399"
   gradientUnits="userSpaceOnUse"
   id="SVGID_8_">
			<stop
   id="stop85"
   style="stop-color:#EC6F87;stop-opacity:0"
   offset="9.709999e-04" />
			<stop
   id="stop87"
   style="stop-color:#EC6F87;stop-opacity:0.9688"
   offset="0.5561" />
			<stop
   id="stop89"
   style="stop-color:#EC6F87"
   offset="1" />
		</linearGradient>
		<path
   style="fill:url(#SVGID_8_)"
   id="path92"
   d="m 34.21,73.37 9.03,-6.38 c -3.26,-3.65 -5.26,-8.44 -5.26,-13.72 0,-5.4 2.09,-10.3 5.49,-13.98 l -9.06,-6.36 c -4.63,5.5 -7.43,12.6 -7.43,20.33 -0.01,7.63 2.71,14.64 7.23,20.11 z"
   class="st6" />
	</g>
	<g
   id="g113">
		<g
   id="g111">
			<g
   id="g109">
				<defs
   id="defs97">
					<path
   d="m 58.59,26.59 c 0,0 -0.01,0 -0.01,0 0,0 -0.01,0 -0.01,0 -7.33,0 -14.01,2.99 -18.81,7.8 -4.81,4.8 -7.8,11.49 -7.8,18.82 0,7.33 2.99,14.02 7.8,18.82 4.8,4.8 11.48,7.8 18.81,7.8 0,0 0.01,0 0.01,0 0,0 0.01,0 0.01,0 7.33,0 14.02,-2.99 18.81,-7.8 1.23,-1.22 2.34,-2.57 3.31,-4.02 l -9.82,-6.9 c -0.57,0.88 -1.23,1.7 -1.97,2.44 -2.66,2.65 -6.28,4.28 -10.34,4.28 -4.06,0 -7.67,-1.63 -10.34,-4.28 -2.65,-2.66 -4.28,-6.28 -4.28,-10.34 0,-4.06 1.63,-7.67 4.28,-10.34 2.66,-2.65 6.28,-4.28 10.34,-4.28 4.06,0 7.67,1.63 10.34,4.28 0.71,0.71 1.35,1.5 1.9,2.34 l 9.83,-6.89 C 79.69,36.9 78.61,35.59 77.4,34.39 72.6,29.58 65.91,26.59 58.59,26.59"
   id="SVGID_9_" />
				</defs>
				<linearGradient
   y2="53.206402"
   x2="80.705299"
   y1="53.206402"
   x1="31.9592"
   gradientUnits="userSpaceOnUse"
   id="SVGID_10_">
					<stop
   id="stop99"
   style="stop-color:#FFFFFF;stop-opacity:0"
   offset="9.713955e-04" />
					<stop
   id="stop101"
   style="stop-color:#FFFFFF"
   offset="1" />
				</linearGradient>
				<use
   height="100%"
   width="100%"
   y="0"
   x="0"
   id="use104"
   style="overflow:visible;fill:url(#SVGID_10_)"
   xlink:href="#SVGID_9_" />
				<clipPath
   id="SVGID_11_">
					<use
   height="100%"
   width="100%"
   y="0"
   x="0"
   id="use106"
   style="overflow:visible"
   xlink:href="#SVGID_9_" />
				</clipPath>
			</g>
		</g>
	</g>
	<g
   id="g122">
		<linearGradient
   y2="73.718399"
   x2="46.639599"
   y1="53.097401"
   x1="82.356102"
   gradientUnits="userSpaceOnUse"
   id="SVGID_12_">
			<stop
   id="stop115"
   style="stop-color:#51B8A2;stop-opacity:0.2"
   offset="0" />
			<stop
   id="stop117"
   style="stop-color:#51B8A2"
   offset="1" />
		</linearGradient>
		<path
   style="fill:url(#SVGID_12_)"
   id="path120"
   d="m 58.59,73.79 c 7.22,0 13.57,-3.72 17.25,-9.34 l -9.11,-6.18 c -1.7,2.71 -4.71,4.52 -8.14,4.52 -2.45,0 -4.69,-0.93 -6.39,-2.45 l -8.89,6.64 c 3.78,4.18 9.21,6.81 15.28,6.81 z"
   class="st7" />
	</g>
	<g
   id="g131">
		<linearGradient
   y2="39.401901"
   x2="38.408798"
   y1="41.0527"
   x1="79.610802"
   gradientUnits="userSpaceOnUse"
   id="SVGID_13_">
			<stop
   id="stop124"
   style="stop-color:#37B0C6;stop-opacity:0.2"
   offset="2.889583e-04" />
			<stop
   id="stop126"
   style="stop-color:#37B0C6"
   offset="1" />
		</linearGradient>
		<path
   style="fill:url(#SVGID_13_)"
   id="path129"
   d="m 66.63,48.16 9.02,-6.35 c -3.54,-5.32 -9.47,-8.93 -16.34,-9.21 -0.28,-0.01 -0.56,-0.02 -0.84,-0.02 -5.94,0 -11.33,2.55 -15.11,6.63 l 9.34,6.46 c 1.62,-1.24 3.63,-1.98 5.82,-1.98 3.42,0.02 6.41,1.8 8.11,4.47 z"
   class="st8" />
	</g>
	<g
   id="g140">
		<linearGradient
   y2="68.706902"
   x2="40.3246"
   y1="29.8783"
   x1="53.821301"
   gradientUnits="userSpaceOnUse"
   id="SVGID_14_">
			<stop
   id="stop133"
   style="stop-color:#F9B982;stop-opacity:0"
   offset="4.546958e-04" />
			<stop
   id="stop135"
   style="stop-color:#F9B982"
   offset="0.9995" />
		</linearGradient>
		<path
   style="fill:url(#SVGID_14_)"
   id="path138"
   d="m 40.02,62.23 c 0.86,1.77 1.96,3.38 3.24,4.81 l 8.88,-6.65 c -2.78,-2.49 -3.95,-6.5 -2.65,-10.25 0.63,-1.82 1.77,-3.32 3.19,-4.42 l -9.2,-6.43 c -1.9,2.05 -3.42,4.49 -4.37,7.24 -1.8,5.18 -1.48,10.76 0.91,15.7 z"
   class="st9" />
	</g>
</g>
</svg>