<?xml version="1.0" encoding="utf-8"?>
<!-- Generator: Adobe Illustrator 24.1.0, SVG Export Plug-In . SVG Version: 6.00 Build 0)  -->
<svg version="1.1" id="Layer_1" xmlns="http://www.w3.org/2000/svg" xmlns:xlink="http://www.w3.org/1999/xlink" x="0px" y="0px"
	 viewBox="0 0 104.5 161.1" style="enable-background:new 0 0 104.5 161.1;" xml:space="preserve">
<style type="text/css">
	.st0{fill:#FFFFFF;}
	.st1{fill:#FA6E86;}
	.st2{fill:#FFB980;}
	.st3{fill:#19D4AE;}
	.st4{fill:#29B2E2;}
</style>
<g>
	<path class="st0" d="M17.1,146c1.5,0,3.1,0.7,3.9,1.9l3.9-2.9c-1.8-2.5-4.5-4.1-7.9-4.1c-5.5,0-10.3,3.9-10.3,10
		c0,6.1,4.8,10.1,10.3,10.1c3.4,0,6.1-1.6,7.9-4.1l-3.9-2.9c-0.8,1.2-2.4,1.9-3.9,1.9c-3,0-5-2.2-5-5C12.1,148.2,14.1,146,17.1,146z
		"/>
	<path class="st0" d="M36.8,140.9c-5.4,0-10,3.9-10,10.1c0,6,4.2,10,10,10c3.3,0,6.6-1.3,8.3-3.8l-3.1-3.2c-1.1,1.4-3,2.2-4.9,2.2
		c-2.5,0-4.3-1.2-4.9-3.5h14.1c0-0.9,0.1-1.5,0.1-2.1C46.5,144.8,42.1,140.9,36.8,140.9z M32.3,149.3c0.6-2.6,2.4-3.6,4.6-3.6
		c2.4,0,4.2,1.4,4.4,3.6H32.3z"/>
	<rect x="50.1" y="131.1" class="st0" width="5.3" height="29.6"/>
	<path class="st0" d="M73.1,151.3c0,3.5-2.3,4.5-4.2,4.5c-1.8,0-3.6-1.4-3.6-4.4v-10H60V152c0,5.8,2.5,9.1,7.4,9.1
		c1.8,0,4.8-1.1,5.6-3.6v3.1h5.3v-19.3h-5.3V151.3z"/>
	<path class="st0" d="M92.7,149.3l-3.1-0.8c-1-0.3-1.8-0.7-1.8-1.7c0-1,1-1.6,2.2-1.6c1.2,0,2.3,0.7,2.3,2h5c0-4.5-4-6.3-7.4-6.3
		c-4.3,0-7.3,2.8-7.3,5.7c0,2,0.6,4.8,5.5,6.1l2.5,0.6c1.4,0.4,2,0.8,2,1.6c0,1.1-1.2,1.8-2.7,1.8c-1.8,0-2.8-1.2-2.8-2.3h-4.9
		c0,4.3,3.9,6.6,7.8,6.6c3.9,0,7.9-2,7.9-6C97.7,153.5,97.2,150.6,92.7,149.3z"/>
</g>
<g>
	<path class="st1" d="M2.2,30.5c-0.8,1.4-1.6,2.9-2.2,4.4c2.5,1.5,4.7,3.4,6.7,5.5c0,0,0,0,0,0c4.9,5.4,7.9,12.5,7.9,20.4
		c0,0,0,0,0,0c0,0,0,0,0,0c0,0,0,0,0,0c0,0,0,0,0,0h12.2c0,0,0,0,0,0c0,0,0,0,0,0c0,0,0,0,0,0c0,0,0-0.1,0-0.1
		c0-7.9,2.7-15,7.3-20.3c0,0,0,0,0,0c5.3-6.1,13.2-9.9,22.8-9.9c8.4,0,17,3.7,22.3,9.9c0,0,0,0,0,0c0.5,0.6,1,1.2,1.5,1.8l2.5-1.8
		l0,0l13.7-9.9H2.2z"/>
	<path class="st2" d="M100.5,20C100.5,20,100.5,19.9,100.5,20C89.9,7.8,74.9,0,56.7,0C38.5,0,21.4,7.2,9.8,19.9c0,0,0,0,0,0
		C7,23.1,4.4,26.6,2.3,30.4c0,0,0,0,0,0h94.7l0.1,0l7.5-5.4C103.2,23.2,101.9,21.6,100.5,20z"/>
	<path class="st3" d="M9.9,101.7C9.9,101.7,9.9,101.7,9.9,101.7c11.6,12.7,28.6,20,46.8,20c18.3,0,33.3-7.7,43.9-20c0,0,0,0,0,0
		c1.4-1.6,2.7-3.2,3.9-5L97,91.3H2.4C4.5,95.1,7.1,98.5,9.9,101.7z"/>
	<path class="st4" d="M97,91.3l-13.8-10l0,0l-2.4-1.8c-0.4,0.6-0.9,1.2-1.4,1.8c0,0,0,0,0,0c-5.3,6.2-13.9,10-22.4,10
		c-9.6,0-17.5-3.8-22.8-10c0,0,0,0,0,0c-4.6-5.3-7.2-12.4-7.3-20.3H14.6c0,7.8-3,15-7.9,20.3c0,0,0,0,0,0c-1.9,2.2-4.2,4-6.7,5.6
		c0.7,1.5,1.5,3,2.3,4.5c0,0,0,0,0,0L97,91.3L97,91.3z"/>
</g>
</svg>
