<?xml version="1.0" encoding="utf-8"?>
<!-- Generator: Adobe Illustrator 24.1.0, SVG Export Plug-In . SVG Version: 6.00 Build 0)  -->
<svg version="1.1" id="Layer_1" xmlns="http://www.w3.org/2000/svg" xmlns:xlink="http://www.w3.org/1999/xlink" x="0px" y="0px"
	 viewBox="0 0 251.5 283.5" style="enable-background:new 0 0 251.5 283.5;" xml:space="preserve">
<style type="text/css">
	.st0{fill:url(#SVGID_1_);}
	.st1{fill:url(#SVGID_5_);}
	.st2{fill:url(#SVGID_6_);}
	.st3{fill:url(#SVGID_7_);}
	.st4{fill:#282B61;}
</style>
<g>
	<g>
		<linearGradient id="SVGID_1_" gradientUnits="userSpaceOnUse" x1="5.0296" y1="177.5028" x2="131.0146" y2="-40.7096">
			<stop  offset="4.546958e-04" style="stop-color:#F9B982;stop-opacity:0"/>
			<stop  offset="0.5683" style="stop-color:#F9B982"/>
		</linearGradient>
		<path class="st0" d="M36.5,186.4l36-25.4c-13-14.5-21-33.7-21-54.7c0-21.5,8.3-41,21.9-55.7L37.3,25.3
			c-18.5,21.9-29.6,50.2-29.6,81C7.7,136.7,18.5,164.6,36.5,186.4z"/>
	</g>
	<g>
		<g>
			<g>
				<defs>
					<path id="SVGID_2_" d="M133.7,0C133.6,0,133.6,0,133.7,0C133.6,0,133.6,0,133.7,0c-29.3,0-55.9,11.9-75.1,31.1
						c-19.2,19.1-31.1,45.8-31.1,75c0,29.2,11.9,55.9,31.1,75c19.1,19.1,45.8,31.1,75,31.1c0,0,0,0,0,0c0,0,0,0,0,0
						c29.2,0,55.9-11.9,75-31.1c4.9-4.9,9.3-10.3,13.2-16l-39.1-27.5c-2.3,3.5-4.9,6.8-7.8,9.7c-10.6,10.6-25,17.1-41.2,17.1
						c-16.2,0-30.6-6.5-41.2-17.1c-10.6-10.6-17-25-17.1-41.2c0-16.2,6.5-30.6,17.1-41.2c10.6-10.6,25-17.1,41.2-17.1
						c16.2,0,30.6,6.5,41.2,17.1c2.8,2.8,5.4,6,7.6,9.3l39.2-27.5c-3.8-5.6-8.1-10.9-12.9-15.7C189.5,11.9,162.9,0,133.7,0"/>
				</defs>
				<linearGradient id="SVGID_3_" gradientUnits="userSpaceOnUse" x1="221.8129" y1="106.083" x2="27.5388" y2="106.083">
					<stop  offset="0" style="stop-color:#282B61"/>
					<stop  offset="1" style="stop-color:#282B61;stop-opacity:0"/>
				</linearGradient>
				<use xlink:href="#SVGID_2_"  style="overflow:visible;fill:url(#SVGID_3_);"/>
				<clipPath id="SVGID_4_">
					<use xlink:href="#SVGID_2_"  style="overflow:visible;"/>
				</clipPath>
			</g>
		</g>
	</g>
	<g>
		<linearGradient id="SVGID_5_" gradientUnits="userSpaceOnUse" x1="228.3923" y1="105.6486" x2="86.0462" y2="187.8322">
			<stop  offset="2.889583e-04" style="stop-color:#37B0C6;stop-opacity:0.2"/>
			<stop  offset="1" style="stop-color:#37B0C6"/>
		</linearGradient>
		<path class="st1" d="M133.7,188.1c28.8,0,54.1-14.8,68.7-37.2l-36.3-24.6c-6.8,10.8-18.8,18-32.4,18c-9.8,0-18.7-3.7-25.5-9.8
			L72.8,161C87.8,177.6,109.5,188.1,133.7,188.1z"/>
	</g>
	<g>
		<linearGradient id="SVGID_6_" gradientUnits="userSpaceOnUse" x1="217.4511" y1="57.6453" x2="53.2429" y2="51.0662">
			<stop  offset="9.709999e-04" style="stop-color:#EC6F87;stop-opacity:0"/>
			<stop  offset="0.5561" style="stop-color:#EC6F87;stop-opacity:0.9688"/>
			<stop  offset="1" style="stop-color:#EC6F87"/>
		</linearGradient>
		<path class="st2" d="M165.7,86l36-25.3c-14.1-21.2-37.7-35.6-65.1-36.7c-1.1,0-2.2-0.1-3.3-0.1c-23.7,0-45.1,10.2-60.2,26.4
			l37.2,25.8c6.4-4.9,14.5-7.9,23.2-7.9C147,68.2,158.9,75.3,165.7,86z"/>
	</g>
	<g>
		<linearGradient id="SVGID_7_" gradientUnits="userSpaceOnUse" x1="114.6684" y1="13.1105" x2="60.8782" y2="167.8591">
			<stop  offset="0" style="stop-color:#51B8A2;stop-opacity:0.2"/>
			<stop  offset="1" style="stop-color:#51B8A2"/>
		</linearGradient>
		<path class="st3" d="M59.7,142c3.4,7.1,7.8,13.5,12.9,19.2l35.4-26.5c-11.1-9.9-15.7-25.9-10.5-40.9c2.5-7.3,7-13.2,12.7-17.6
			L73.5,50.6C65.9,58.8,59.8,68.5,56,79.5C48.8,100.1,50.1,122.3,59.7,142z"/>
	</g>
</g>
<polygon class="st4" points="139.6,129.8 131.7,129.7 132,96.2 123.6,96.1 123.6,88.2 140,88.2 "/>
<g>
	<path class="st4" d="M0,267.8c0-9.4,7.7-15.5,16.3-15.5c5.4,0,9.8,2.6,12.6,6.4l-6.3,4.4c-1.3-1.8-3.8-3-6.3-3
		c-4.7,0-7.9,3.4-7.9,7.7c0,4.4,3.2,7.8,7.9,7.8c2.4,0,4.9-1.1,6.3-3l6.3,4.4c-2.8,3.9-7.1,6.4-12.6,6.4C7.7,283.3,0,277.2,0,267.8z
		"/>
	<path class="st4" d="M63,270.6H40.6c0.9,3.4,3.7,5.4,7.7,5.4c3,0,6-1.2,7.8-3.3l4.9,4.9c-2.8,3.8-8,5.8-13.3,5.8
		c-9.1,0-15.8-6.3-15.8-15.4c0-9.6,7.3-15.6,15.8-15.6c8.5,0,15.4,6,15.4,15.1C63.1,268.2,63.1,269.2,63,270.6z M54.8,265.2
		c-0.3-3.5-3.2-5.6-7-5.6c-3.4,0-6.4,1.6-7.3,5.6H54.8z"/>
	<path class="st4" d="M68.9,237.1h8.4v45.6h-8.4V237.1z"/>
	<path class="st4" d="M113.8,253v29.7h-8.4v-4.8c-1.3,3.9-6,5.6-8.9,5.6c-7.8,0-11.9-5.2-11.8-14.1V253H93v15.4
		c0,4.7,2.8,6.8,5.7,6.8c3,0,6.7-1.6,6.7-7V253H113.8z"/>
	<path class="st4" d="M119.7,273.2h7.8c0,1.7,1.5,3.6,4.4,3.6c2.4,0,4.3-1,4.3-2.7c0-1.3-1-1.9-3.3-2.5l-4-1c-7.7-2-8.7-6.3-8.7-9.4
		c0-4.6,4.8-8.9,11.7-8.9c5.4,0,11.8,2.7,11.7,9.7h-8c0-2-1.7-3.1-3.6-3.1c-1.9,0-3.4,1-3.4,2.5c0,1.4,1.3,2.1,2.9,2.6l4.9,1.3
		c7.1,1.9,8,6.4,8,8.8c0,6.3-6.4,9.3-12.5,9.3C125.8,283.3,119.7,279.8,119.7,273.2z"/>
	<path class="st4" d="M149.4,267.8c0-9.4,7.1-15.4,15.6-15.4c8.5,0,15.6,6,15.6,15.4c0,9.4-7.1,15.6-15.6,15.6
		C156.5,283.4,149.4,277.2,149.4,267.8z M176.5,267.8c0-7-5.3-11.5-11.6-11.5c-6.3,0-11.5,4.5-11.5,11.5c0,7.1,5.2,11.7,11.5,11.7
		C171.2,279.5,176.5,274.9,176.5,267.8z"/>
	<path class="st4" d="M214.6,265.4v17.4h-4.1v-17.2c0-5.7-3.6-9.3-8.4-9.3c-4.8,0-9.8,2.7-10,9.9v16.5H188V253h4.1v5.4
		c1.8-4.3,6.6-6,10.3-6C209.7,252.3,214.6,257.2,214.6,265.4z"/>
	<path class="st4" d="M251.4,269.6h-25.6c0.7,6.4,5.2,10,11.2,10c4.1,0,7.7-1.9,9.7-5.1l3.5,1.5c-2.6,4.8-7.7,7.5-13.3,7.5
		c-8.4,0-15.2-6.2-15.2-15.6c0-9.4,6.8-15.4,15.2-15.4c8.5,0,14.7,6,14.7,15.4C251.5,268.3,251.5,269,251.4,269.6z M247.5,266
		c-0.6-6.2-4.8-9.8-10.7-9.8c-5.9,0-10.2,3.4-11,9.8H247.5z"/>
</g>
</svg>
