<?xml version="1.0" encoding="UTF-8" standalone="no"?>
<!-- Generator: Adobe Illustrator 24.1.0, SVG Export Plug-In . SVG Version: 6.00 Build 0)  -->

<svg
   xmlns:dc="http://purl.org/dc/elements/1.1/"
   xmlns:cc="http://creativecommons.org/ns#"
   xmlns:rdf="http://www.w3.org/1999/02/22-rdf-syntax-ns#"
   xmlns:svg="http://www.w3.org/2000/svg"
   xmlns="http://www.w3.org/2000/svg"
   xmlns:xlink="http://www.w3.org/1999/xlink"
   xmlns:sodipodi="http://sodipodi.sourceforge.net/DTD/sodipodi-0.dtd"
   xmlns:inkscape="http://www.inkscape.org/namespaces/inkscape"
   version="1.1"
   id="Layer_1"
   x="0px"
   y="0px"
   viewBox="0 0 430.00641 212.2"
   xml:space="preserve"
   sodipodi:docname="celus-one-v3-dark.svg"
   width="430.00641"
   height="212.2"
   inkscape:version="0.92.3 (2405546, 2018-03-11)"><metadata
   id="metadata1043"><rdf:RDF><cc:Work
       rdf:about=""><dc:format>image/svg+xml</dc:format><dc:type
         rdf:resource="http://purl.org/dc/dcmitype/StillImage" /><dc:title></dc:title></cc:Work></rdf:RDF></metadata><defs
   id="defs1041" /><sodipodi:namedview
   pagecolor="#ffffff"
   bordercolor="#666666"
   borderopacity="1"
   objecttolerance="10"
   gridtolerance="10"
   guidetolerance="10"
   inkscape:pageopacity="0"
   inkscape:pageshadow="2"
   inkscape:window-width="2560"
   inkscape:window-height="1354"
   id="namedview1039"
   showgrid="false"
   fit-margin-top="0"
   fit-margin-left="0"
   fit-margin-right="0"
   fit-margin-bottom="0"
   inkscape:zoom="2.0582011"
   inkscape:cx="118.05"
   inkscape:cy="70.450003"
   inkscape:window-x="0"
   inkscape:window-y="29"
   inkscape:window-maximized="1"
   inkscape:current-layer="Layer_1" />
<style
   type="text/css"
   id="style957">
	.st0{fill:url(#SVGID_1_);}
	.st1{fill:url(#SVGID_5_);}
	.st2{fill:url(#SVGID_6_);}
	.st3{fill:url(#SVGID_7_);}
	.st4{fill:#282B61;}
</style>
<g
   id="g1016"
   transform="translate(-7.7)">
	<g
   id="g966">
		<linearGradient
   id="SVGID_1_"
   gradientUnits="userSpaceOnUse"
   x1="5.0296001"
   y1="177.50281"
   x2="131.0146"
   y2="-40.709599">
			<stop
   offset="4.546958e-04"
   style="stop-color:#F9B982;stop-opacity:0"
   id="stop959" />
			<stop
   offset="0.5683"
   style="stop-color:#F9B982"
   id="stop961" />
		</linearGradient>
		<path
   class="st0"
   d="m 36.5,186.4 36,-25.4 c -13,-14.5 -21,-33.7 -21,-54.7 0,-21.5 8.3,-41 21.9,-55.7 L 37.3,25.3 c -18.5,21.9 -29.6,50.2 -29.6,81 0,30.4 10.8,58.3 28.8,80.1 z"
   id="path964"
   inkscape:connector-curvature="0"
   style="fill:url(#SVGID_1_)" />
	</g>
	<g
   id="g985">
		<g
   id="g983">
			<g
   id="g981">
				<defs
   id="defs969">
					<path
   id="SVGID_2_"
   d="m 133.7,0 c -0.1,0 -0.1,0 0,0 -0.1,0 -0.1,0 0,0 -29.3,0 -55.9,11.9 -75.1,31.1 -19.2,19.1 -31.1,45.8 -31.1,75 0,29.2 11.9,55.9 31.1,75 19.1,19.1 45.8,31.1 75,31.1 0,0 0,0 0,0 0,0 0,0 0,0 29.2,0 55.9,-11.9 75,-31.1 4.9,-4.9 9.3,-10.3 13.2,-16 l -39.1,-27.5 c -2.3,3.5 -4.9,6.8 -7.8,9.7 -10.6,10.6 -25,17.1 -41.2,17.1 -16.2,0 -30.6,-6.5 -41.2,-17.1 -10.6,-10.6 -17,-25 -17.1,-41.2 0,-16.2 6.5,-30.6 17.1,-41.2 10.6,-10.6 25,-17.1 41.2,-17.1 16.2,0 30.6,6.5 41.2,17.1 2.8,2.8 5.4,6 7.6,9.3 L 221.7,46.7 C 217.9,41.1 213.6,35.8 208.8,31 189.5,11.9 162.9,0 133.7,0"
   inkscape:connector-curvature="0" />
				</defs>
				<linearGradient
   id="SVGID_3_"
   gradientUnits="userSpaceOnUse"
   x1="221.8129"
   y1="106.083"
   x2="27.538799"
   y2="106.083">
					<stop
   offset="0"
   style="stop-color:#282B61"
   id="stop971" />
					<stop
   offset="1"
   style="stop-color:#282B61;stop-opacity:0"
   id="stop973" />
				</linearGradient>
				<use
   xlink:href="#SVGID_2_"
   style="overflow:visible;fill:url(#SVGID_3_)"
   id="use976"
   x="0"
   y="0"
   width="100%"
   height="100%" />
				<clipPath
   id="SVGID_4_">
					<use
   xlink:href="#SVGID_2_"
   style="overflow:visible"
   id="use978"
   x="0"
   y="0"
   width="100%"
   height="100%" />
				</clipPath>
			</g>
		</g>
	</g>
	<g
   id="g994">
		<linearGradient
   id="SVGID_5_"
   gradientUnits="userSpaceOnUse"
   x1="228.3923"
   y1="105.6486"
   x2="86.046204"
   y2="187.8322">
			<stop
   offset="2.889583e-04"
   style="stop-color:#37B0C6;stop-opacity:0.2"
   id="stop987" />
			<stop
   offset="1"
   style="stop-color:#37B0C6"
   id="stop989" />
		</linearGradient>
		<path
   class="st1"
   d="m 133.7,188.1 c 28.8,0 54.1,-14.8 68.7,-37.2 l -36.3,-24.6 c -6.8,10.8 -18.8,18 -32.4,18 -9.8,0 -18.7,-3.7 -25.5,-9.8 L 72.8,161 c 15,16.6 36.7,27.1 60.9,27.1 z"
   id="path992"
   inkscape:connector-curvature="0"
   style="fill:url(#SVGID_5_)" />
	</g>
	<g
   id="g1005">
		<linearGradient
   id="SVGID_6_"
   gradientUnits="userSpaceOnUse"
   x1="217.4511"
   y1="57.645302"
   x2="53.242901"
   y2="51.0662">
			<stop
   offset="9.709999e-04"
   style="stop-color:#EC6F87;stop-opacity:0"
   id="stop996" />
			<stop
   offset="0.5561"
   style="stop-color:#EC6F87;stop-opacity:0.9688"
   id="stop998" />
			<stop
   offset="1"
   style="stop-color:#EC6F87"
   id="stop1000" />
		</linearGradient>
		<path
   class="st2"
   d="m 165.7,86 36,-25.3 C 187.6,39.5 164,25.1 136.6,24 c -1.1,0 -2.2,-0.1 -3.3,-0.1 -23.7,0 -45.1,10.2 -60.2,26.4 l 37.2,25.8 c 6.4,-4.9 14.5,-7.9 23.2,-7.9 13.5,0 25.4,7.1 32.2,17.8 z"
   id="path1003"
   inkscape:connector-curvature="0"
   style="fill:url(#SVGID_6_)" />
	</g>
	<g
   id="g1014">
		<linearGradient
   id="SVGID_7_"
   gradientUnits="userSpaceOnUse"
   x1="114.6684"
   y1="13.1105"
   x2="60.878201"
   y2="167.8591">
			<stop
   offset="0"
   style="stop-color:#51B8A2;stop-opacity:0.2"
   id="stop1007" />
			<stop
   offset="1"
   style="stop-color:#51B8A2"
   id="stop1009" />
		</linearGradient>
		<path
   class="st3"
   d="m 59.7,142 c 3.4,7.1 7.8,13.5 12.9,19.2 L 108,134.7 C 96.9,124.8 92.3,108.8 97.5,93.8 c 2.5,-7.3 7,-13.2 12.7,-17.6 L 73.5,50.6 C 65.9,58.8 59.8,68.5 56,79.5 c -7.2,20.6 -5.9,42.8 3.7,62.5 z"
   id="path1012"
   inkscape:connector-curvature="0"
   style="fill:url(#SVGID_7_)" />
	</g>
</g>

<g
   id="g1036"
   transform="translate(178.40642,-162.41414)">
	<path
   class="st4"
   d="m 0,267.8 c 0,-9.4 7.7,-15.5 16.3,-15.5 5.4,0 9.8,2.6 12.6,6.4 l -6.3,4.4 c -1.3,-1.8 -3.8,-3 -6.3,-3 -4.7,0 -7.9,3.4 -7.9,7.7 0,4.4 3.2,7.8 7.9,7.8 2.4,0 4.9,-1.1 6.3,-3 l 6.3,4.4 c -2.8,3.9 -7.1,6.4 -12.6,6.4 C 7.7,283.3 0,277.2 0,267.8 Z"
   id="path1020"
   inkscape:connector-curvature="0"
   style="fill:#282b61" />
	<path
   class="st4"
   d="M 63,270.6 H 40.6 c 0.9,3.4 3.7,5.4 7.7,5.4 3,0 6,-1.2 7.8,-3.3 l 4.9,4.9 c -2.8,3.8 -8,5.8 -13.3,5.8 -9.1,0 -15.8,-6.3 -15.8,-15.4 0,-9.6 7.3,-15.6 15.8,-15.6 8.5,0 15.4,6 15.4,15.1 0,0.7 0,1.7 -0.1,3.1 z m -8.2,-5.4 c -0.3,-3.5 -3.2,-5.6 -7,-5.6 -3.4,0 -6.4,1.6 -7.3,5.6 z"
   id="path1022"
   inkscape:connector-curvature="0"
   style="fill:#282b61" />
	<path
   class="st4"
   d="m 68.9,237.1 h 8.4 v 45.6 h -8.4 z"
   id="path1024"
   inkscape:connector-curvature="0"
   style="fill:#282b61" />
	<path
   class="st4"
   d="m 113.8,253 v 29.7 h -8.4 v -4.8 c -1.3,3.9 -6,5.6 -8.9,5.6 -7.8,0 -11.9,-5.2 -11.8,-14.1 V 253 H 93 v 15.4 c 0,4.7 2.8,6.8 5.7,6.8 3,0 6.7,-1.6 6.7,-7 V 253 Z"
   id="path1026"
   inkscape:connector-curvature="0"
   style="fill:#282b61" />
	<path
   class="st4"
   d="m 119.7,273.2 h 7.8 c 0,1.7 1.5,3.6 4.4,3.6 2.4,0 4.3,-1 4.3,-2.7 0,-1.3 -1,-1.9 -3.3,-2.5 l -4,-1 c -7.7,-2 -8.7,-6.3 -8.7,-9.4 0,-4.6 4.8,-8.9 11.7,-8.9 5.4,0 11.8,2.7 11.7,9.7 h -8 c 0,-2 -1.7,-3.1 -3.6,-3.1 -1.9,0 -3.4,1 -3.4,2.5 0,1.4 1.3,2.1 2.9,2.6 l 4.9,1.3 c 7.1,1.9 8,6.4 8,8.8 0,6.3 -6.4,9.3 -12.5,9.3 -6.1,-0.1 -12.2,-3.6 -12.2,-10.2 z"
   id="path1028"
   inkscape:connector-curvature="0"
   style="fill:#282b61" />
	<path
   class="st4"
   d="m 149.4,267.8 c 0,-9.4 7.1,-15.4 15.6,-15.4 8.5,0 15.6,6 15.6,15.4 0,9.4 -7.1,15.6 -15.6,15.6 -8.5,0 -15.6,-6.2 -15.6,-15.6 z m 27.1,0 c 0,-7 -5.3,-11.5 -11.6,-11.5 -6.3,0 -11.5,4.5 -11.5,11.5 0,7.1 5.2,11.7 11.5,11.7 6.3,0 11.6,-4.6 11.6,-11.7 z"
   id="path1030"
   inkscape:connector-curvature="0"
   style="fill:#282b61" />
	<path
   class="st4"
   d="m 214.6,265.4 v 17.4 h -4.1 v -17.2 c 0,-5.7 -3.6,-9.3 -8.4,-9.3 -4.8,0 -9.8,2.7 -10,9.9 v 16.5 H 188 V 253 h 4.1 v 5.4 c 1.8,-4.3 6.6,-6 10.3,-6 7.3,-0.1 12.2,4.8 12.2,13 z"
   id="path1032"
   inkscape:connector-curvature="0"
   style="fill:#282b61" />
	<path
   class="st4"
   d="m 251.4,269.6 h -25.6 c 0.7,6.4 5.2,10 11.2,10 4.1,0 7.7,-1.9 9.7,-5.1 l 3.5,1.5 c -2.6,4.8 -7.7,7.5 -13.3,7.5 -8.4,0 -15.2,-6.2 -15.2,-15.6 0,-9.4 6.8,-15.4 15.2,-15.4 8.5,0 14.7,6 14.7,15.4 -0.1,0.4 -0.1,1.1 -0.2,1.7 z m -3.9,-3.6 c -0.6,-6.2 -4.8,-9.8 -10.7,-9.8 -5.9,0 -10.2,3.4 -11,9.8 z"
   id="path1034"
   inkscape:connector-curvature="0"
   style="fill:#282b61" />
</g>
</svg>