<?xml version="1.0" encoding="UTF-8" standalone="no"?>
<!-- Created with Inkscape (http://www.inkscape.org/) -->

<svg
   xmlns:dc="http://purl.org/dc/elements/1.1/"
   xmlns:cc="http://creativecommons.org/ns#"
   xmlns:rdf="http://www.w3.org/1999/02/22-rdf-syntax-ns#"
   xmlns:svg="http://www.w3.org/2000/svg"
   xmlns="http://www.w3.org/2000/svg"
   xmlns:sodipodi="http://sodipodi.sourceforge.net/DTD/sodipodi-0.dtd"
   xmlns:inkscape="http://www.inkscape.org/namespaces/inkscape"
   version="1.1"
   id="svg2"
   xml:space="preserve"
   width="460"
   height="160"
   viewBox="0 0 460 160"
   sodipodi:docname="czechelib-stats.svg"
   inkscape:version="0.92.3 (2405546, 2018-03-11)"><metadata
     id="metadata8"><rdf:RDF><cc:Work
         rdf:about=""><dc:format>image/svg+xml</dc:format><dc:type
           rdf:resource="http://purl.org/dc/dcmitype/StillImage" /><dc:title></dc:title></cc:Work></rdf:RDF></metadata><defs
     id="defs6"><clipPath
       clipPathUnits="userSpaceOnUse"
       id="clipPath38"><path
         d="m 831.051,826.16 c 0,52.516 -14.317,101.195 -84.008,101.195 -65.875,0 -80.191,-48.679 -82.102,-101.195 z m -166.11,-95.449 c 0,-62.063 8.594,-120.289 82.102,-120.289 49.637,0 74.461,18.137 87.82,62.047 H 963.738 C 951.332,554.102 858.727,514.961 747.043,514.961 c -164.199,0 -230.07,92.59 -230.07,252.98 0,144.149 84.007,254.879 230.07,254.879 89.73,0 164.191,-30.547 204.289,-114.554 13.371,-26.731 20.039,-55.368 23.863,-85.914 3.825,-29.602 3.825,-60.153 3.825,-91.641 z"
         id="path36"
         inkscape:connector-curvature="0" /></clipPath></defs><sodipodi:namedview
     pagecolor="#ffffff"
     bordercolor="#666666"
     borderopacity="1"
     objecttolerance="10"
     gridtolerance="10"
     guidetolerance="10"
     inkscape:pageopacity="0"
     inkscape:pageshadow="2"
     inkscape:window-width="1851"
     inkscape:window-height="897"
     id="namedview4"
     showgrid="false"
     inkscape:zoom="1.9092821"
     inkscape:cx="193.96074"
     inkscape:cy="98.442572"
     inkscape:window-x="0"
     inkscape:window-y="28"
     inkscape:window-maximized="0"
     inkscape:current-layer="g10"
     fit-margin-top="0"
     fit-margin-left="0"
     fit-margin-right="0"
     fit-margin-bottom="0" /><g
     id="g10"
     inkscape:groupmode="layer"
     inkscape:label="ink_ext_XXXXXX"
     transform="matrix(1.3333333,0,0,-1.3333333,-6.8325989,206.11437)"><path
       style="fill:none;stroke:#000000;stroke-width:0.75px;stroke-linecap:butt;stroke-linejoin:miter;stroke-opacity:1"
       d="M 6.9994493,148.52159 V 42.460781 H 348.35812"
       id="path889"
       inkscape:connector-curvature="0"
       sodipodi:nodetypes="ccc" /><g
       id="g910"
       transform="translate(1.5,4.5)"><g
         transform="matrix(0.1,0,0,0.1,-34.567967,-1.8716722)"
         id="g12"><path
           inkscape:connector-curvature="0"
           id="path14"
           style="fill:#000000;fill-opacity:1;fill-rule:nonzero;stroke:none"
           d="m 1090.68,529.281 v 689.239 h 147.97 V 643.84 h 298.8 V 529.281 h -446.77" /><path
           inkscape:connector-curvature="0"
           id="path16"
           style="fill:#000000;fill-opacity:1;fill-rule:nonzero;stroke:none"
           d="m 1798.03,529.281 h -147.98 v 689.239 h 147.98 V 529.281" /><path
           inkscape:connector-curvature="0"
           id="path18"
           style="fill:#000000;fill-opacity:1;fill-rule:nonzero;stroke:none"
           d="m 2219.96,643.84 c 69.68,0 117.42,12.398 117.42,91.64 0,79.231 -47.74,91.649 -117.42,91.649 H 2104.45 V 643.84 Z m 0,297.844 c 62.05,0 96.42,25.765 96.42,81.136 0,55.38 -34.37,81.15 -96.42,81.15 H 2104.45 V 941.684 Z M 1956.48,529.281 v 689.239 h 258.71 c 123.14,7.64 249.16,-43.91 249.16,-178.52 0,-75.41 -52.51,-127.91 -121.24,-150.828 v -1.914 c 86.87,-18.129 151.79,-78.278 151.79,-179.469 0,-136.508 -171.84,-186.148 -277.8,-178.508 h -260.62" /><path
           inkscape:connector-curvature="0"
           id="path20"
           style="fill:#000000;fill-opacity:1;fill-rule:nonzero;stroke:none"
           d="m 588.066,1295.68 c 0.157,12.04 -7.132,21.71 -21.871,21.71 -17.429,0 -21.871,-25.83 -21.871,-41.84 0,-16 4.442,-41.84 21.871,-41.84 14.739,0 22.028,9.67 21.871,21.72 h 26.149 c -1.11,-28.69 -21.711,-39.47 -48.02,-39.47 -33.121,0 -48.015,26.15 -48.015,59.59 0,33.44 14.894,59.59 48.015,59.59 26.309,0 46.91,-10.78 48.02,-39.46 h -26.149" /><path
           inkscape:connector-curvature="0"
           id="path22"
           style="fill:#000000;fill-opacity:1;fill-rule:nonzero;stroke:none"
           d="m 640.508,1237.36 56.734,76.38 h -53.094 v 19.02 h 82.887 v -19.02 l -56.574,-76.38 h 57.84 v -19.02 h -87.793 v 19.02" /><path
           inkscape:connector-curvature="0"
           id="path24"
           style="fill:#000000;fill-opacity:1;fill-rule:nonzero;stroke:none"
           d="m 759.355,1332.76 h 76.7 v -19.02 h -52.137 v -26.78 h 48.812 v -19.01 h -48.812 v -30.59 h 53.879 v -19.02 h -78.442 v 114.42" /><path
           inkscape:connector-curvature="0"
           id="path26"
           style="fill:#000000;fill-opacity:1;fill-rule:nonzero;stroke:none"
           d="m 939.684,1295.68 c 0.16,12.04 -7.129,21.71 -21.871,21.71 -17.43,0 -21.872,-25.83 -21.872,-41.84 0,-16 4.442,-41.84 21.872,-41.84 14.742,0 22.031,9.67 21.871,21.72 h 26.144 c -1.105,-28.69 -21.707,-39.47 -48.015,-39.47 -33.122,0 -48.016,26.15 -48.016,59.59 0,33.44 14.894,59.59 48.016,59.59 26.308,0 46.91,-10.78 48.015,-39.46 h -26.144" /><path
           inkscape:connector-curvature="0"
           id="path28"
           style="fill:#000000;fill-opacity:1;fill-rule:nonzero;stroke:none"
           d="m 998.461,1218.34 v 114.42 h 24.569 v -45.16 h 43.26 v 45.16 h 24.88 v -114.42 h -24.56 v 50.24 h -43.58 v -50.24 h -24.569" /><path
           inkscape:connector-curvature="0"
           id="path30"
           style="fill:#ffffff;fill-opacity:1;fill-rule:nonzero;stroke:none"
           d="m 831.051,826.16 c 0,52.516 -14.317,101.195 -84.008,101.195 -65.875,0 -80.191,-48.679 -82.102,-101.195 z m -166.11,-95.449 c 0,-62.063 8.594,-120.289 82.102,-120.289 49.637,0 74.461,18.137 87.82,62.047 H 963.738 C 951.332,554.102 858.727,514.961 747.043,514.961 c -164.199,0 -230.07,92.59 -230.07,252.98 0,144.149 84.007,254.879 230.07,254.879 89.73,0 164.191,-30.547 204.289,-114.554 13.371,-26.731 20.039,-55.368 23.863,-85.914 3.825,-29.602 3.825,-60.153 3.825,-91.641 H 664.941" /><g
           id="g32"><g
             clip-path="url(#clipPath38)"
             id="g34"><path
               inkscape:connector-curvature="0"
               id="path40"
               style="fill:#f42837;fill-opacity:1;fill-rule:nonzero;stroke:none"
               d="m 821.23,642.441 c -2.546,-3.781 -5.328,-7.211 -8.363,-10.293 V 520.379 c 2.813,0.492 5.602,1.019 8.363,1.59 z M 801.48,623.02 c -2.652,-1.668 -5.402,-3.219 -8.367,-4.551 V 517.531 c 2.817,0.321 5.598,0.68 8.367,1.059 z m -78.914,-10 c -2.972,0.691 -5.703,1.609 -8.382,2.562 v -99.23 c 2.757,-0.243 5.562,-0.422 8.382,-0.602 z m -8.382,309.082 c 2.64,0.961 5.461,1.769 8.382,2.476 v 97.122 c -2.824,-0.25 -5.609,-0.58 -8.382,-0.93 z m -39.383,-39.907 c 5.746,14.446 14.668,26.442 28.07,34.457 v 102.478 c -9.703,-1.65 -19.066,-3.83 -28.07,-6.55 z m 28.07,-261.476 c -13.574,7.953 -22.391,20.082 -28.07,34.82 v -133.34 c 8.945,-1.969 18.273,-3.57 28.07,-4.738 z m 138.067,51.75 h -6.075 c -0.73,-2.387 -1.508,-4.68 -2.308,-6.93 V 524.57 c 2.816,0.711 5.629,1.41 8.383,2.2 z m 134.257,149.883 c -1.203,9.578 -2.722,18.949 -4.605,28.16 V 730.711 h 8.43 c 0,31.488 0,62.039 -3.825,91.641 z M 525.316,843.27 c -5.496,-23.68 -8.343,-48.938 -8.343,-75.329 0,-32.332 2.73,-61.839 8.343,-88.461 z m 426.016,64.996 c -5.957,12.48 -12.758,23.64 -20.172,33.839 V 730.711 h 28.153 v 159.273 c -2.372,6.188 -4.981,12.289 -7.981,18.282 z M 919.84,571.371 V 672.469 H 891.695 V 548.801 c 10.297,6.461 19.723,13.949 28.145,22.57 z m -39.43,101.098 h -8.383 V 538.32 c 2.836,1.321 5.649,2.649 8.383,4.09 z m 78.903,0 H 931.16 v -87.981 c 12.949,16.942 22.512,37.571 28.153,62.16 z M 733.938,1022.51 v -95.92 c 4.136,0.469 8.464,0.765 13.105,0.765 5.359,0 10.281,-0.378 15.008,-0.937 v 96.072 c -4.957,0.2 -9.949,0.33 -15.008,0.33 -4.43,0 -8.797,-0.11 -13.105,-0.31 z m 28.113,-507.209 v 95.801 c -4.75,-0.422 -9.711,-0.68 -15.008,-0.68 -4.625,0 -8.984,0.238 -13.105,0.68 v -95.911 c 4.304,-0.132 8.652,-0.23 13.105,-0.23 5.059,0 10.031,0.168 15.008,0.34 z m 109.976,215.41 h 8.383 v 259.125 c -2.73,1.707 -5.566,3.234 -8.383,4.797 z m -39.472,0 h 8.383 v 277.859 c -2.747,0.96 -5.579,1.76 -8.383,2.61 z M 663.402,1008.81 c -2.828,-1.03 -5.605,-2.12 -8.359,-3.25 V 527.41 c 2.746,-0.851 5.523,-1.66 8.359,-2.43 z M 919.84,956.227 c -8.664,9.8 -18.027,18.472 -28.145,25.91 V 730.711 H 919.84 Z M 604.262,551.301 v 424.285 c -10.219,-8.25 -19.614,-17.43 -28.117,-27.492 V 575.051 c 8.398,-8.871 17.761,-16.789 28.117,-23.75 z M 643.691,1000.5 C 633.777,995.723 624.41,990.238 615.59,984.086 V 544.332 c 8.734,-4.961 18.082,-9.332 28.101,-13.051 z M 556.395,600.238 c 2.66,-4.109 5.453,-8.09 8.394,-11.918 v 345.09 c -2.926,-4.125 -5.726,-8.351 -8.394,-12.711 z M 821.23,826.16 h -8.363 v -95.449 h 8.363 z m -28.117,90.746 c 3.004,-1.683 5.797,-3.551 8.367,-5.59 v 107.134 c -2.773,0.46 -5.546,0.93 -8.367,1.32 z m 19.754,-17.371 c 3.317,-4.472 6.086,-9.359 8.363,-14.601 v 129.406 c -2.773,0.69 -5.542,1.39 -8.363,1.99 z M 702.871,826.16 h -28.07 v -95.449 h 28.07 z m 98.609,0 h -8.367 v -95.449 h 8.367 z m -78.914,0 h -8.382 v -95.449 h 8.382 z m 39.485,-95.449 h -28.113 v 95.449 h 28.113 v -95.449" /></g></g></g><text
         transform="scale(1,-1)"
         id="text893"
         y="-50.280678"
         x="220.76361"
         style="font-style:normal;font-variant:normal;font-weight:normal;font-stretch:normal;font-size:56px;line-height:1.25;font-family:Arial;-inkscape-font-specification:'Arial, Normal';font-variant-ligatures:normal;font-variant-caps:normal;font-variant-numeric:normal;font-feature-settings:normal;text-align:start;letter-spacing:0px;word-spacing:0px;writing-mode:lr-tb;text-anchor:start;fill:#f42837;fill-opacity:1;stroke:none;stroke-width:0.75"
         xml:space="preserve"><tspan
           style="font-style:normal;font-variant:normal;font-weight:normal;font-stretch:normal;font-size:56px;font-family:Arial;-inkscape-font-specification:'Arial, Normal';font-variant-ligatures:normal;font-variant-caps:normal;font-variant-numeric:normal;font-feature-settings:normal;text-align:start;writing-mode:lr-tb;text-anchor:start;fill:#f42837;fill-opacity:1;stroke-width:0.75"
           y="-50.280678"
           x="220.76361"
           id="tspan891"
           sodipodi:role="line">stats</tspan></text>
</g></g></svg>