<?xml version="1.0" encoding="UTF-8" standalone="no"?>
<!-- Created with Inkscape (http://www.inkscape.org/) -->

<svg
   xmlns:dc="http://purl.org/dc/elements/1.1/"
   xmlns:cc="http://creativecommons.org/ns#"
   xmlns:rdf="http://www.w3.org/1999/02/22-rdf-syntax-ns#"
   xmlns:svg="http://www.w3.org/2000/svg"
   xmlns="http://www.w3.org/2000/svg"
   xmlns:sodipodi="http://sodipodi.sourceforge.net/DTD/sodipodi-0.dtd"
   xmlns:inkscape="http://www.inkscape.org/namespaces/inkscape"
   version="1.1"
   id="svg2"
   xml:space="preserve"
   width="140"
   height="56"
   viewBox="0 0 140 56"
   sodipodi:docname="czechelib-stats-64.svg"
   inkscape:version="0.92.3 (2405546, 2018-03-11)"><metadata
     id="metadata8"><rdf:RDF><cc:Work
         rdf:about=""><dc:format>image/svg+xml</dc:format><dc:type
           rdf:resource="http://purl.org/dc/dcmitype/StillImage" /><dc:title></dc:title></cc:Work></rdf:RDF></metadata><defs
     id="defs6"><clipPath
       clipPathUnits="userSpaceOnUse"
       id="clipPath38"><path
         d="m 831.051,826.16 c 0,52.516 -14.317,101.195 -84.008,101.195 -65.875,0 -80.191,-48.679 -82.102,-101.195 z m -166.11,-95.449 c 0,-62.063 8.594,-120.289 82.102,-120.289 49.637,0 74.461,18.137 87.82,62.047 H 963.738 C 951.332,554.102 858.727,514.961 747.043,514.961 c -164.199,0 -230.07,92.59 -230.07,252.98 0,144.149 84.007,254.879 230.07,254.879 89.73,0 164.191,-30.547 204.289,-114.554 13.371,-26.731 20.039,-55.368 23.863,-85.914 3.825,-29.602 3.825,-60.153 3.825,-91.641 z"
         id="path36"
         inkscape:connector-curvature="0" /></clipPath></defs><sodipodi:namedview
     pagecolor="#ffffff"
     bordercolor="#666666"
     borderopacity="1"
     objecttolerance="10"
     gridtolerance="10"
     guidetolerance="10"
     inkscape:pageopacity="0"
     inkscape:pageshadow="2"
     inkscape:window-width="1851"
     inkscape:window-height="897"
     id="namedview4"
     showgrid="false"
     inkscape:zoom="1.9092821"
     inkscape:cx="193.96074"
     inkscape:cy="56.542007"
     inkscape:window-x="0"
     inkscape:window-y="28"
     inkscape:window-maximized="0"
     inkscape:current-layer="g10"
     fit-margin-top="0"
     fit-margin-left="0"
     fit-margin-right="0"
     fit-margin-bottom="0" /><g
     id="g10"
     inkscape:groupmode="layer"
     inkscape:label="ink_ext_XXXXXX"
     transform="matrix(1.3333333,0,0,-1.3333333,-6.8325989,102.11437)"><g
       id="g12"
       transform="matrix(0.0291563,0,0,0.0291563,-3.7984643,27.590964)"><path
         d="m 1090.68,529.281 v 689.239 h 147.97 V 643.84 h 298.8 V 529.281 h -446.77"
         style="fill:#000000;fill-opacity:1;fill-rule:nonzero;stroke:none"
         id="path14"
         inkscape:connector-curvature="0" /><path
         d="m 1798.03,529.281 h -147.98 v 689.239 h 147.98 V 529.281"
         style="fill:#000000;fill-opacity:1;fill-rule:nonzero;stroke:none"
         id="path16"
         inkscape:connector-curvature="0" /><path
         d="m 2219.96,643.84 c 69.68,0 117.42,12.398 117.42,91.64 0,79.231 -47.74,91.649 -117.42,91.649 H 2104.45 V 643.84 Z m 0,297.844 c 62.05,0 96.42,25.765 96.42,81.136 0,55.38 -34.37,81.15 -96.42,81.15 H 2104.45 V 941.684 Z M 1956.48,529.281 v 689.239 h 258.71 c 123.14,7.64 249.16,-43.91 249.16,-178.52 0,-75.41 -52.51,-127.91 -121.24,-150.828 v -1.914 c 86.87,-18.129 151.79,-78.278 151.79,-179.469 0,-136.508 -171.84,-186.148 -277.8,-178.508 h -260.62"
         style="fill:#000000;fill-opacity:1;fill-rule:nonzero;stroke:none"
         id="path18"
         inkscape:connector-curvature="0" /><path
         d="m 588.066,1295.68 c 0.157,12.04 -7.132,21.71 -21.871,21.71 -17.429,0 -21.871,-25.83 -21.871,-41.84 0,-16 4.442,-41.84 21.871,-41.84 14.739,0 22.028,9.67 21.871,21.72 h 26.149 c -1.11,-28.69 -21.711,-39.47 -48.02,-39.47 -33.121,0 -48.015,26.15 -48.015,59.59 0,33.44 14.894,59.59 48.015,59.59 26.309,0 46.91,-10.78 48.02,-39.46 h -26.149"
         style="fill:#000000;fill-opacity:1;fill-rule:nonzero;stroke:none"
         id="path20"
         inkscape:connector-curvature="0" /><path
         d="m 640.508,1237.36 56.734,76.38 h -53.094 v 19.02 h 82.887 v -19.02 l -56.574,-76.38 h 57.84 v -19.02 h -87.793 v 19.02"
         style="fill:#000000;fill-opacity:1;fill-rule:nonzero;stroke:none"
         id="path22"
         inkscape:connector-curvature="0" /><path
         d="m 759.355,1332.76 h 76.7 v -19.02 h -52.137 v -26.78 h 48.812 v -19.01 h -48.812 v -30.59 h 53.879 v -19.02 h -78.442 v 114.42"
         style="fill:#000000;fill-opacity:1;fill-rule:nonzero;stroke:none"
         id="path24"
         inkscape:connector-curvature="0" /><path
         d="m 939.684,1295.68 c 0.16,12.04 -7.129,21.71 -21.871,21.71 -17.43,0 -21.872,-25.83 -21.872,-41.84 0,-16 4.442,-41.84 21.872,-41.84 14.742,0 22.031,9.67 21.871,21.72 h 26.144 c -1.105,-28.69 -21.707,-39.47 -48.015,-39.47 -33.122,0 -48.016,26.15 -48.016,59.59 0,33.44 14.894,59.59 48.016,59.59 26.308,0 46.91,-10.78 48.015,-39.46 h -26.144"
         style="fill:#000000;fill-opacity:1;fill-rule:nonzero;stroke:none"
         id="path26"
         inkscape:connector-curvature="0" /><path
         d="m 998.461,1218.34 v 114.42 h 24.569 v -45.16 h 43.26 v 45.16 h 24.88 v -114.42 h -24.56 v 50.24 h -43.58 v -50.24 h -24.569"
         style="fill:#000000;fill-opacity:1;fill-rule:nonzero;stroke:none"
         id="path28"
         inkscape:connector-curvature="0" /><path
         d="m 831.051,826.16 c 0,52.516 -14.317,101.195 -84.008,101.195 -65.875,0 -80.191,-48.679 -82.102,-101.195 z m -166.11,-95.449 c 0,-62.063 8.594,-120.289 82.102,-120.289 49.637,0 74.461,18.137 87.82,62.047 H 963.738 C 951.332,554.102 858.727,514.961 747.043,514.961 c -164.199,0 -230.07,92.59 -230.07,252.98 0,144.149 84.007,254.879 230.07,254.879 89.73,0 164.191,-30.547 204.289,-114.554 13.371,-26.731 20.039,-55.368 23.863,-85.914 3.825,-29.602 3.825,-60.153 3.825,-91.641 H 664.941"
         style="fill:#ffffff;fill-opacity:1;fill-rule:nonzero;stroke:none"
         id="path30"
         inkscape:connector-curvature="0" /><g
         id="g32"><g
           id="g34"
           clip-path="url(#clipPath38)"><path
             d="m 821.23,642.441 c -2.546,-3.781 -5.328,-7.211 -8.363,-10.293 V 520.379 c 2.813,0.492 5.602,1.019 8.363,1.59 z M 801.48,623.02 c -2.652,-1.668 -5.402,-3.219 -8.367,-4.551 V 517.531 c 2.817,0.321 5.598,0.68 8.367,1.059 z m -78.914,-10 c -2.972,0.691 -5.703,1.609 -8.382,2.562 v -99.23 c 2.757,-0.243 5.562,-0.422 8.382,-0.602 z m -8.382,309.082 c 2.64,0.961 5.461,1.769 8.382,2.476 v 97.122 c -2.824,-0.25 -5.609,-0.58 -8.382,-0.93 z m -39.383,-39.907 c 5.746,14.446 14.668,26.442 28.07,34.457 v 102.478 c -9.703,-1.65 -19.066,-3.83 -28.07,-6.55 z m 28.07,-261.476 c -13.574,7.953 -22.391,20.082 -28.07,34.82 v -133.34 c 8.945,-1.969 18.273,-3.57 28.07,-4.738 z m 138.067,51.75 h -6.075 c -0.73,-2.387 -1.508,-4.68 -2.308,-6.93 V 524.57 c 2.816,0.711 5.629,1.41 8.383,2.2 z m 134.257,149.883 c -1.203,9.578 -2.722,18.949 -4.605,28.16 V 730.711 h 8.43 c 0,31.488 0,62.039 -3.825,91.641 z M 525.316,843.27 c -5.496,-23.68 -8.343,-48.938 -8.343,-75.329 0,-32.332 2.73,-61.839 8.343,-88.461 z m 426.016,64.996 c -5.957,12.48 -12.758,23.64 -20.172,33.839 V 730.711 h 28.153 v 159.273 c -2.372,6.188 -4.981,12.289 -7.981,18.282 z M 919.84,571.371 V 672.469 H 891.695 V 548.801 c 10.297,6.461 19.723,13.949 28.145,22.57 z m -39.43,101.098 h -8.383 V 538.32 c 2.836,1.321 5.649,2.649 8.383,4.09 z m 78.903,0 H 931.16 v -87.981 c 12.949,16.942 22.512,37.571 28.153,62.16 z M 733.938,1022.51 v -95.92 c 4.136,0.469 8.464,0.765 13.105,0.765 5.359,0 10.281,-0.378 15.008,-0.937 v 96.072 c -4.957,0.2 -9.949,0.33 -15.008,0.33 -4.43,0 -8.797,-0.11 -13.105,-0.31 z m 28.113,-507.209 v 95.801 c -4.75,-0.422 -9.711,-0.68 -15.008,-0.68 -4.625,0 -8.984,0.238 -13.105,0.68 v -95.911 c 4.304,-0.132 8.652,-0.23 13.105,-0.23 5.059,0 10.031,0.168 15.008,0.34 z m 109.976,215.41 h 8.383 v 259.125 c -2.73,1.707 -5.566,3.234 -8.383,4.797 z m -39.472,0 h 8.383 v 277.859 c -2.747,0.96 -5.579,1.76 -8.383,2.61 z M 663.402,1008.81 c -2.828,-1.03 -5.605,-2.12 -8.359,-3.25 V 527.41 c 2.746,-0.851 5.523,-1.66 8.359,-2.43 z M 919.84,956.227 c -8.664,9.8 -18.027,18.472 -28.145,25.91 V 730.711 H 919.84 Z M 604.262,551.301 v 424.285 c -10.219,-8.25 -19.614,-17.43 -28.117,-27.492 V 575.051 c 8.398,-8.871 17.761,-16.789 28.117,-23.75 z M 643.691,1000.5 C 633.777,995.723 624.41,990.238 615.59,984.086 V 544.332 c 8.734,-4.961 18.082,-9.332 28.101,-13.051 z M 556.395,600.238 c 2.66,-4.109 5.453,-8.09 8.394,-11.918 v 345.09 c -2.926,-4.125 -5.726,-8.351 -8.394,-12.711 z M 821.23,826.16 h -8.363 v -95.449 h 8.363 z m -28.117,90.746 c 3.004,-1.683 5.797,-3.551 8.367,-5.59 v 107.134 c -2.773,0.46 -5.546,0.93 -8.367,1.32 z m 19.754,-17.371 c 3.317,-4.472 6.086,-9.359 8.363,-14.601 v 129.406 c -2.773,0.69 -5.542,1.39 -8.363,1.99 z M 702.871,826.16 h -28.07 v -95.449 h 28.07 z m 98.609,0 h -8.367 v -95.449 h 8.367 z m -78.914,0 h -8.382 v -95.449 h 8.382 z m 39.485,-95.449 h -28.113 v 95.449 h 28.113 v -95.449"
             style="fill:#f42837;fill-opacity:1;fill-rule:nonzero;stroke:none"
             id="path40"
             inkscape:connector-curvature="0" /></g></g></g><g
       aria-label="stats"
       transform="scale(1,-1)"
       style="font-style:normal;font-variant:normal;font-weight:normal;font-stretch:normal;font-size:16.32752991px;line-height:1.25;font-family:Arial;-inkscape-font-specification:'Arial, Normal';font-variant-ligatures:normal;font-variant-caps:normal;font-variant-numeric:normal;font-feature-settings:normal;text-align:start;letter-spacing:0px;word-spacing:0px;writing-mode:lr-tb;text-anchor:start;fill:#f42837;fill-opacity:1;stroke:none;stroke-width:0.21867228"
       id="text893"><path
         d="m 71.149045,-45.323921 1.419092,-0.223228 q 0.119586,0.85305 0.661711,1.307478 0.550098,0.454429 1.530706,0.454429 0.988581,0 1.466927,-0.398622 0.478345,-0.406593 0.478345,-0.948718 0,-0.486318 -0.422538,-0.765353 -0.29498,-0.191339 -1.466927,-0.486318 -1.57854,-0.398622 -2.192417,-0.685629 -0.605905,-0.29498 -0.924802,-0.805215 -0.310924,-0.518208 -0.310924,-1.140057 0,-0.566043 0.255117,-1.044388 0.26309,-0.486318 0.709546,-0.805215 0.334842,-0.247145 0.908857,-0.414566 0.581987,-0.175394 1.243698,-0.175394 0.996554,0 1.745962,0.287008 0.75738,0.287007 1.11614,0.781297 0.358759,0.486318 0.49429,1.307478 l -1.403147,0.191339 q -0.09567,-0.653739 -0.55807,-1.020471 -0.454428,-0.366732 -1.291533,-0.366732 -0.988581,0 -1.41112,0.32687 -0.422538,0.326869 -0.422538,0.765353 0,0.279035 0.175393,0.502263 0.175394,0.2312 0.550098,0.382676 0.215255,0.07972 1.267616,0.366732 1.522733,0.406594 2.120665,0.669684 0.605904,0.255117 0.948719,0.749408 0.342814,0.49429 0.342814,1.227753 0,0.717519 -0.422538,1.355313 -0.414567,0.629822 -1.203837,0.980609 -0.78927,0.342814 -1.785823,0.342814 -1.650293,0 -2.519287,-0.685629 -0.861022,-0.685629 -1.100195,-2.032969 z"
         style="font-style:normal;font-variant:normal;font-weight:normal;font-stretch:normal;font-size:16.32752991px;font-family:Arial;-inkscape-font-specification:'Arial, Normal';font-variant-ligatures:normal;font-variant-caps:normal;font-variant-numeric:normal;font-feature-settings:normal;text-align:start;writing-mode:lr-tb;text-anchor:start;fill:#f42837;fill-opacity:1;stroke-width:0.21867228"
         id="path982" /><path
         d="m 83.019988,-44.080222 0.207283,1.267616 q -0.605904,0.127559 -1.08425,0.127559 -0.781298,0 -1.211809,-0.247146 -0.430511,-0.247145 -0.605904,-0.645766 -0.175393,-0.406594 -0.175393,-1.698127 v -4.871153 h -1.052361 v -1.11614 h 1.052361 v -2.096748 l 1.427064,-0.861022 v 2.95777 h 1.443009 v 1.11614 h -1.443009 v 4.950877 q 0,0.613877 0.07175,0.78927 0.07972,0.175394 0.247145,0.279035 0.175393,0.103642 0.49429,0.103642 0.239173,0 0.629822,-0.05581 z"
         style="font-style:normal;font-variant:normal;font-weight:normal;font-stretch:normal;font-size:16.32752991px;font-family:Arial;-inkscape-font-specification:'Arial, Normal';font-variant-ligatures:normal;font-variant-caps:normal;font-variant-numeric:normal;font-feature-settings:normal;text-align:start;writing-mode:lr-tb;text-anchor:start;fill:#f42837;fill-opacity:1;stroke-width:0.21867228"
         id="path984" /><path
         d="m 89.940055,-43.841049 q -0.797243,0.677656 -1.538679,0.956691 -0.733463,0.279035 -1.57854,0.279035 -1.395175,0 -2.144583,-0.677656 -0.749408,-0.685629 -0.749408,-1.745962 0,-0.621849 0.279035,-1.132084 0.287007,-0.518208 0.741436,-0.829133 0.4624,-0.310924 1.036415,-0.470373 0.422539,-0.111614 1.275588,-0.215256 1.737989,-0.207283 2.559149,-0.49429 0.008,-0.29498 0.008,-0.374704 0,-0.876967 -0.406594,-1.235726 -0.550098,-0.486318 -1.634348,-0.486318 -1.012498,0 -1.498816,0.358759 -0.478345,0.350787 -0.709546,1.251671 l -1.403147,-0.191338 q 0.191338,-0.900884 0.629822,-1.450982 0.438483,-0.55807 1.267616,-0.85305 0.829132,-0.302952 1.921355,-0.302952 1.08425,0 1.761906,0.255118 0.677656,0.255118 0.996553,0.645766 0.318897,0.382677 0.446456,0.972636 0.07175,0.366732 0.07175,1.323423 v 1.913383 q 0,2.001079 0.0877,2.535231 0.09567,0.526181 0.366731,1.012499 h -1.498816 q -0.223228,-0.446456 -0.287007,-1.044388 z m -0.119587,-3.204916 q -0.781298,0.318897 -2.343893,0.542125 -0.88494,0.127559 -1.251671,0.287008 -0.366732,0.159448 -0.566043,0.470373 -0.19931,0.302952 -0.19931,0.677656 0,0.574015 0.430511,0.956691 0.438483,0.382677 1.275588,0.382677 0.829133,0 1.474899,-0.35876 0.645767,-0.366731 0.948719,-0.996553 0.2312,-0.486318 0.2312,-1.435037 z"
         style="font-style:normal;font-variant:normal;font-weight:normal;font-stretch:normal;font-size:16.32752991px;font-family:Arial;-inkscape-font-specification:'Arial, Normal';font-variant-ligatures:normal;font-variant-caps:normal;font-variant-numeric:normal;font-feature-settings:normal;text-align:start;writing-mode:lr-tb;text-anchor:start;fill:#f42837;fill-opacity:1;stroke-width:0.21867228"
         id="path986" /><path
         d="m 96.636893,-44.080222 0.207283,1.267616 q -0.605904,0.127559 -1.08425,0.127559 -0.781297,0 -1.211808,-0.247146 -0.430511,-0.247145 -0.605905,-0.645766 -0.175393,-0.406594 -0.175393,-1.698127 v -4.871153 h -1.052361 v -1.11614 h 1.052361 v -2.096748 l 1.427064,-0.861022 v 2.95777 h 1.443009 v 1.11614 h -1.443009 v 4.950877 q 0,0.613877 0.07175,0.78927 0.07972,0.175394 0.247145,0.279035 0.175394,0.103642 0.494291,0.103642 0.239172,0 0.629821,-0.05581 z"
         style="font-style:normal;font-variant:normal;font-weight:normal;font-stretch:normal;font-size:16.32752991px;font-family:Arial;-inkscape-font-specification:'Arial, Normal';font-variant-ligatures:normal;font-variant-caps:normal;font-variant-numeric:normal;font-feature-settings:normal;text-align:start;writing-mode:lr-tb;text-anchor:start;fill:#f42837;fill-opacity:1;stroke-width:0.21867228"
         id="path988" /><path
         d="m 97.458054,-45.323921 1.419092,-0.223228 q 0.119587,0.85305 0.661712,1.307478 0.550102,0.454429 1.530702,0.454429 0.98858,0 1.46693,-0.398622 0.47835,-0.406593 0.47835,-0.948718 0,-0.486318 -0.42254,-0.765353 -0.29498,-0.191339 -1.46693,-0.486318 -1.57854,-0.398622 -2.192417,-0.685629 -0.605904,-0.29498 -0.924801,-0.805215 -0.310925,-0.518208 -0.310925,-1.140057 0,-0.566043 0.255118,-1.044388 0.26309,-0.486318 0.709546,-0.805215 0.334842,-0.247145 0.908856,-0.414566 0.581983,-0.175394 1.243703,-0.175394 0.99655,0 1.74596,0.287008 0.75738,0.287007 1.11614,0.781297 0.35876,0.486318 0.49429,1.307478 l -1.40315,0.191339 q -0.0957,-0.653739 -0.55807,-1.020471 -0.45443,-0.366732 -1.29153,-0.366732 -0.988583,0 -1.411122,0.32687 -0.422539,0.326869 -0.422539,0.765353 0,0.279035 0.175394,0.502263 0.175393,0.2312 0.550097,0.382676 0.21526,0.07972 1.26762,0.366732 1.52273,0.406594 2.12066,0.669684 0.60591,0.255117 0.94872,0.749408 0.34281,0.49429 0.34281,1.227753 0,0.717519 -0.42253,1.355313 -0.41457,0.629822 -1.20384,0.980609 -0.78927,0.342814 -1.78582,0.342814 -1.650296,0 -2.519291,-0.685629 -0.861022,-0.685629 -1.100195,-2.032969 z"
         style="font-style:normal;font-variant:normal;font-weight:normal;font-stretch:normal;font-size:16.32752991px;font-family:Arial;-inkscape-font-specification:'Arial, Normal';font-variant-ligatures:normal;font-variant-caps:normal;font-variant-numeric:normal;font-feature-settings:normal;text-align:start;writing-mode:lr-tb;text-anchor:start;fill:#f42837;fill-opacity:1;stroke-width:0.21867228"
         id="path990" /></g></g></svg>