<?xml version="1.0" encoding="UTF-8"?>
<!-- Created with Inkscape (http://www.inkscape.org/) -->
<svg width="201" height="96" version="1.1" viewBox="0 0 201 96" xml:space="preserve" xmlns="http://www.w3.org/2000/svg" xmlns:cc="http://creativecommons.org/ns#" xmlns:dc="http://purl.org/dc/elements/1.1/" xmlns:rdf="http://www.w3.org/1999/02/22-rdf-syntax-ns#"><metadata><rdf:RDF><cc:Work rdf:about=""><dc:format>image/svg+xml</dc:format><dc:type rdf:resource="http://purl.org/dc/dcmitype/StillImage"/><dc:title/></cc:Work></rdf:RDF></metadata><g transform="matrix(1.3333 0 0 -1.3333 0 96)"><g transform="scale(.083913)"><path d="m1050.8 797.87 88.31 52.52h-27.93l-81.16-36.532-82.564 36.532h-26.34l88.944-52.52zm42.88-284.03c38.69 12.41 67.43 34.148 71.29 64.609 0 42.989-50.29 60.184-99.8 70.418-71.874 14.328-122.98 26.192-130.97 57.305-1.465 4.336-1.609 6.562-1.609 9.836 1.609 33.562 48.738 54.433 91.867 54.433 43.9 0 71.84-5.703 99.78-31.933l23.97 7.801c-31.13 27.824-73.46 35.207-123.75 35.207-41.828 0-77.523-7.012-103.34-19.582v88.457h-63.707l-162.31-210.63h-1.551l-165.44 210.63h-62.117v-258.02h30.293v225.36l181.9-229.79h-55.981v-258.03h25.668v225.38l184.08-232.55h0.758l185.63 235.74v-228.56h54.36v171.54h96.08v-240.64h55.91v240.64h115.74v12.387zm-20.98 14.844v59.257h-63.69l-52.081-67.597c-21.621 5.605-40.801 15.469-55.461 30.261l-26.367-9.832c16.902-16.32 42.304-27.246 71.886-33.351l-100.28-130.12h-1.551l-163.65 208.38 185.22 235.25v-228.57h54.394v62.785c28.711-11.523 68.078-18.894 108.11-27.988 59.1-12.695 76.66-35.203 76.66-56.902 0-16.739-12-31.457-33.19-41.582" fill="#498f9a"/><g fill="#7b7979"><path d="m0 195.97h12.977l34.41-73.938 34.883 73.938h11.957v-81.485h-8.0039l0.3164 74.461-34.516-74.461h-9.3711l-35.43 74.461 0.78515-74.461h-8.0078v81.485"/><path d="m125.37 195.97h8.121v-81.477h-8.121v81.477"/><path d="m164.53 195.97h10.391l56.977-73.125v73.125h7.902v-81.485h-10.844l-56.527 73.125v-73.125h-7.899v81.485"/><path d="m270.94 195.97h8.118v-81.477h-8.118v81.477"/><path d="m315.29 141.33v-0.43c0-12.312 10.055-20.546 25.84-20.546 15.922 0 25.273 6.769 25.273 16.691 0 9.277-6.543 11.617-20.324 14.109l-17.367 3.047c-12.981 2.254-19.301 9.024-19.301 20.313 0 13.996 11.508 23.566 31.039 23.566 19.871 0 31.594-9.465 32.039-25.019h-8.117c-1.019 11.386-9.141 17.578-23.703 17.578-14.445 0-22.91-6.301-22.91-15.684 0-8.555 6.672-11.496 20.312-13.859l15.469-2.715c14.781-2.598 21.434-8.914 21.434-21.008 0-15.562-12.063-25.035-33.063-25.035-21.89 0-34.871 10.828-34.871 27.762v1.23h8.25"/><path d="m424.62 188.51h-31.488v7.461h71.086v-7.461h-31.481v-74.016h-8.117v74.016"/><path d="m485.32 195.97h62.633v-7.578h-54.492v-28.567h50.324v-7.656h-50.324v-30.008h54.492v-7.676h-62.633v81.485"/><path d="m574.14 195.97h39.054c19.403 0 29.227-7.356 29.227-21.914 0-10.703-4.293-17.032-14.113-20.305 9.258-1.473 11.402-5.762 12.531-15.469 1.238-10.82 0.559-19.062 3.949-23.797h-9.492c-2.477 7.442-1.797 15.567-2.816 23.797-1.012 8.379-5.762 11.184-15.911 11.184h-34.293v-34.981h-8.136zm8.136-7.578v-31.262h30.012c15.012 0 21.891 4.191 21.891 15.676 0 12.09-7.223 15.586-22.91 15.586h-28.993"/><path d="m676.05 141.33v-0.43c0-12.312 10.031-20.546 25.84-20.546 15.89 0 25.269 6.769 25.269 16.691 0 9.277-6.543 11.617-20.32 14.109l-17.367 3.047c-12.981 2.254-19.301 9.024-19.301 20.313 0 13.996 11.508 23.566 31.027 23.566 19.86 0 31.614-9.465 32.043-25.019h-8.121c-1.012 11.386-9.133 17.578-23.691 17.578-14.449 0-22.903-6.301-22.903-15.684 0-8.555 6.665-11.496 20.305-13.859l15.469-2.715c14.769-2.598 21.43-8.914 21.43-21.008 0-15.562-12.059-25.035-33.059-25.035-21.891 0-34.852 10.828-34.852 27.762v1.23h8.231"/><path d="m785.38 188.51h-31.488v7.461h71.09v-7.461h-31.481v-74.016h-8.121v74.016"/><path d="m837.07 195.97h8.91l32.719-74.492 32.711 74.492h8.938l-36.571-81.485h-10.265l-36.442 81.485"/><path d="m978.46 112.34c-26.746 0-42.762 16.355-42.762 42.898 0 26.496 16.016 42.852 42.762 42.852 26.749 0 42.869-16.356 42.869-42.852 0-26.543-16.12-42.898-42.869-42.898m34.519 42.898c0 21.868-12.98 34.969-34.519 34.969-21.551 0-34.531-13.101-34.531-34.969 0-21.914 12.98-35 34.531-35 21.539 0 34.519 13.086 34.519 35"/><path d="m1100.9 141.33v-0.43c0-12.312 10.03-20.546 25.83-20.546 15.93 0 25.28 6.769 25.28 16.691 0 9.277-6.55 11.617-20.3 14.109l-17.38 3.047c-12.97 2.254-19.29 9.024-19.29 20.313 0 13.996 11.51 23.566 31.04 23.566 19.84 0 31.58-9.465 32.04-25.019h-8.12c-1.04 11.386-9.16 17.578-23.72 17.578-14.43 0-22.91-6.301-22.91-15.684 0-8.555 6.66-11.496 20.33-13.859l15.46-2.715c14.79-2.598 21.44-8.914 21.44-21.008 0-15.562-12.07-25.035-33.08-25.035-21.89 0-34.85 10.828-34.85 27.762v1.23zm36.9 79.563h8.7l-15.7-16.7h-9.24l-15.7 16.7h8.69l11.63-12.071 11.62 12.071"/><path d="m1188.1 195.97h8.14v-44.59l50.42 44.59h11.29l-38.37-34.102 38.37-47.383h-10.38l-34.07 42.079-17.26-15.118v-26.961h-8.14v81.485"/><path d="m1314.5 112.34c-26.74 0-42.76 16.355-42.76 42.898 0 26.496 16.02 42.852 42.76 42.852 26.75 0 42.88-16.356 42.88-42.852 0-26.543-16.13-42.898-42.88-42.898m34.53 42.898c0 21.868-12.99 34.969-34.53 34.969-21.56 0-34.52-13.101-34.52-34.969 0-21.914 12.96-35 34.52-35 21.54 0 34.53 13.086 34.53 35"/><path d="m1383.9 195.97h8.13v-73.809h51.24v-7.676h-59.37v81.485"/><path d="m1472.5 141.33v-0.43c0-12.312 10.05-20.546 25.85-20.546 15.9 0 25.28 6.769 25.28 16.691 0 9.277-6.54 11.617-20.32 14.109l-17.37 3.047c-12.99 2.254-19.3 9.024-19.3 20.313 0 13.996 11.5 23.566 31.02 23.566 19.86 0 31.61-9.465 32.04-25.019h-8.11c-1.02 11.386-9.14 17.578-23.7 17.578-14.44 0-22.9-6.301-22.9-15.684 0-8.555 6.65-11.496 20.31-13.859l15.46-2.715c14.78-2.598 21.43-8.914 21.43-21.008 0-15.562-12.06-25.035-33.04-25.035-21.91 0-34.89 10.828-34.89 27.762v1.23h8.24"/><path d="m1581.8 188.51h-31.48v7.461h71.08v-7.461h-31.47v-74.016h-8.13v74.016"/><path d="m1633.5 195.97h8.92l32.72-74.492 32.73 74.492h8.9l-36.57-81.485h-10.26l-36.44 81.485"/><path d="m1738.8 195.97h8.13v-81.477h-8.13zm10.62 24.922h10.27l-13.32-16.711h-6.66l9.71 16.711"/><path d="m1782.1 124.43h9.15v-13.223c0-7.902-2.03-11.965-9.15-14.336v5.2028c3.07 1.575 4.08 3.84 4.08 7.559v4.863h-4.08v9.934"/><path d="m137.91 69.426h10.754l28.582-61.367 28.942 61.367h9.929v-67.648h-6.672l0.301 61.828-28.668-61.828h-7.785l-29.406 61.828 0.648-61.828h-6.625v67.648"/><path d="m239.62 69.426h6.75v-61.27h42.52v-6.3789h-49.27v67.648"/><path d="m330.94 69.426h7.782l30.82-67.648h-6.844l-9.445 20.898h-37.004l-9.57-20.898h-6.938zm19.297-40.195-15.449 34.551-15.551-34.551zm-10.297 60.887h8.532l-11.051-13.867h-5.543l8.062 13.867"/><path d="m438.19 63.312c7.5-5.793 10.875-14.883 10.875-27.715 0-12.832-3.375-21.938-10.875-27.746-6.925-5.3203-15.628-6.0742-27.726-6.0742h-24.629v67.648h24.629c12.098 0 20.801-0.7656 27.726-6.1133m-45.617 0v-55.07h17.891c9.672 0 16.68 0.65625 22.203 4.3164 6.656 4.3945 9.465 11.992 9.465 23.508 0 11.238-2.996 18.738-9.465 23.035-5.703 3.75-13.203 4.2109-23.703 4.2109h-16.391"/><path d="m469.2 69.426h51.985v-6.2813h-45.243v-23.711h41.782v-6.375h-41.782v-24.902h45.243v-6.3789h-51.985v67.648"/><path d="m536.08 8.4297 49.742 54.715h-47.289v6.2813h56.66v-6.2813l-50.683-54.715h50.683v-6.6524h-59.113zm42.988 81.688h7.223l-13.008-13.856h-7.691l-13.024 13.856h7.223l9.649-10.027 9.628 10.027"/><path d="m613.73 69.426h51.985v-6.2813h-45.231v-23.711h41.77v-6.375h-41.77v-24.902h45.231v-6.3789h-51.985v67.648"/><path d="m747.4 69.426h7.77l30.82-67.648h-6.832l-9.449 20.898h-37.02l-9.543-20.898h-6.949zm19.297-40.195-15.449 34.551-15.559-34.551z"/><path d="m858.5 63.234h-26.141v6.1914h59.02v-6.1914h-26.141v-61.457h-6.738v61.457"/><path d="m907.03 69.426h51.993v-6.2813h-45.254v-23.711h41.765v-6.375h-41.765v-24.902h45.254v-6.3789h-51.993zm36.153 20.691h7.226l-13.027-13.867h-7.676l-13.027 13.867h7.195l9.66-10.039 9.649 10.039"/><path d="m978.88 69.426h6.738v-61.27h42.509v-6.3789h-49.247v67.648"/><path d="m1071.5 0c-22.21 0-35.5 13.586-35.5 35.586 0 22.012 13.29 35.606 35.5 35.606 22.19 0 35.58-13.594 35.58-35.606 0-22-13.39-35.586-35.58-35.586m28.66 35.586c0 18.184-10.77 29.055-28.66 29.055s-28.66-10.871-28.66-29.055c0-18.164 10.77-29.031 28.66-29.031s28.66 10.867 28.66 29.031"/><path d="m1118 69.426h7.39l27.18-61.828 27.14 61.828h7.42l-30.35-67.648h-8.53l-30.25 67.648"/><path d="m1225.3 31.008-29.14 38.418h8.61l23.9-32.988 24.15 32.988h8.36l-29.13-38.418v-29.23h-6.75zm9.83 59.109h8.52l-11.05-13.867h-5.54l8.07 13.867"/><path d="m1310 64.641c-17.72 0-28.57-10.98-28.57-29.043 0-17.895 10.85-28.945 27.25-28.945 13.6 0 23.97 7.8711 26.7 20.516h7.22c-3.09-16.672-16.02-27.168-33.72-27.168-20.72 0-34.29 13.859-34.29 35.598 0 22.012 13.29 35.586 35.51 35.586 17.6 0 29.21-9.0742 31.37-23.879h-6.84c-2.62 11.055-11.42 17.336-24.63 17.336"/><path d="m1361.2 69.426h6.74v-28.203h44.03v28.203h6.74v-67.648h-6.74v32.98h-44.03v-32.98h-6.74v67.648"/><path d="m1474.5 0c-22.22 0-35.51 13.586-35.51 35.586 0 22.012 13.29 35.606 35.51 35.606 22.19 0 35.58-13.594 35.58-35.606 0-22-13.39-35.586-35.58-35.586m28.66 35.586c0 18.184-10.76 29.055-28.66 29.055-17.89 0-28.66-10.871-28.66-29.055 0-18.164 10.77-29.031 28.66-29.031 17.9 0 28.66 10.867 28.66 29.031"/><path d="m1520.9 69.426h7.4l27.17-61.828 27.17 61.828h7.39l-30.35-67.648h-8.52l-30.26 67.648"/><path d="m1628.3 31.008-29.14 38.418h8.61l23.89-32.988 24.18 32.988h8.34l-29.15-38.418v-29.23h-6.73v29.23"/></g></g></g></svg>
