<?xml version="1.0" encoding="UTF-8"?>
<!-- Created with Inkscape (http://www.inkscape.org/) -->
<svg width="160" height="96" version="1.1" viewBox="0 0 160 96" xml:space="preserve" xmlns="http://www.w3.org/2000/svg" xmlns:cc="http://creativecommons.org/ns#" xmlns:dc="http://purl.org/dc/elements/1.1/" xmlns:rdf="http://www.w3.org/1999/02/22-rdf-syntax-ns#"><metadata><rdf:RDF><cc:Work rdf:about=""><dc:format>image/svg+xml</dc:format><dc:type rdf:resource="http://purl.org/dc/dcmitype/StillImage"/><dc:title/></cc:Work></rdf:RDF></metadata><g transform="matrix(1.3333 0 0 -1.3333 0 96)"><g transform="matrix(.046066 0 0 .046066 6.3918 5.2079)"><g fill="#231f20"><path d="m4.9883 1315.8h213.55l258.36-542.44v542.44h137.28v-689.24h-203.06l-266.93 571.98v-571.98h-139.19v689.24"/><path d="m967.85 1201.5h-204.96v114.39h558.64v-114.39h-204.96v-574.85h-148.72v574.85"/><path d="m1467.4 1314h147.75v-296.48l230.7 298.38h172.56l-252.61-308.88 274.55-380.36h-183.99l-241.21 350.81v-350.81h-147.75v687.34"/></g><g fill="#ef2e31"><path d="m22.199 405.66c0-0.605 0.125-1.543 0.3789-2.851 0.2461-1.289 0.8282-2.598 1.7266-3.887 0.9023-1.309 2.168-2.461 3.8203-3.457s3.7813-1.504 6.3789-1.504c1.9883 0 3.9219 0.371 5.7774 1.133 1.8359 0.742 3.5 1.914 4.9414 3.515 1.4453 1.602 2.6015 3.633 3.457 6.075 0.8437 2.461 1.2734 5.429 1.2734 8.925 0 2.5-0.2539 4.883-0.7539 7.129-0.4961 2.246-1.3164 4.258-2.4726 5.996-1.1485 1.758-2.5938 3.125-4.3555 4.122-1.7461 1.015-3.8633 1.503-6.3633 1.503s-4.582-0.429-6.2305-1.269c-1.6523-0.859-2.9726-1.875-3.9765-3.066-1.0078-1.211-1.7266-2.383-2.1797-3.536-0.4492-1.152-0.7695-2.031-0.9727-2.617l-21.742 0.586 2.3945 61.953h63.445v-17.09h-43.652l-1.3477-25.957c0.8008 0.704 1.7617 1.504 2.8516 2.403 1.1054 0.898 2.4257 1.718 3.9765 2.48 1.5547 0.742 3.3789 1.367 5.4766 1.875 2.1015 0.488 4.6015 0.742 7.5 0.742 4.2031 0 8.1758-0.742 11.926-2.246s7.0195-3.672 9.8242-6.523c2.8008-2.852 5.0312-6.348 6.668-10.508 1.664-4.141 2.4843-8.828 2.4843-14.023 0-4.493-0.6758-9.004-2.0351-13.496-1.3438-4.512-3.5117-8.555-6.5196-12.153-2.9921-3.609-6.875-6.558-11.621-8.844-4.746-2.304-10.473-3.457-17.172-3.457-5.5078 0-10.859 0.821-16.055 2.481-5.1953 1.64-9.5977 4.629-13.199 8.926-2.6016 3.203-4.2031 6.269-4.8086 9.218-0.59375 2.95-0.94531 5.426-1.043 7.422h22.199"/><path d="m144.15 430.72c0 1.601-0.046 3.515-0.144 5.762-0.109 2.265-0.242 4.589-0.449 6.992-0.203 2.383-0.481 4.746-0.828 7.051-0.356 2.285-0.774 4.296-1.274 5.996-0.203 0.683-0.508 1.718-0.894 3.066-0.414 1.348-1.055 2.695-1.954 4.063-0.902 1.347-2.035 2.515-3.378 3.515-1.348 0.996-3.071 1.5-5.176 1.5-1.606 0-2.988-0.328-4.199-0.972-1.196-0.645-2.2-1.426-3-2.325-0.801-0.898-1.457-1.875-1.946-2.929-0.508-1.055-0.894-1.973-1.211-2.774-0.894-2.695-1.558-5.605-2.007-8.691-0.461-3.106-0.786-6.074-0.977-8.926-0.207-2.852-0.332-5.352-0.383-7.5-0.051-2.168-0.066-3.535-0.066-4.141 0-4.492 0.191-8.828 0.593-12.968 0.403-4.141 1.125-7.832 2.176-11.016 1.047-3.203 2.473-5.762 4.282-7.656 1.792-1.895 4.089-2.852 6.89-2.852 3 0 5.422 1.133 7.277 3.375 1.844 2.25 3.25 5.102 4.2 8.559 0.949 3.437 1.59 7.207 1.941 11.308 0.356 4.102 0.527 7.95 0.527 11.563zm-50.699 1.191c0 2.305 0.1367 5.254 0.3789 8.848 0.2461 3.613 0.8008 7.402 1.6485 11.406 0.8515 4 2.0547 8.028 3.5976 12.07 1.5628 4.063 3.6798 7.676 6.3868 10.879 2.691 3.204 6.043 5.821 10.035 7.871 4.008 2.051 8.813 3.086 14.406 3.086 3.703 0 7-0.449 9.903-1.347 2.898-0.918 5.476-2.031 7.722-3.379s4.184-2.832 5.786-4.434c1.589-1.601 2.886-3.144 3.882-4.648 1.313-1.992 2.563-4.18 3.75-6.524 1.211-2.343 2.207-5.019 3.008-8.027 0.805-2.988 1.445-6.406 1.953-10.195 0.489-3.809 0.742-8.145 0.742-13.047 0-6.113-0.449-12.461-1.343-19.063-0.903-6.601-2.676-12.636-5.325-18.144-2.644-5.508-6.394-10.039-11.25-13.653-4.851-3.593-11.23-5.39-19.128-5.39-6.704 0-12.344 1.504-16.946 4.492-4.597 3.008-8.332 6.973-11.179 11.934-2.8559 4.941-4.9028 10.644-6.1528 17.089-1.25 6.446-1.875 13.18-1.875 20.176"/><path d="m209.77 470.62c-2.617 0-4.937-0.957-6.953-2.851-2.007-1.914-3.023-4.258-3.023-7.051 0-2.813 0.984-5.156 2.945-7.055 1.977-1.91 4.321-2.847 7.031-2.847 2.922 0 5.344 0.972 7.258 2.929 1.907 1.934 2.871 4.278 2.871 6.973s-0.988 5.019-2.949 6.973c-1.965 1.953-4.355 2.929-7.18 2.929zm0.082 15.449c3.497 0 6.778-0.664 9.825-1.953 3.047-1.308 5.718-3.105 8.023-5.41 2.297-2.285 4.121-5 5.473-8.086 1.344-3.105 2.027-6.406 2.027-9.902 0-3.516-0.652-6.797-1.949-9.902-1.313-3.106-3.109-5.801-5.402-8.106s-5-4.102-8.094-5.391c-3.11-1.308-6.406-1.953-9.903-1.953-3.507 0-6.781 0.645-9.828 1.953-3.054 1.289-5.718 3.086-8.023 5.391-2.309 2.305-4.121 5-5.473 8.106-1.355 3.105-2.027 6.386-2.027 9.902 0 3.496 0.672 6.797 2.027 9.902 1.352 3.086 3.164 5.801 5.473 8.086 2.305 2.305 4.969 4.102 8.023 5.41 3.047 1.289 6.321 1.953 9.828 1.953"/><path d="m292.12 394.56c1.606 0 3.242 0.292 4.934 0.898 1.687 0.605 3.23 1.621 4.621 3.066 1.394 1.465 2.539 3.379 3.433 5.782 0.903 2.402 1.348 5.41 1.348 9.004 0 5.8-1.297 10.253-3.887 13.339-2.586 3.106-5.769 4.649-9.546 4.649-0.903 0-2.192-0.196-3.879-0.586-1.692-0.41-3.36-1.25-5-2.559-1.641-1.289-3.078-3.164-4.328-5.625-1.25-2.441-1.864-5.664-1.864-9.668 0-3.203 0.403-5.957 1.199-8.261 0.793-2.286 1.836-4.2 3.125-5.684 1.29-1.508 2.817-2.617 4.551-3.301 1.739-0.707 3.52-1.054 5.293-1.054zm12.68 64.042c-0.195 3.805-1.367 6.485-3.52 8.028-2.144 1.543-4.629 2.324-7.422 2.324-3.804 0-6.738-1.016-8.789-3.066-2.046-2.051-3.574-4.59-4.57-7.578-0.992-3.008-1.617-6.211-1.875-9.61-0.254-3.398-0.43-6.445-0.523-9.14 0.894 0.898 1.968 1.816 3.218 2.773s2.707 1.855 4.36 2.695c1.648 0.86 3.554 1.563 5.703 2.11 2.144 0.547 4.566 0.82 7.273 0.82 3.606 0 7.2-0.645 10.789-1.953 3.618-1.289 6.836-3.32 9.692-6.074 2.847-2.754 5.137-6.192 6.89-10.352 1.75-4.141 2.629-9.062 2.629-14.766 0-5.8-0.847-10.878-2.547-15.234-1.703-4.355-4.55-8.379-8.554-12.07-3.496-3.203-7.348-5.625-11.543-7.285-4.199-1.641-9.262-2.461-15.156-2.461-5.997 0-11.079 0.879-15.227 2.617-4.148 1.758-7.551 4.043-10.203 6.894-2.649 2.852-4.699 6.055-6.145 9.61-1.457 3.554-2.531 7.07-3.23 10.566-0.695 3.516-1.098 6.832-1.192 9.981-0.097 3.144-0.16 5.781-0.16 7.871 0 5.195 0.239 10.429 0.688 15.683 0.445 5.254 1.265 10.215 2.469 14.922 1.203 4.707 2.902 9 5.097 12.891 2.196 3.906 5.11 7.148 8.699 9.765 2.305 1.7 4.653 3.047 7.051 4.043 2.406 0.996 4.699 1.758 6.899 2.246 2.207 0.508 4.199 0.801 6.004 0.899 1.796 0.098 3.195 0.156 4.199 0.156 3.894 0 7.707-0.527 11.394-1.582 3.703-1.035 7.004-2.676 9.907-4.863 2.898-2.207 5.253-5.039 7.046-8.477 1.797-3.457 2.754-7.578 2.856-12.383h-22.207"/><path d="m349.21 484.41h19.937l-4.043-37.187h-11.851l-4.043 37.187"/><path d="m400.5 468.8c9.902 4.316 19.152 9.551 27.758 15.762h19.344v-104.71h-22.649v81.446c-2.207-1.699-5.398-3.77-9.597-6.211-4.2-2.461-9.153-4.824-14.856-7.129v20.84"/><path d="m497.84 419.46h26.402v27.598 1.953c0 0.996 0.024 2.089 0.078 3.3 0.039 1.192 0.102 2.364 0.149 3.516s0.07 2.07 0.07 2.773zm-16.797-16.797v20.234l42 61.661h22.351l-0.156-64.653h14.262v-17.242h-14.262v-22.813h-22.195v22.813h-42"/><path d="m582.15 399.82h19.051v-19.961h-19.051v19.961"/><path d="m678.15 430.72c0 1.601-0.054 3.515-0.156 5.762-0.098 2.265-0.254 4.589-0.445 6.992-0.196 2.383-0.481 4.746-0.821 7.051-0.351 2.285-0.785 4.296-1.281 5.996-0.207 0.683-0.5 1.718-0.906 3.066-0.395 1.348-1.047 2.695-1.945 4.063-0.899 1.347-2.024 2.515-3.368 3.515-1.359 0.996-3.085 1.5-5.175 1.5-1.606 0-3.008-0.328-4.2-0.972-1.21-0.645-2.21-1.426-3.007-2.325-0.801-0.898-1.45-1.875-1.953-2.929-0.5-1.055-0.903-1.973-1.196-2.774-0.894-2.695-1.582-5.605-2.027-8.691-0.449-3.106-0.774-6.074-0.981-8.926-0.195-2.852-0.32-5.352-0.371-7.5-0.047-2.168-0.078-3.535-0.078-4.141 0-4.492 0.207-8.828 0.61-12.968 0.386-4.141 1.121-7.832 2.168-11.016 1.05-3.203 2.476-5.762 4.277-7.656 1.797-1.895 4.098-2.852 6.902-2.852 2.996 0 5.418 1.133 7.278 3.375 1.843 2.25 3.242 5.102 4.199 8.559 0.945 3.437 1.597 7.207 1.953 11.308 0.351 4.102 0.523 7.95 0.523 11.563zm-50.703 1.191c0 2.305 0.117 5.254 0.371 8.848 0.254 3.613 0.801 7.402 1.653 11.406 0.847 4 2.05 8.028 3.601 12.07 1.543 4.063 3.672 7.676 6.367 10.879 2.707 3.204 6.055 5.821 10.063 7.871 3.992 2.051 8.789 3.086 14.391 3.086 3.703 0 7.003-0.449 9.906-1.347 2.898-0.918 5.469-2.031 7.722-3.379 2.254-1.348 4.168-2.832 5.774-4.434 1.598-1.601 2.898-3.144 3.902-4.648 1.289-1.992 2.551-4.18 3.75-6.524 1.196-2.343 2.199-5.019 3-8.027 0.789-2.988 1.446-6.406 1.946-10.195 0.503-3.809 0.757-8.145 0.757-13.047 0-6.113-0.449-12.461-1.355-19.063-0.899-6.601-2.676-12.636-5.32-18.144-2.661-5.508-6.411-10.039-11.25-13.653-4.856-3.593-11.235-5.39-19.122-5.39-6.703 0-12.367 1.504-16.957 4.492-4.605 3.008-8.32 6.973-11.168 11.934-2.851 4.941-4.906 10.644-6.156 17.089-1.25 6.446-1.875 13.18-1.875 20.176"/><path d="m756.22 443.31c3.828 0 7.144 1.191 9.961 3.593 2.808 2.403 4.214 5.703 4.214 9.903 0 2.109-0.41 3.984-1.21 5.625-0.797 1.66-1.852 3.027-3.165 4.121-1.304 1.113-2.793 1.933-4.453 2.48s-3.386 0.82-5.191 0.82c-3.828 0-7.07-1.171-9.731-3.515-2.671-2.363-4.003-5.527-4.003-9.531 0-3.692 1.21-6.875 3.625-9.532 2.414-2.636 5.734-3.964 9.953-3.964zm0-49.043c1.609 0 3.297 0.273 5.054 0.82 1.758 0.547 3.364 1.445 4.828 2.695 1.454 1.25 2.657 2.891 3.614 4.942 0.957 2.05 1.433 4.531 1.433 7.441 0 4.785-1.511 8.516-4.519 11.172-3.02 2.637-6.543 3.965-10.559 3.965-4.426 0-8.039-1.446-10.847-4.336-2.817-2.91-4.219-6.602-4.219-11.114 0-2.695 0.445-5.019 1.347-6.972 0.907-1.953 2.086-3.555 3.543-4.805s3.094-2.187 4.903-2.851c1.804-0.645 3.613-0.957 5.422-0.957zm-16.118 40.488c-1.289 0.41-3.042 1.035-5.292 1.875-2.223 0.859-4.415 2.129-6.543 3.828-2.137 1.699-3.973 3.867-5.504 6.523-1.543 2.657-2.317 6.016-2.317 10.118 0 3.203 0.672 6.543 2.024 9.98 1.343 3.453 3.504 6.602 6.453 9.453 2.949 2.852 6.699 5.195 11.25 7.051 4.551 1.855 10.027 2.773 16.426 2.773 5.195 0 9.992-0.703 14.406-2.089 4.39-1.407 8.14-3.379 11.25-5.938 3.086-2.539 5.515-5.547 7.262-9.004 1.757-3.437 2.628-7.226 2.628-11.308 0-3.204-0.578-6.114-1.726-8.711-1.152-2.598-2.68-4.903-4.57-6.899-1.899-2.008-4.082-3.629-6.528-4.879-2.449-1.25-5.015-2.07-7.722-2.48 0.996-0.293 2.199-0.664 3.601-1.113 1.399-0.45 2.856-1.055 4.348-1.797 1.496-0.762 3-1.778 4.504-3.086 1.504-1.289 2.949-2.895 4.343-4.785 1.805-2.618 3.055-5.215 3.75-7.813 0.696-2.598 1.043-5.195 1.043-7.797 0-4.801-1.011-9.078-3.062-12.828-2.055-3.75-4.856-6.953-8.399-9.59-3.554-2.656-7.66-4.648-12.304-6.015-4.653-1.348-9.524-2.012-14.629-2.012-5.293 0-10.18 0.801-14.621 2.402-4.453 1.582-8.25 3.77-11.399 6.524-3.152 2.734-5.601 5.976-7.351 9.668-1.746 3.691-2.625 7.656-2.625 11.851 0 4.106 0.691 7.621 2.09 10.57 1.382 2.95 3.218 5.528 5.504 7.735 2.582 2.5 5.023 4.238 7.304 5.254 2.285 0.996 4.414 1.836 6.406 2.539"/><path d="m832.64 408.35c0-0.801 0.128-1.973 0.375-3.516 0.25-1.543 0.828-3.106 1.726-4.648 0.906-1.563 2.258-2.911 4.055-4.043 1.797-1.153 4.246-1.739 7.344-1.739 4.199 0 7.5 1.348 9.902 4.063 2.398 2.691 3.601 6.094 3.601 10.191 0 3.891-0.832 6.875-2.468 8.93-1.66 2.051-3.75 3.57-6.313 4.57-2.539 0.996-5.347 1.582-8.394 1.719-3.047 0.156-5.918 0.234-8.625 0.234v17.696c2.597 0.097 5.422 0.254 8.476 0.449 3.047 0.195 5.867 0.801 8.469 1.797 2.605 0.976 4.754 2.5 6.453 4.55 1.699 2.032 2.551 4.942 2.551 8.711 0 4.18-1.301 7.305-3.899 9.336-2.605 2.032-5.593 3.067-8.996 3.067-1.597 0-3.179-0.293-4.722-0.84-1.567-0.547-2.934-1.367-4.133-2.461-1.199-1.113-2.149-2.461-2.844-4.063-0.699-1.601-1.055-3.496-1.055-5.703h-22.949c0.196 2.305 0.625 5.039 1.274 8.184 0.64 3.144 2.273 6.324 4.882 9.531 3.497 4.199 7.813 7.168 12.965 8.926 5.16 1.738 10.532 2.617 16.133 2.617 6.692 0 12.297-0.957 16.801-2.851 4.488-1.899 8.125-4.258 10.867-7.11 2.742-2.851 4.695-5.937 5.852-9.277 1.148-3.359 1.726-6.426 1.726-9.219 0-4.394-0.832-8.027-2.469-10.937-1.664-2.891-3.605-5.215-5.863-6.953-2.246-1.758-4.472-3.067-6.668-3.965-2.195-0.899-3.894-1.504-5.105-1.797 1.699-0.508 3.609-1.211 5.703-2.11 2.105-0.898 4.351-2.363 6.758-4.355 1.797-1.504 3.269-3.106 4.414-4.805 1.148-1.718 2.027-3.379 2.636-5.039 0.594-1.66 0.997-3.262 1.192-4.804 0.191-1.563 0.301-2.93 0.301-4.141 0-4.395-0.95-8.496-2.852-12.305-1.902-3.808-4.551-7.09-7.949-9.844-3.399-2.753-7.422-4.902-12.078-6.464-4.653-1.543-9.668-2.325-15.071-2.325-1.906 0-3.957 0.137-6.152 0.371-2.195 0.254-4.426 0.625-6.672 1.133s-4.453 1.192-6.597 2.09c-2.153 0.899-4.082 2.051-5.786 3.457-2.293 1.895-4.097 4-5.386 6.309-1.313 2.285-2.258 4.566-2.856 6.816-0.601 2.246-0.972 4.297-1.133 6.153-0.144 1.855-0.211 3.32-0.211 4.414h22.79"/><path d="m958.51 484.41-3.906-37.187h-11.86l-4.043 37.187zm-28.653 0-4.054-37.187h-11.848l-4.051 37.187h19.953"/><path d="m989.09 488.16h33.616l40.64-85.195v85.195h21.6v-108.3h-31.95l-42 90v-90h-21.906v108.3"/><path d="m1141.5 399.82-17.85-36.914h-15.45l11.11 36.914h22.19"/><path d="m1215.9 468.8c9.9 4.316 19.15 9.551 27.75 15.762h19.35v-104.71h-22.65v81.446c-2.2-1.699-5.4-3.77-9.6-6.211-4.2-2.461-9.15-4.824-14.85-7.129v20.84"/><path d="m1313.2 419.46h26.39v27.598 1.953c0 0.996 0.04 2.089 0.08 3.3 0.06 1.192 0.1 2.364 0.16 3.516s0.08 2.07 0.08 2.773zm-16.79-16.797v20.234l41.99 61.661h22.35l-0.14-64.653h14.24v-17.242h-14.24v-22.813h-22.21v22.813h-41.99"/><path d="m1416.1 470.62c-2.64 0-4.94-0.957-6.95-2.851-2.04-1.914-3.03-4.258-3.03-7.051 0-2.813 0.97-5.156 2.95-7.055 1.95-1.91 4.29-2.847 7.03-2.847 2.91 0 5.33 0.972 7.24 2.929 1.92 1.934 2.88 4.278 2.88 6.973s-0.98 5.019-2.95 6.973c-1.98 1.953-4.36 2.929-7.17 2.929zm0.06 15.449c3.51 0 6.77-0.664 9.82-1.953 3.07-1.308 5.72-3.105 8.03-5.41 2.3-2.285 4.14-5 5.49-8.086 1.34-3.105 2.01-6.406 2.01-9.902 0-3.516-0.65-6.797-1.95-9.902-1.29-3.106-3.09-5.801-5.39-8.106-2.31-2.305-5-4.102-8.11-5.391-3.09-1.308-6.39-1.953-9.9-1.953-3.5 0-6.78 0.645-9.83 1.953-3.04 1.289-5.72 3.086-8.02 5.391-2.29 2.305-4.13 5-5.47 8.106-1.35 3.105-2.03 6.386-2.03 9.902 0 3.496 0.68 6.797 2.03 9.902 1.34 3.086 3.18 5.801 5.47 8.086 2.3 2.305 4.98 4.102 8.02 5.41 3.05 1.289 6.33 1.953 9.83 1.953"/><path d="m1459.2 401.01 27.15 24.453c4.2 3.789 7.78 7.148 10.73 10.059 2.94 2.89 5.33 5.546 7.12 7.949 1.8 2.383 3.11 4.648 3.91 6.738 0.8 2.109 1.19 4.297 1.19 6.602 0 4.804-1.09 8.222-3.3 10.273-2.19 2.051-5.23 3.086-9.14 3.086-2.79 0-5.06-0.508-6.76-1.508-1.7-0.992-3.02-2.281-3.96-3.824-0.96-1.543-1.6-3.223-1.96-5.02-0.35-1.796-0.52-3.457-0.52-4.961h-22.95c0 0.997 0.02 2.247 0.08 3.75 0.04 1.504 0.27 3.106 0.66 4.805 0.41 1.699 1.04 3.496 1.88 5.391 0.85 1.914 2.03 3.808 3.53 5.703 3.01 3.809 7.13 6.656 12.38 8.555 5.24 1.894 11.08 2.851 17.46 2.851 11.51 0 20.28-2.558 26.33-7.656 6.06-5.098 9.08-12.051 9.08-20.844 0-3.805-0.43-7.222-1.28-10.269-0.84-3.067-2.33-6.153-4.42-9.297-2.11-3.164-5-6.582-8.71-10.293-3.69-3.692-8.4-8.047-14.08-13.047l-21.02-18.301 50.1 1.055v-17.403h-73.5v21.153"/><path d="m1574 408.35c0-0.801 0.12-1.973 0.37-3.516 0.24-1.543 0.82-3.106 1.72-4.648 0.9-1.563 2.25-2.911 4.04-4.043 1.82-1.153 4.26-1.739 7.37-1.739 4.2 0 7.5 1.348 9.9 4.063 2.4 2.691 3.59 6.094 3.59 10.191 0 3.891-0.82 6.875-2.48 8.93-1.64 2.051-3.75 3.57-6.29 4.57-2.56 0.996-5.35 1.582-8.4 1.719-3.06 0.156-5.93 0.234-8.63 0.234v17.696c2.6 0.097 5.43 0.254 8.48 0.449 3.04 0.195 5.88 0.801 8.47 1.797 2.6 0.976 4.75 2.5 6.45 4.55 1.7 2.032 2.56 4.942 2.56 8.711 0 4.18-1.31 7.305-3.91 9.336-2.6 2.032-5.6 3.067-9 3.067-1.6 0-3.17-0.293-4.73-0.84-1.54-0.547-2.93-1.367-4.12-2.461-1.19-1.113-2.15-2.461-2.85-4.063-0.7-1.601-1.06-3.496-1.06-5.703h-22.94c0.21 2.305 0.62 5.039 1.28 8.184 0.65 3.144 2.27 6.324 4.87 9.531 3.49 4.199 7.83 7.168 12.99 8.926 5.13 1.738 10.5 2.617 16.11 2.617 6.7 0 12.3-0.957 16.8-2.851 4.51-1.899 8.12-4.258 10.87-7.11 2.76-2.851 4.71-5.937 5.86-9.277 1.14-3.359 1.72-6.426 1.72-9.219 0-4.394-0.82-8.027-2.48-10.937-1.64-2.891-3.59-5.215-5.84-6.953-2.26-1.758-4.49-3.067-6.68-3.965-2.2-0.899-3.9-1.504-5.09-1.797 1.69-0.508 3.59-1.211 5.7-2.11 2.09-0.898 4.33-2.363 6.74-4.355 1.79-1.504 3.28-3.106 4.43-4.805 1.15-1.718 2.01-3.379 2.62-5.039 0.6-1.66 0.99-3.262 1.21-4.804 0.19-1.563 0.29-2.93 0.29-4.141 0-4.395-0.96-8.496-2.85-12.305-1.89-3.808-4.55-7.09-7.95-9.844-3.4-2.753-7.42-4.902-12.07-6.464-4.65-1.543-9.69-2.325-15.08-2.325-1.89 0-3.94 0.137-6.15 0.371-2.21 0.254-4.41 0.625-6.68 1.133-2.25 0.508-4.45 1.192-6.6 2.09-2.15 0.899-4.06 2.051-5.76 3.457-2.31 1.895-4.1 4-5.41 6.309-1.29 2.285-2.25 4.566-2.85 6.816-0.59 2.246-0.98 4.297-1.12 6.153-0.15 1.855-0.23 3.32-0.23 4.414h22.81"/><path d="m1647.9 484.41h19.94l-4.05-37.187h-11.85l-4.04 37.187"/><path d="m1688.7 401.01 27.14 24.453c4.2 3.789 7.78 7.148 10.73 10.059 2.95 2.89 5.33 5.546 7.13 7.949 1.79 2.383 3.08 4.648 3.88 6.738 0.8 2.109 1.21 4.297 1.21 6.602 0 4.804-1.11 8.222-3.3 10.273-2.2 2.051-5.25 3.086-9.16 3.086-2.79 0-5.04-0.508-6.74-1.508-1.69-0.992-3.02-2.281-3.98-3.824-0.94-1.543-1.6-3.223-1.95-5.02-0.35-1.796-0.51-3.457-0.51-4.961h-22.95c0 0.997 0.02 2.247 0.06 3.75 0.06 1.504 0.27 3.106 0.68 4.805 0.39 1.699 1.02 3.496 1.88 5.391 0.84 1.914 2.03 3.808 3.51 5.703 3.01 3.809 7.13 6.656 12.39 8.555 5.25 1.894 11.07 2.851 17.48 2.851 11.48 0 20.27-2.558 26.32-7.656 6.04-5.098 9.07-12.051 9.07-20.844 0-3.805-0.43-7.222-1.27-10.269-0.86-3.067-2.33-6.153-4.44-9.297-2.09-3.164-5-6.582-8.69-10.293-3.71-3.692-8.4-8.047-14.1-13.047l-21-18.301 50.1 1.055v-17.403h-73.49v21.153"/><path d="m1820.3 394.56c1.6 0 3.24 0.292 4.92 0.898 1.7 0.605 3.24 1.621 4.63 3.066 1.38 1.465 2.54 3.379 3.44 5.782 0.89 2.402 1.34 5.41 1.34 9.004 0 5.8-1.31 10.253-3.88 13.339-2.6 3.106-5.78 4.649-9.55 4.649-0.9 0-2.19-0.196-3.89-0.586-1.68-0.41-3.36-1.25-5-2.559-1.64-1.289-3.09-3.164-4.32-5.625-1.25-2.441-1.87-5.664-1.87-9.668 0-3.203 0.41-5.957 1.19-8.261 0.8-2.286 1.85-4.2 3.14-5.684 1.29-1.508 2.82-2.617 4.55-3.301 1.74-0.707 3.5-1.054 5.3-1.054zm12.67 64.042c-0.19 3.805-1.36 6.485-3.51 8.028-2.17 1.543-4.63 2.324-7.44 2.324-3.79 0-6.72-1.016-8.77-3.066-2.05-2.051-3.58-4.59-4.57-7.578-1-3.008-1.63-6.211-1.88-9.61-0.25-3.398-0.43-6.445-0.53-9.14 0.9 0.898 1.98 1.816 3.23 2.773s2.69 1.855 4.35 2.695c1.64 0.86 3.56 1.563 5.7 2.11 2.15 0.547 4.58 0.82 7.27 0.82 3.59 0 7.21-0.645 10.8-1.953 3.6-1.289 6.84-3.32 9.67-6.074 2.85-2.754 5.16-6.192 6.91-10.352 1.74-4.141 2.62-9.062 2.62-14.766 0-5.8-0.84-10.878-2.54-15.234-1.72-4.355-4.55-8.379-8.55-12.07-3.5-3.203-7.35-5.625-11.57-7.285-4.19-1.641-9.23-2.461-15.13-2.461-6 0-11.08 0.879-15.24 2.617-4.14 1.758-7.54 4.043-10.19 6.894-2.66 2.852-4.71 6.055-6.15 9.61-1.45 3.554-2.52 7.07-3.23 10.566-0.7 3.516-1.09 6.832-1.19 9.981-0.12 3.144-0.15 5.781-0.15 7.871 0 5.195 0.21 10.429 0.66 15.683 0.47 5.254 1.29 10.215 2.48 14.922 1.21 4.707 2.91 9 5.1 12.891 2.2 3.906 5.1 7.148 8.71 9.765 2.28 1.7 4.65 3.047 7.05 4.043s4.69 1.758 6.89 2.246c2.21 0.508 4.2 0.801 6 0.899s3.2 0.156 4.2 0.156c3.91 0 7.69-0.527 11.41-1.582 3.69-1.035 6.99-2.676 9.9-4.863 2.89-2.207 5.25-5.039 7.05-8.477 1.8-3.457 2.75-7.578 2.85-12.383h-22.21"/><path d="m1880.8 399.82h19.05v-19.961h-19.05v19.961"/><path d="m1946.6 408.35c0-0.801 0.11-1.973 0.37-3.516 0.23-1.543 0.82-3.106 1.72-4.648 0.9-1.563 2.24-2.911 4.04-4.043 1.82-1.153 4.26-1.739 7.36-1.739 4.2 0 7.5 1.348 9.91 4.063 2.4 2.691 3.59 6.094 3.59 10.191 0 3.891-0.82 6.875-2.48 8.93-1.64 2.051-3.75 3.57-6.29 4.57-2.56 0.996-5.35 1.582-8.4 1.719-3.06 0.156-5.94 0.234-8.63 0.234v17.696c2.6 0.097 5.43 0.254 8.48 0.449 3.04 0.195 5.87 0.801 8.47 1.797 2.6 0.976 4.75 2.5 6.45 4.55 1.7 2.032 2.56 4.942 2.56 8.711 0 4.18-1.31 7.305-3.91 9.336-2.6 2.032-5.61 3.067-9 3.067-1.61 0-3.17-0.293-4.73-0.84-1.54-0.547-2.93-1.367-4.12-2.461-1.19-1.113-2.15-2.461-2.85-4.063-0.71-1.601-1.06-3.496-1.06-5.703h-22.95c0.22 2.305 0.63 5.039 1.29 8.184 0.65 3.144 2.27 6.324 4.87 9.531 3.49 4.199 7.83 7.168 12.98 8.926 5.14 1.738 10.51 2.617 16.12 2.617 6.7 0 12.3-0.957 16.79-2.851 4.52-1.899 8.13-4.258 10.88-7.11 2.76-2.851 4.71-5.937 5.86-9.277 1.13-3.359 1.72-6.426 1.72-9.219 0-4.394-0.82-8.027-2.48-10.937-1.64-2.891-3.59-5.215-5.84-6.953-2.27-1.758-4.49-3.067-6.68-3.965-2.21-0.899-3.91-1.504-5.1-1.797 1.7-0.508 3.6-1.211 5.71-2.11 2.09-0.898 4.33-2.363 6.73-4.355 1.8-1.504 3.29-3.106 4.44-4.805 1.15-1.718 2.01-3.379 2.62-5.039 0.6-1.66 0.99-3.262 1.21-4.804 0.19-1.563 0.29-2.93 0.29-4.141 0-4.395-0.96-8.496-2.85-12.305-1.9-3.808-4.55-7.09-7.95-9.844-3.4-2.753-7.42-4.902-12.07-6.464-4.65-1.543-9.69-2.325-15.08-2.325-1.89 0-3.95 0.137-6.15 0.371-2.21 0.254-4.42 0.625-6.68 1.133-2.25 0.508-4.46 1.192-6.6 2.09-2.15 0.899-4.07 2.051-5.77 3.457-2.3 1.895-4.1 4-5.41 6.309-1.28 2.285-2.24 4.566-2.85 6.816-0.58 2.246-0.97 4.297-1.11 6.153-0.16 1.855-0.23 3.32-0.23 4.414h22.81"/><path d="m2055.8 394.56c1.59 0 3.23 0.292 4.93 0.898 1.68 0.605 3.22 1.621 4.61 3.066 1.4 1.465 2.54 3.379 3.43 5.782 0.9 2.402 1.35 5.41 1.35 9.004 0 5.8-1.29 10.253-3.89 13.339-2.57 3.106-5.76 4.649-9.55 4.649-0.88 0-2.18-0.196-3.86-0.586-1.7-0.41-3.36-1.25-5-2.559-1.64-1.289-3.09-3.164-4.34-5.625-1.23-2.441-1.85-5.664-1.85-9.668 0-3.203 0.39-5.957 1.19-8.261 0.8-2.286 1.83-4.2 3.12-5.684 1.31-1.508 2.81-2.617 4.55-3.301 1.74-0.707 3.52-1.054 5.31-1.054zm12.68 64.042c-0.21 3.805-1.39 6.485-3.53 8.028-2.15 1.543-4.63 2.324-7.43 2.324-3.8 0-6.73-1.016-8.77-3.066-2.05-2.051-3.59-4.59-4.59-7.578-0.99-3.008-1.62-6.211-1.87-9.61-0.24-3.398-0.41-6.445-0.53-9.14 0.92 0.898 1.99 1.816 3.24 2.773s2.7 1.855 4.34 2.695c1.66 0.86 3.55 1.563 5.7 2.11s4.57 0.82 7.29 0.82c3.59 0 7.19-0.645 10.8-1.953 3.59-1.289 6.82-3.32 9.67-6.074s5.15-6.192 6.89-10.352c1.76-4.141 2.64-9.062 2.64-14.766 0-5.8-0.86-10.878-2.56-15.234-1.7-4.355-4.55-8.379-8.55-12.07-3.5-3.203-7.35-5.625-11.55-7.285-4.2-1.641-9.26-2.461-15.15-2.461-6 0-11.08 0.879-15.22 2.617-4.16 1.758-7.56 4.043-10.19 6.894-2.66 2.852-4.71 6.055-6.16 9.61-1.46 3.554-2.54 7.07-3.22 10.566-0.7 3.516-1.11 6.832-1.21 9.981-0.1 3.144-0.16 5.781-0.16 7.871 0 5.195 0.24 10.429 0.69 15.683s1.27 10.215 2.48 14.922c1.19 4.707 2.89 9 5.1 12.891 2.18 3.906 5.09 7.148 8.69 9.765 2.3 1.7 4.65 3.047 7.05 4.043s4.7 1.758 6.89 2.246c2.21 0.508 4.22 0.801 6.02 0.899 1.79 0.098 3.18 0.156 4.2 0.156 3.88 0 7.69-0.527 11.38-1.582 3.71-1.035 7.02-2.676 9.91-4.863 2.91-2.207 5.25-5.039 7.05-8.477 1.79-3.457 2.75-7.578 2.85-12.383h-22.19"/><path d="m2132.1 405.66c0-0.605 0.12-1.543 0.38-2.851 0.25-1.289 0.82-2.598 1.71-3.887 0.92-1.309 2.19-2.461 3.83-3.457 1.66-0.996 3.79-1.504 6.39-1.504 1.99 0 3.92 0.371 5.76 1.133 1.86 0.742 3.52 1.914 4.96 3.515 1.45 1.602 2.6 3.633 3.44 6.075 0.86 2.461 1.29 5.429 1.29 8.925 0 2.5-0.26 4.883-0.76 7.129-0.49 2.246-1.33 4.258-2.46 5.996-1.16 1.758-2.62 3.125-4.36 4.122-1.76 1.015-3.89 1.503-6.37 1.503-2.52 0-4.59-0.429-6.23-1.269-1.66-0.859-2.99-1.875-3.98-3.066-1-1.211-1.72-2.383-2.17-3.536-0.45-1.152-0.78-2.031-0.98-2.617l-21.75 0.586 2.4 61.953h63.46v-17.09h-43.66l-1.34-25.957c0.8 0.704 1.73 1.504 2.85 2.403 1.09 0.898 2.42 1.718 3.96 2.48 1.56 0.742 3.38 1.367 5.49 1.875 2.09 0.488 4.59 0.742 7.5 0.742 4.2 0 8.16-0.742 11.91-2.246s7.04-3.672 9.83-6.523c2.81-2.852 5.04-6.348 6.68-10.508 1.66-4.141 2.48-8.828 2.48-14.023 0-4.493-0.69-9.004-2.03-13.496-1.35-4.512-3.52-8.555-6.53-12.153-3-3.609-6.87-6.558-11.62-8.844-4.74-2.304-10.49-3.457-17.18-3.457-5.49 0-10.84 0.821-16.04 2.481-5.21 1.64-9.61 4.629-13.2 8.926-2.6 3.203-4.2 6.269-4.81 9.218-0.6 2.95-0.95 5.426-1.05 7.422h22.2"/><path d="m2257.2 484.41-3.9-37.187h-11.86l-4.04 37.187zm-28.65 0-4.06-37.187h-11.84l-4.06 37.187h19.96"/><path d="m2287.6 488.16h72.6v-17.695h-49.34v-25.645h46.19v-17.714h-46.19v-29.239h51v-18.008h-74.26v108.3"/></g><g fill="#231f20"><path d="m5.3984 313.15h33.605l40.648-85.199v85.199h21.598v-108.3h-31.949l-42 90v-90h-21.902v108.3"/><path d="m157.95 292.61h-12l12.449 21.75h20.098zm8.695-52.05c-3.597 0.293-6.875 0.242-9.824-0.161-2.945-0.398-5.523-1.117-7.722-2.168-2.204-1.05-3.903-2.429-5.098-4.128-1.199-1.704-1.801-3.653-1.801-5.852 0-1.301 0.223-2.578 0.672-3.828s1.129-2.391 2.027-3.442c0.899-1.05 2.028-1.898 3.375-2.55 1.352-0.66 2.922-0.981 4.727-0.981 1.996 0 3.797 0.43 5.398 1.281 1.598 0.852 2.95 1.879 4.047 3.079 2.004 2.39 3.199 5.089 3.602 8.089 0.398 3 0.597 6.563 0.597 10.661zm2.856-35.707c-0.402 2.296-0.625 4.328-0.676 6.078-0.055 1.75-0.078 3.172-0.078 4.281-2.102-3-4.273-5.332-6.523-6.981-2.25-1.648-4.375-2.851-6.375-3.601s-3.875-1.199-5.625-1.348c-1.75-0.152-3.125-0.222-4.122-0.222-5.503 0-9.656 0.64-12.453 1.941-2.8 1.301-4.953 2.66-6.449 4.051-2.301 2.308-3.976 4.91-5.023 7.808-1.051 2.903-1.578 5.852-1.578 8.84 0 1.512 0.175 3.27 0.527 5.332 0.348 2.051 1.098 4.149 2.25 6.289 1.148 2.16 2.773 4.282 4.875 6.379 2.098 2.102 4.894 3.961 8.394 5.563 2.301 0.988 4.829 1.797 7.582 2.386 2.747 0.614 5.473 1.032 8.172 1.282 2.7 0.242 5.297 0.402 7.797 0.449 2.5 0.051 4.656 0.082 6.449 0.082 0 2.488-0.046 4.437-0.144 5.848-0.102 1.39-0.406 2.793-0.902 4.203-0.5 1.386-1.204 2.5-2.102 3.297-0.898 0.8-1.824 1.421-2.773 1.871-0.954 0.449-1.899 0.742-2.852 0.902-0.949 0.148-1.676 0.227-2.172 0.227-1.601 0-3.148-0.36-4.652-1.059-1.5-0.691-2.75-1.75-3.75-3.141-0.801-1.3-1.278-2.527-1.422-3.687-0.152-1.141-0.231-2.16-0.231-3.063h-21.746c0 0.993 0.075 2.211 0.223 3.672 0.152 1.438 0.527 3 1.129 4.649 0.598 1.652 1.445 3.3 2.551 4.949 1.097 1.652 2.644 3.172 4.644 4.57 3.504 2.5 7.301 4.153 11.403 4.949 4.097 0.801 7.949 1.204 11.546 1.204 1.606 0 3.551-0.102 5.852-0.301s4.703-0.653 7.203-1.352 4.969-1.668 7.426-2.918c2.445-1.25 4.625-2.98 6.523-5.172 1.297-1.507 2.301-3.179 2.996-5.027 0.7-1.852 1.227-3.633 1.579-5.332 0.347-1.691 0.546-3.281 0.601-4.719 0.051-1.449 0.074-2.633 0.074-3.531l0.153-30.449c0-3.199 0.121-6.391 0.375-9.602 0.242-3.199 0.722-6.39 1.422-9.597h-20.098"/><path d="m210.45 262c0 0.898-0.023 2.18-0.078 3.832-0.047 1.648-0.121 3.418-0.223 5.316-0.097 1.911-0.226 3.723-0.371 5.481-0.152 1.75-0.277 3.18-0.379 4.281h20.852l0.449-14.551c0.699 1.59 1.598 3.301 2.699 5.102 1.102 1.789 2.598 3.437 4.504 4.949 1.895 1.488 4.344 2.692 7.348 3.59 3 0.91 6.75 1.25 11.25 1.059v-19.957c-5.602 0.5-10 0.25-13.203-0.75-3.199-0.993-5.602-2.454-7.196-4.34-1.601-1.91-2.582-4.09-2.925-6.532-0.352-2.449-0.528-4.878-0.528-7.269v-37.359h-22.199v57.148"/><path d="m287.4 241.9c0-8.5 1.399-14.668 4.2-18.519 2.796-3.848 6.949-5.77 12.453-5.77 2.394 0 4.621 0.391 6.672 1.192 2.046 0.801 3.769 2.211 5.171 4.211 1.403 1.988 2.5 4.668 3.301 8.019 0.801 3.348 1.199 7.528 1.199 12.528 0 2.5-0.171 5.14-0.519 7.941-0.352 2.809-1.106 5.398-2.25 7.809-1.152 2.39-2.828 4.371-5.027 5.91-2.204 1.562-5.153 2.332-8.852 2.332-4.102 0-7.25-1.031-9.449-3.071-2.199-2.05-3.805-4.449-4.797-7.199-1.004-2.75-1.606-5.582-1.805-8.48-0.199-2.903-0.297-5.199-0.297-6.903zm-22.8 0.153c0 4.597 0.648 9.281 1.953 14.019 1.297 4.762 3.445 9.09 6.449 12.981 2.996 3.898 6.996 7.097 11.996 9.597s11.25 3.75 18.75 3.75c6.898 0 12.828-1.066 17.773-3.218 4.954-2.149 9.024-5.051 12.227-8.7 3.199-3.648 5.551-7.871 7.051-12.679 1.5-4.789 2.25-9.852 2.25-15.141 0-5.308-0.778-10.398-2.324-15.308-1.551-4.903-3.954-9.223-7.204-12.973s-7.371-6.719-12.371-8.93c-5.004-2.199-10.953-3.289-17.851-3.289-5.403 0-10.449 0.82-15.153 2.469-4.703 1.652-8.796 4.152-12.296 7.5-3.504 3.351-6.25 7.519-8.25 12.531-2 4.988-3 10.789-3 17.391"/><path d="m380.55 241.6c0-3.204 0.277-6.223 0.832-9.071 0.551-2.851 1.43-5.383 2.637-7.582 1.203-2.199 2.785-3.937 4.746-5.238 1.961-1.313 4.343-1.961 7.156-1.961 3.215 0 6.074 0.852 8.59 2.551 2.512 1.699 4.371 3.699 5.574 6 1.703 3.199 2.738 6.5 3.094 9.898 0.347 3.403 0.523 6.063 0.523 7.949 0 7.5-1.48 13.204-4.445 17.102-2.965 3.91-7.008 5.852-12.129 5.852-3.719 0-6.68-0.973-8.895-2.922-2.21-1.95-3.867-4.282-4.968-6.969-1.11-2.711-1.836-5.512-2.188-8.41-0.351-2.903-0.527-5.289-0.527-7.199zm32.402 71.546h22.203v-95.988c0-2.308 0.047-4.578 0.145-6.828s0.25-4.082 0.449-5.48h-22.348l-0.601 10.949c-0.801-1.403-1.703-2.801-2.707-4.199-1.004-1.391-2.656-2.852-4.961-4.34-2.809-1.813-5.539-2.903-8.199-3.301-2.657-0.402-4.84-0.609-6.543-0.609-10.231 0-18.176 3.296-23.84 9.898-5.668 6.602-8.5 15.852-8.5 27.762 0 6.297 0.832 11.937 2.484 16.937 1.657 5 3.938 9.25 6.84 12.75 2.91 3.5 6.422 6.199 10.535 8.102 4.106 1.898 8.672 2.847 13.688 2.847 3.406 0 6.34-0.418 8.797-1.269 2.457-0.848 4.535-1.82 6.242-2.93 1.703-1.097 3.055-2.23 4.058-3.367 1.004-1.152 1.754-2.082 2.258-2.781v41.847"/><path d="m457.64 267.1v1.578c0 0.949-0.024 2.101-0.071 3.449-0.054 1.351-0.101 2.82-0.152 4.422-0.051 1.597-0.125 3.051-0.227 4.359h21.301l0.602-11.41c0.496 0.898 1.297 2.082 2.402 3.531 1.098 1.438 2.598 2.899 4.496 4.348 1.899 1.453 4.301 2.703 7.203 3.75 2.899 1.051 6.395 1.582 10.496 1.582 3.703 0 6.903-0.512 9.602-1.512 2.699-0.988 4.973-2.23 6.824-3.668 1.852-1.461 3.301-3 4.352-4.652 1.05-1.649 1.82-3.117 2.324-4.418 0.398-1.199 0.754-2.391 1.051-3.531 0.3-1.149 0.527-2.551 0.672-4.2 0.152-1.648 0.25-3.679 0.304-6.07 0.047-2.398 0.071-5.351 0.071-8.859v-40.949h-22.645v47.097c0 1.61-0.055 3.082-0.152 4.43-0.102 1.34-0.45 2.621-1.047 3.832-0.805 1.687-2.082 3.187-3.828 4.5-1.75 1.301-4.075 1.937-6.977 1.937-2.398 0-4.629-0.519-6.672-1.566-2.051-1.051-3.679-2.473-4.879-4.281-0.699-0.992-1.324-2.449-1.875-4.34-0.547-1.91-0.82-4.313-0.82-7.199v-44.41h-22.355v62.25"/><path d="m565.04 292.61h-11.996l12.449 21.75h20.102zm-13.047-11.859h22.199v-75.898h-22.199v75.898"/><path d="m686.09 205.91c-3.598-1.012-6.922-1.648-9.977-1.949-3.047-0.313-5.472-0.449-7.269-0.449-5.641 0-9.969 0.769-12.989 2.32-3.023 1.539-5.234 3.398-6.644 5.547-1.41 2.152-2.242 4.371-2.492 6.68-0.254 2.293-0.375 4.25-0.375 5.851v41.539h-14.551v14.852h14.551v14.758l22.199 8.05v-22.808h18v-14.852h-18v-34.199c0-1.699 0.07-3.25 0.223-4.648 0.152-1.391 0.527-2.602 1.128-3.59 0.594-1.012 1.571-1.762 2.922-2.262 1.352-0.5 3.274-0.75 5.774-0.75 1.699 0 3.027 0.031 3.972 0.082 0.954 0.047 2.125 0.168 3.528 0.367v-14.539"/><path d="m745.95 251.06c0 0.89-0.078 2.273-0.23 4.121-0.149 1.851-0.649 3.73-1.5 5.621-0.848 1.91-2.172 3.578-3.973 5.031-1.797 1.449-4.305 2.18-7.5 2.18-2.398 0-4.48-0.481-6.227-1.43-1.75-0.953-3.199-2.203-4.351-3.75-1.149-1.551-2.02-3.363-2.621-5.402-0.602-2.051-0.953-4.18-1.051-6.371zm-28.203-13.957c0-1.192 0.078-2.954 0.223-5.243 0.152-2.308 0.726-4.55 1.73-6.75 0.996-2.211 2.524-4.129 4.574-5.777 2.047-1.652 5.024-2.473 8.922-2.473 2.797 0 5.422 0.692 7.875 2.102 2.449 1.391 4.223 4.187 5.328 8.391h20.246c-0.101-0.891-0.222-1.973-0.375-3.223-0.152-1.25-0.472-2.578-0.976-3.969-0.496-1.41-1.227-2.898-2.172-4.512-0.953-1.597-2.172-3.199-3.676-4.796-2.801-2.903-6.523-5.102-11.172-6.59-4.656-1.512-9.777-2.262-15.379-2.262-1.597 0-3.523 0.102-5.773 0.309-2.254 0.203-4.605 0.652-7.059 1.339-2.449 0.711-4.886 1.653-7.3 2.852-2.418 1.211-4.637 2.859-6.649 4.961-3.523 3.59-6.039 7.898-7.554 12.898-1.508 5-2.262 10.539-2.262 16.653 0 3.09 0.222 6.297 0.676 9.597 0.457 3.301 1.261 6.52 2.418 9.672 1.156 3.149 2.769 6.149 4.835 9 2.063 2.848 4.708 5.367 7.926 7.578 2.922 2 6.16 3.539 9.715 4.641 3.555 1.109 7.43 1.648 11.629 1.648 2.699 0 5.5-0.296 8.398-0.886 2.903-0.614 5.7-1.614 8.399-3 2.699-1.41 5.254-3.282 7.652-5.633 2.403-2.348 4.449-5.277 6.153-8.777 1.296-2.59 2.269-5.204 2.925-7.801 0.649-2.602 1.098-5.129 1.348-7.571 0.246-2.449 0.375-4.718 0.375-6.82 0-2.101-0.055-3.961-0.152-5.558h-50.848"/><path d="m826.27 253.75c-0.098 0.699-0.25 1.809-0.45 3.301-0.199 1.508-0.644 3.058-1.343 4.648-0.7 1.602-1.668 3.012-2.914 4.211-1.247 1.192-2.915 1.801-5.004 1.801-2.594 0-4.664-0.879-6.207-2.629-1.547-1.75-2.715-3.883-3.512-6.383-0.793-2.5-1.32-5.129-1.57-7.867-0.25-2.75-0.372-5.184-0.372-7.273 0-1.11 0.047-2.661 0.145-4.649 0.098-2.012 0.324-4.148 0.672-6.461 0.344-2.289 0.89-4.551 1.64-6.75 0.743-2.187 1.762-4 3.055-5.398 1.09-1.102 2.156-1.789 3.199-2.102 1.043-0.301 1.961-0.449 2.758-0.449 0.598 0 1.41 0.129 2.457 0.379 1.043 0.25 2.082 0.84 3.129 1.801 1.039 0.949 2.012 2.39 2.906 4.351 0.895 1.949 1.442 4.629 1.633 8.028h21.906c-0.101-1.508-0.253-3.161-0.453-4.957-0.203-1.793-0.625-3.672-1.273-5.622-0.652-1.949-1.606-3.96-2.848-6-1.258-2.05-2.98-3.968-5.176-5.781-2.703-2.289-5.777-4.039-9.222-5.238-3.453-1.199-7.578-1.813-12.379-1.813-5.098 0-9.801 0.704-14.102 2.102-4.297 1.41-8.199 4.051-11.699 7.949-3.301 3.801-5.723 8.199-7.277 13.199-1.547 5-2.324 10.551-2.324 16.653 0 8.609 1.375 15.5 4.125 20.711 2.75 5.187 6.027 9.168 9.828 11.918 3.797 2.742 7.699 4.55 11.699 5.402 3.996 0.848 7.25 1.27 9.75 1.27 3.5 0 7.074-0.52 10.726-1.571 3.649-1.051 6.973-2.699 9.969-4.949 3.004-2.25 5.449-5.184 7.356-8.773 1.898-3.61 2.847-7.95 2.847-13.059h-21.675"/><path d="m864.75 313.15h22.051v-42.777c0.597 0.891 1.445 1.969 2.551 3.258 1.097 1.293 2.496 2.531 4.199 3.711 1.699 1.199 3.773 2.211 6.222 3.051 2.45 0.839 5.426 1.257 8.926 1.257 2.801 0 5.348-0.316 7.649-0.976 2.3-0.641 4.375-1.442 6.226-2.391 1.852-0.961 3.449-2.031 4.797-3.23 1.356-1.192 2.477-2.391 3.375-3.59 1.402-1.91 2.578-4.563 3.527-7.949 0.954-3.403 1.426-7.614 1.426-12.602v-46.058h-22.199v45.41c0 1.109-0.078 2.578-0.223 4.437-0.152 1.852-0.597 3.68-1.339 5.492-0.743 1.797-1.954 3.36-3.633 4.661-1.684 1.296-4.063 1.957-7.129 1.957-1.586 0-3.203-0.258-4.852-0.75-1.652-0.508-3.176-1.36-4.578-2.559-1.398-1.199-2.547-2.789-3.445-4.738-0.903-1.953-1.352-4.43-1.352-7.442l0.153-46.468h-22.352v108.3"/><path d="m959.1 267.1v1.578c0 0.949-0.028 2.101-0.075 3.449-0.054 1.351-0.101 2.82-0.152 4.422-0.047 1.597-0.125 3.051-0.223 4.359h21.297l0.602-11.41c0.5 0.898 1.301 2.082 2.402 3.531 1.098 1.438 2.598 2.899 4.496 4.348 1.903 1.453 4.301 2.703 7.203 3.75 2.903 1.051 6.392 1.582 10.502 1.582 3.7 0 6.9-0.512 9.6-1.512 2.7-0.988 4.97-2.23 6.82-3.668 1.85-1.461 3.3-3 4.35-4.652 1.05-1.649 1.82-3.117 2.33-4.418 0.4-1.199 0.75-2.391 1.05-3.531 0.3-1.149 0.52-2.551 0.67-4.2 0.15-1.648 0.25-3.679 0.3-6.07 0.05-2.398 0.08-5.351 0.08-8.859v-40.949h-22.65v47.097c0 1.61-0.05 3.082-0.15 4.43-0.1 1.34-0.45 2.621-1.05 3.832-0.8 1.687-2.08 3.187-3.83 4.5-1.75 1.301-4.072 1.937-6.971 1.937-2.402 0-4.629-0.519-6.676-1.566-2.05-1.051-3.675-2.473-4.878-4.281-0.7-0.992-1.325-2.449-1.875-4.34-0.547-1.91-0.821-4.313-0.821-7.199v-44.41h-22.351v62.25"/><path d="m1053.4 280.75h22.19v-75.898h-22.19zm-0.75 32.398h23.7v-19.347h-23.7v19.347"/><path d="m1138.3 253.75c-0.1 0.699-0.25 1.809-0.45 3.301-0.2 1.508-0.65 3.058-1.35 4.648-0.69 1.602-1.67 3.012-2.91 4.211-1.25 1.192-2.92 1.801-5.01 1.801-2.59 0-4.66-0.879-6.2-2.629-1.55-1.75-2.72-3.883-3.51-6.383-0.8-2.5-1.33-5.129-1.57-7.867-0.25-2.75-0.38-5.184-0.38-7.273 0-1.11 0.05-2.661 0.15-4.649 0.1-2.012 0.32-4.148 0.67-6.461 0.35-2.289 0.89-4.551 1.64-6.75 0.74-2.187 1.76-4 3.06-5.398 1.09-1.102 2.16-1.789 3.2-2.102 1.04-0.301 1.96-0.449 2.75-0.449 0.6 0 1.42 0.129 2.46 0.379 1.05 0.25 2.09 0.84 3.13 1.801 1.04 0.949 2.01 2.39 2.91 4.351 0.89 1.949 1.44 4.629 1.63 8.028h21.91c-0.11-1.508-0.26-3.161-0.46-4.957-0.2-1.793-0.62-3.672-1.27-5.622-0.65-1.949-1.6-3.96-2.85-6-1.25-2.05-2.98-3.968-5.18-5.781-2.7-2.289-5.77-4.039-9.22-5.238s-7.58-1.813-12.38-1.813c-5.09 0-9.8 0.704-14.1 2.102-4.3 1.41-8.2 4.051-11.7 7.949-3.3 3.801-5.72 8.199-7.27 13.199s-2.33 10.551-2.33 16.653c0 8.609 1.37 15.5 4.13 20.711 2.75 5.187 6.02 9.168 9.82 11.918 3.8 2.742 7.7 4.55 11.7 5.402 4 0.848 7.25 1.27 9.75 1.27 3.5 0 7.08-0.52 10.73-1.571s6.97-2.699 9.97-4.949 5.45-5.184 7.35-8.773c1.9-3.61 2.85-7.95 2.85-13.059h-21.67"/><path d="m1176.4 313.15h22.2v-63.75l22.95 31.661h25.05l-25.95-33 27.6-43.207h-26.25l-23.4 41.25v-41.25h-22.2v108.3"/><path d="m1294.2 292.61h-12l12.45 21.75h20.1zm8.7-52.05c-3.6 0.293-6.88 0.242-9.83-0.161-2.95-0.398-5.53-1.117-7.72-2.168-2.21-1.05-3.9-2.429-5.1-4.128-1.2-1.704-1.8-3.653-1.8-5.852 0-1.301 0.22-2.578 0.67-3.828s1.13-2.391 2.03-3.442c0.9-1.05 2.02-1.898 3.37-2.55 1.35-0.66 2.93-0.981 4.73-0.981 2 0 3.8 0.43 5.4 1.281 1.6 0.852 2.95 1.879 4.05 3.079 2 2.39 3.19 5.089 3.59 8.089 0.41 3 0.61 6.563 0.61 10.661zm2.85-35.707c-0.4 2.296-0.63 4.328-0.68 6.078s-0.07 3.172-0.07 4.281c-2.1-3-4.28-5.332-6.53-6.981-2.25-1.648-4.37-2.851-6.38-3.601-1.99-0.75-3.87-1.199-5.62-1.348-1.75-0.152-3.13-0.222-4.12-0.222-5.5 0-9.65 0.64-12.45 1.941-2.81 1.301-4.95 2.66-6.45 4.051-2.3 2.308-3.98 4.91-5.03 7.808-1.05 2.903-1.57 5.852-1.57 8.84 0 1.512 0.17 3.27 0.52 5.332 0.35 2.051 1.1 4.149 2.25 6.289 1.15 2.16 2.78 4.282 4.88 6.379 2.1 2.102 4.89 3.961 8.4 5.563 2.3 0.988 4.82 1.797 7.57 2.386 2.75 0.614 5.48 1.032 8.18 1.282 2.7 0.242 5.3 0.402 7.8 0.449 2.5 0.051 4.65 0.082 6.45 0.082 0 2.488-0.05 4.437-0.15 5.848-0.1 1.39-0.41 2.793-0.9 4.203-0.5 1.386-1.21 2.5-2.1 3.297-0.9 0.8-1.83 1.421-2.78 1.871-0.95 0.449-1.9 0.742-2.85 0.902-0.95 0.148-1.67 0.227-2.17 0.227-1.6 0-3.15-0.36-4.66-1.059-1.49-0.691-2.74-1.75-3.75-3.141-0.8-1.3-1.27-2.527-1.42-3.687-0.15-1.141-0.23-2.16-0.23-3.063h-21.74c0 0.993 0.07 2.211 0.22 3.672 0.15 1.438 0.53 3 1.13 4.649 0.59 1.652 1.44 3.3 2.55 4.949 1.1 1.652 2.64 3.172 4.65 4.57 3.5 2.5 7.3 4.153 11.4 4.949 4.09 0.801 7.95 1.204 11.55 1.204 1.6 0 3.55-0.102 5.85-0.301 2.29-0.199 4.7-0.653 7.2-1.352s4.97-1.668 7.42-2.918 4.63-2.98 6.52-5.172c1.31-1.507 2.31-3.179 3.01-5.027 0.69-1.852 1.22-3.633 1.57-5.332 0.34-1.691 0.55-3.281 0.6-4.719 0.06-1.449 0.08-2.633 0.08-3.531l0.15-30.449c0-3.199 0.12-6.391 0.37-9.602 0.25-3.199 0.73-6.39 1.43-9.597h-20.1"/><path d="m1391.7 313.15h22.19v-63.75l22.95 31.661h25.06l-25.96-33 27.62-43.207h-26.25l-23.42 41.25v-41.25h-22.19v108.3"/><path d="m1478.1 267.1v1.578c0 0.949-0.04 2.101-0.08 3.449-0.06 1.351-0.1 2.82-0.15 4.422-0.04 1.597-0.12 3.051-0.22 4.359h21.29l0.61-11.41c0.5 0.898 1.3 2.082 2.4 3.531 1.09 1.438 2.6 2.899 4.49 4.348 1.91 1.453 4.3 2.703 7.21 3.75 2.89 1.051 6.4 1.582 10.51 1.582 3.69 0 6.89-0.512 9.59-1.512 2.69-0.988 4.98-2.23 6.83-3.668 1.84-1.461 3.28-3 4.34-4.652 1.05-1.649 1.83-3.117 2.32-4.418 0.41-1.199 0.76-2.391 1.06-3.531 0.29-1.149 0.52-2.551 0.68-4.2 0.14-1.648 0.23-3.679 0.29-6.07 0.04-2.398 0.08-5.351 0.08-8.859v-40.949h-22.66v47.097c0 1.61-0.05 3.082-0.15 4.43-0.1 1.34-0.45 2.621-1.04 3.832-0.8 1.687-2.09 3.187-3.83 4.5-1.75 1.301-4.08 1.937-6.97 1.937-2.4 0-4.63-0.519-6.68-1.566-2.05-1.051-3.67-2.473-4.88-4.281-0.7-0.992-1.33-2.449-1.88-4.34-0.54-1.91-0.82-4.313-0.82-7.199v-44.41h-22.34v62.25"/><path d="m1572.4 280.75h22.2v-75.898h-22.2zm-0.75 32.398h23.7v-19.347h-23.7v19.347"/><path d="m1617.8 313.15h22.05v-42.777c0.59 0.891 1.45 1.969 2.54 3.258 1.09 1.293 2.5 2.531 4.2 3.711 1.7 1.199 3.77 2.211 6.23 3.051 2.44 0.839 5.43 1.257 8.92 1.257 2.8 0 5.36-0.316 7.66-0.976 2.29-0.641 4.38-1.442 6.21-2.391 1.86-0.961 3.46-2.031 4.81-3.23 1.34-1.192 2.48-2.391 3.38-3.59 1.4-1.91 2.57-4.563 3.51-7.949 0.96-3.403 1.43-7.614 1.43-12.602v-46.058h-22.19v45.41c0 1.109-0.08 2.578-0.24 4.437-0.13 1.852-0.58 3.68-1.32 5.492-0.75 1.797-1.96 3.36-3.64 4.661-1.7 1.296-4.06 1.957-7.13 1.957-1.58 0-3.2-0.258-4.86-0.75-1.64-0.508-3.16-1.36-4.57-2.559s-2.54-2.789-3.46-4.738c-0.89-1.953-1.34-4.43-1.34-7.442l0.15-46.468h-22.34v108.3"/><path d="m1731.2 241.9c0-8.5 1.38-14.668 4.2-18.519 2.79-3.848 6.95-5.77 12.44-5.77 2.4 0 4.63 0.391 6.68 1.192s3.77 2.211 5.17 4.211c1.41 1.988 2.5 4.668 3.3 8.019 0.81 3.348 1.2 7.528 1.2 12.528 0 2.5-0.18 5.14-0.53 7.941-0.35 2.809-1.1 5.398-2.25 7.809-1.15 2.39-2.83 4.371-5.02 5.91-2.2 1.562-5.15 2.332-8.84 2.332-4.11 0-7.25-1.031-9.46-3.071-2.21-2.05-3.81-4.449-4.8-7.199-1-2.75-1.6-5.582-1.8-8.48-0.19-2.903-0.29-5.199-0.29-6.903zm-22.82 0.153c0 4.597 0.67 9.281 1.96 14.019 1.31 4.762 3.46 9.09 6.44 12.981 3.01 3.898 7.02 7.097 12.02 9.597s11.25 3.75 18.75 3.75c6.89 0 12.81-1.066 17.77-3.218 4.94-2.149 9.02-5.051 12.23-8.7 3.2-3.648 5.54-7.871 7.05-12.679 1.5-4.789 2.24-9.852 2.24-15.141 0-5.308-0.78-10.398-2.32-15.308-1.56-4.903-3.95-9.223-7.21-12.973-3.24-3.75-7.36-6.719-12.36-8.93-5-2.199-10.96-3.289-17.85-3.289-5.41 0-10.45 0.82-15.16 2.469-4.71 1.652-8.81 4.152-12.31 7.5-3.49 3.351-6.25 7.519-8.24 12.531-2.01 4.988-3.01 10.789-3.01 17.391"/><path d="m1818.4 280.61 17.11-51.461 17.4 51.461h21.45l-27.31-75.757h-24.58l-27.76 75.757h23.69"/><path d="m1890.2 267.1v1.578c0 0.949-0.04 2.101-0.08 3.449-0.06 1.351-0.09 2.82-0.15 4.422-0.04 1.597-0.12 3.051-0.22 4.359h21.29l0.61-11.41c0.5 0.898 1.31 2.082 2.4 3.531 1.09 1.438 2.6 2.899 4.49 4.348 1.92 1.453 4.3 2.703 7.21 3.75 2.89 1.051 6.4 1.582 10.51 1.582 3.69 0 6.89-0.512 9.59-1.512 2.69-0.988 4.98-2.23 6.83-3.668 1.84-1.461 3.28-3 4.34-4.652 1.05-1.649 1.83-3.117 2.32-4.418 0.41-1.199 0.76-2.391 1.06-3.531 0.29-1.149 0.52-2.551 0.68-4.2 0.14-1.648 0.23-3.679 0.29-6.07 0.04-2.398 0.08-5.351 0.08-8.859v-40.949h-22.65v47.097c0 1.61-0.06 3.082-0.16 4.43-0.1 1.34-0.45 2.621-1.04 3.832-0.8 1.687-2.09 3.187-3.82 4.5-1.76 1.301-4.09 1.937-6.98 1.937-2.4 0-4.63-0.519-6.68-1.566-2.05-1.051-3.67-2.473-4.88-4.281-0.7-0.992-1.33-2.449-1.87-4.34-0.55-1.91-0.82-4.313-0.82-7.199v-44.41h-22.35v62.25"/><path d="m2027.1 240.56c-3.61 0.293-6.89 0.242-9.82-0.161-2.97-0.398-5.53-1.117-7.73-2.168-2.21-1.05-3.91-2.429-5.1-4.128-1.21-1.704-1.8-3.653-1.8-5.852 0-1.301 0.22-2.578 0.67-3.828 0.44-1.25 1.13-2.391 2.03-3.442 0.9-1.05 2.03-1.898 3.38-2.55 1.34-0.66 2.93-0.981 4.72-0.981 1.99 0 3.79 0.43 5.39 1.281 1.6 0.852 2.95 1.879 4.07 3.079 1.99 2.39 3.18 5.089 3.59 8.089 0.39 3 0.6 6.563 0.6 10.661zm2.84-35.707c-0.39 2.296-0.63 4.328-0.67 6.078-0.06 1.75-0.08 3.172-0.08 4.281-2.09-3-4.27-5.332-6.52-6.981-2.25-1.648-4.37-2.851-6.37-3.601-2.01-0.75-3.88-1.199-5.62-1.348-1.76-0.152-3.13-0.222-4.14-0.222-5.49 0-9.65 0.64-12.44 1.941-2.8 1.301-4.94 2.66-6.45 4.051-2.3 2.308-3.98 4.91-5.04 7.808-1.03 2.903-1.56 5.852-1.56 8.84 0 1.512 0.18 3.27 0.53 5.332 0.35 2.051 1.09 4.149 2.24 6.289 1.16 2.16 2.78 4.282 4.87 6.379 2.11 2.102 4.9 3.961 8.41 5.563 2.29 0.988 4.83 1.797 7.56 2.386 2.76 0.614 5.49 1.032 8.19 1.282 2.69 0.242 5.29 0.402 7.79 0.449 2.5 0.051 4.65 0.082 6.46 0.082 0 2.488-0.05 4.437-0.15 5.848-0.1 1.39-0.41 2.793-0.9 4.203-0.51 1.386-1.21 2.5-2.11 3.297-0.9 0.8-1.82 1.421-2.77 1.871-0.96 0.449-1.9 0.742-2.85 0.902-0.94 0.148-1.68 0.227-2.17 0.227-1.6 0-3.15-0.36-4.65-1.059-1.5-0.691-2.75-1.75-3.75-3.141-0.8-1.3-1.27-2.527-1.43-3.687-0.15-1.141-0.23-2.16-0.23-3.063h-21.74c0 0.993 0.08 2.211 0.22 3.672 0.15 1.438 0.52 3 1.13 4.649 0.6 1.652 1.44 3.3 2.54 4.949 1.11 1.652 2.65 3.172 4.67 4.57 3.49 2.5 7.28 4.153 11.38 4.949 4.1 0.801 7.95 1.204 11.56 1.204 1.59 0 3.54-0.102 5.84-0.301 2.31-0.199 4.71-0.653 7.21-1.352s4.96-1.668 7.42-2.918c2.44-1.25 4.63-2.98 6.53-5.172 1.29-1.507 2.3-3.179 3-5.027 0.69-1.852 1.22-3.633 1.57-5.332 0.35-1.691 0.54-3.281 0.6-4.719 0.04-1.449 0.08-2.633 0.08-3.531l0.14-30.449c0-3.199 0.13-6.391 0.39-9.602 0.23-3.199 0.72-6.39 1.42-9.597h-20.11"/><path d="m5.3984 138.15h33.605l40.648-85.199v85.199h21.598v-108.3h-31.949l-42 90v-90h-21.902v108.3"/><path d="m166.65 65.559c-3.597 0.293-6.875 0.2422-9.824-0.1602-2.945-0.3984-5.523-1.1171-7.722-2.1679-2.204-1.0508-3.903-2.4297-5.098-4.1289-1.199-1.7032-1.801-3.6524-1.801-5.8516 0-1.3008 0.223-2.5781 0.672-3.8281s1.129-2.3906 2.027-3.4414c0.899-1.0508 2.028-1.8985 3.375-2.5508 1.352-0.6602 2.922-0.9805 4.727-0.9805 1.996 0 3.797 0.4297 5.398 1.2813 1.598 0.8515 2.95 1.8789 4.047 3.0781 2.004 2.3906 3.199 5.0898 3.602 8.0898 0.398 3 0.597 6.5625 0.597 10.66zm2.856-35.707c-0.402 2.2968-0.625 4.3281-0.676 6.0781-0.055 1.75-0.078 3.1719-0.078 4.2812-2.102-3-4.273-5.332-6.523-6.9804-2.25-1.6485-4.375-2.8516-6.375-3.6016s-3.875-1.1992-5.625-1.3476c-1.75-0.1524-3.125-0.2227-4.122-0.2227-5.503 0-9.656 0.6406-12.453 1.9414-2.8 1.3008-4.953 2.6602-6.449 4.0508-2.301 2.3086-3.976 4.9101-5.023 7.8086-1.051 2.9023-1.578 5.8515-1.578 8.8398 0 1.5117 0.175 3.2696 0.527 5.3321 0.348 2.0507 1.098 4.1484 2.25 6.289 1.148 2.1602 2.773 4.2813 4.875 6.3789 2.098 2.1016 4.894 3.961 8.394 5.5625 2.301 0.9883 4.829 1.7969 7.582 2.3867 2.747 0.6133 5.473 1.0313 8.172 1.2813 2.7 0.2422 5.297 0.4023 7.797 0.4492 2.5 0.0508 4.656 0.082 6.449 0.082 0 2.4883-0.046 4.4375-0.144 5.8477-0.102 1.3906-0.406 2.793-0.902 4.2031-0.5 1.3867-1.204 2.5-2.102 3.2969-0.898 0.8008-1.824 1.4219-2.773 1.8711-0.954 0.4492-1.899 0.7422-2.852 0.9023-0.949 0.1485-1.676 0.2266-2.172 0.2266-1.601 0-3.148-0.3594-4.652-1.0586-1.5-0.6914-2.75-1.75-3.75-3.1406-0.801-1.3008-1.278-2.5274-1.422-3.6875-0.152-1.1406-0.231-2.1602-0.231-3.0625h-21.746c0 0.9922 0.075 2.2109 0.223 3.6719 0.152 1.4375 0.527 3 1.129 4.6484 0.598 1.6523 1.445 3.3008 2.551 4.9492 1.097 1.6524 2.644 3.1721 4.644 4.5701 3.504 2.5 7.301 4.153 11.403 4.949 4.097 0.801 7.949 1.204 11.546 1.204 1.606 0 3.551-0.102 5.852-0.301s4.703-0.653 7.203-1.352 4.969-1.668 7.426-2.918c2.445-1.25 4.625-2.98 6.523-5.1716 1.297-1.5078 2.301-3.1797 2.996-5.0274 0.7-1.8515 1.227-3.6328 1.579-5.332 0.347-1.6914 0.546-3.2812 0.601-4.7187 0.051-1.4493 0.074-2.6329 0.074-3.5313l0.153-30.449c0-3.1992 0.121-6.3906 0.375-9.6016 0.242-3.1992 0.722-6.3906 1.422-9.5976h-20.098"/><path d="m255.15 30.91c-3.597-1.0118-6.925-1.6485-9.976-1.9493-3.047-0.3125-5.473-0.4492-7.27-0.4492-5.64 0-9.972 0.7696-12.988 2.3203-3.023 1.5391-5.234 3.3985-6.648 5.5469-1.411 2.1524-2.239 4.3711-2.489 6.6797-0.254 2.293-0.375 4.25-0.375 5.8516v41.539h-14.551v14.852h14.551v14.758l22.196 8.05v-22.808h18.003v-14.852h-18.003v-34.199c0-1.6992 0.074-3.25 0.226-4.6484 0.152-1.3907 0.527-2.6016 1.125-3.5899 0.598-1.0117 1.574-1.7617 2.926-2.2617 1.348-0.5 3.273-0.75 5.773-0.75 1.7 0 3.028 0.0313 3.973 0.082 0.953 0.0469 2.125 0.168 3.527 0.3672v-14.539"/><path d="m271.8 105.75h22.199v-75.898h-22.199zm-0.75 32.398h23.699v-19.347h-23.699v19.347"/><path d="m335.85 66.898c0-8.5 1.394-14.668 4.199-18.52 2.797-3.8476 6.945-5.7695 12.449-5.7695 2.398 0 4.625 0.3906 6.676 1.1914 2.047 0.8008 3.769 2.2109 5.172 4.2109 1.398 1.9883 2.5 4.668 3.297 8.0196 0.8 3.3476 1.203 7.5273 1.203 12.527 0 2.5-0.176 5.1406-0.524 7.9414-0.351 2.8086-1.101 5.3984-2.25 7.8086-1.152 2.3906-2.828 4.3711-5.023 5.9102-2.203 1.5625-5.153 2.332-8.856 2.332-4.097 0-7.25-1.0313-9.445-3.0703-2.203-2.0508-3.805-4.4492-4.801-7.1992-1-2.75-1.601-5.5821-1.801-8.4805-0.203-2.9024-0.296-5.1992-0.296-6.9024zm-22.805 0.1524c0 4.5976 0.648 9.2812 1.953 14.02 1.301 4.7617 3.445 9.0899 6.449 12.98 3 3.8984 6.996 7.0972 11.996 9.5972s11.25 3.75 18.75 3.75c6.903 0 12.828-1.066 17.778-3.218 4.949-2.149 9.019-5.0511 12.222-8.6995 3.2-3.6485 5.555-7.8711 7.051-12.68 1.5-4.7891 2.254-9.8516 2.254-15.141 0-5.3086-0.777-10.398-2.324-15.309-1.555-4.9024-3.957-9.2227-7.203-12.973-3.25-3.75-7.371-6.7187-12.371-8.9297-5.008-2.1992-10.954-3.289-17.856-3.289-5.398 0-10.445 0.8203-15.148 2.4687-4.703 1.6524-8.801 4.1524-12.301 7.5-3.5 3.3516-6.25 7.5195-8.246 12.531-2.004 4.9882-3.004 10.789-3.004 17.391"/><path d="m411.44 92.102v1.5781c0 0.9492-0.023 2.1016-0.074 3.4492-0.055 1.3516-0.101 2.8203-0.148 4.4221-0.051 1.597-0.129 3.051-0.227 4.359h21.301l0.598-11.41c0.5 0.8984 1.3 2.082 2.402 3.5313 1.098 1.4375 2.598 2.8987 4.5 4.3477 1.898 1.453 4.301 2.703 7.199 3.75 2.902 1.051 6.399 1.582 10.5 1.582 3.699 0 6.899-0.512 9.598-1.512 2.703-0.988 4.976-2.23 6.828-3.668 1.848-1.461 3.301-2.9997 4.348-4.6521 1.05-1.6484 1.824-3.1172 2.328-4.418 0.398-1.1992 0.75-2.3906 1.047-3.5312 0.304-1.1484 0.527-2.5508 0.675-4.1992 0.153-1.6485 0.246-3.6797 0.301-6.0703 0.051-2.3985 0.074-5.3516 0.074-8.8594v-40.949h-22.644v47.098c0 1.6094-0.055 3.0821-0.153 4.4297-0.101 1.3399-0.449 2.6211-1.05 3.832-0.801 1.6875-2.078 3.1875-3.828 4.5-1.75 1.3008-4.075 1.9375-6.973 1.9375-2.402 0-4.629-0.5195-6.676-1.5664-2.051-1.0507-3.676-2.4726-4.879-4.2812-0.695-0.9922-1.32-2.4492-1.875-4.3399-0.547-1.9101-0.816-4.3125-0.816-7.1992v-44.41h-22.356v62.25"/><path d="m548.4 65.559c-3.598 0.293-6.875 0.2422-9.825-0.1602-2.949-0.3984-5.527-1.1171-7.726-2.1679s-3.903-2.4297-5.098-4.1289c-1.199-1.7032-1.801-3.6524-1.801-5.8516 0-1.3008 0.227-2.5781 0.672-3.8281 0.449-1.25 1.129-2.3906 2.028-3.4414 0.898-1.0508 2.027-1.8985 3.375-2.5508 1.351-0.6602 2.925-0.9805 4.726-0.9805 1.996 0 3.801 0.4297 5.399 1.2813 1.597 0.8515 2.953 1.8789 4.05 3.0781 2 2.3906 3.2 5.0898 3.598 8.0898s0.602 6.5625 0.602 10.66zm2.851-35.707c-0.402 2.2968-0.625 4.3281-0.676 6.0781-0.05 1.75-0.078 3.1719-0.078 4.2812-2.097-3-4.269-5.332-6.523-6.9804-2.25-1.6485-4.375-2.8516-6.375-3.6016-1.996-0.75-3.871-1.1992-5.625-1.3476-1.75-0.1524-3.125-0.2227-4.121-0.2227-5.504 0-9.657 0.6406-12.453 1.9414-2.801 1.3008-4.95 2.6602-6.45 4.0508-2.3 2.3086-3.972 4.9101-5.023 7.8086-1.051 2.9023-1.578 5.8515-1.578 8.8398 0 1.5117 0.176 3.2696 0.527 5.3321 0.348 2.0507 1.098 4.1484 2.25 6.289 1.149 2.1602 2.774 4.2813 4.875 6.3789 2.098 2.1016 4.899 3.961 8.399 5.5625 2.296 0.9883 4.824 1.7969 7.578 2.3867 2.75 0.6133 5.472 1.0313 8.172 1.2813 2.703 0.2422 5.296 0.4023 7.796 0.4492 2.5 0.0508 4.657 0.082 6.454 0.082 0 2.4883-0.051 4.4375-0.149 5.8477-0.101 1.3906-0.402 2.793-0.902 4.2031-0.496 1.3867-1.199 2.5-2.102 3.2969-0.894 0.8008-1.824 1.4219-2.769 1.8711-0.953 0.4492-1.903 0.7422-2.856 0.9023-0.949 0.1485-1.672 0.2266-2.172 0.2266-1.601 0-3.148-0.3594-4.652-1.0586-1.5-0.6914-2.75-1.75-3.75-3.1406-0.801-1.3008-1.273-2.5274-1.422-3.6875-0.148-1.1406-0.226-2.1602-0.226-3.0625h-21.75c0 0.9922 0.074 2.2109 0.222 3.6719 0.153 1.4375 0.528 3 1.129 4.6484 0.598 1.6523 1.445 3.3008 2.551 4.9492 1.098 1.6524 2.644 3.1721 4.648 4.5701 3.5 2.5 7.297 4.153 11.403 4.949 4.093 0.801 7.949 1.204 11.547 1.204 1.601 0 3.546-0.102 5.847-0.301s4.703-0.653 7.203-1.352 4.973-1.668 7.426-2.918c2.445-1.25 4.625-2.98 6.524-5.1716 1.3-1.5078 2.3-3.1797 3-5.0274 0.699-1.8515 1.222-3.6328 1.578-5.332 0.343-1.6914 0.547-3.2812 0.597-4.7187 0.051-1.4493 0.075-2.6329 0.075-3.5313l0.152-30.449c0-3.1992 0.121-6.3906 0.375-9.6016 0.246-3.1992 0.723-6.3906 1.422-9.5976h-20.098"/><path d="m592.2 138.15h22.2v-108.3h-22.2v108.3"/><path d="m682.2 138.15h23.7v-89.847h46.503v-18.449h-70.203v108.3"/><path d="m768 105.75h22.199v-75.898h-22.199zm-0.75 32.398h23.699v-19.347h-23.699v19.347"/><path d="m865.94 65.852c0 1.5-0.093 3.6992-0.297 6.5976-0.199 2.9024-0.824 5.7813-1.875 8.6211-1.046 2.8594-2.675 5.3594-4.871 7.5-2.203 2.1602-5.304 3.2383-9.3 3.2383-4.106 0-7.254-1.0078-9.45-3.0078-2.203-1.9922-3.828-4.3008-4.879-6.9024-1.05-2.5898-1.652-5.1992-1.796-7.7968-0.153-2.6016-0.231-4.5-0.231-5.6914 0-8.6993 1.625-15.129 4.879-19.281 3.246-4.1484 7.422-6.2305 12.523-6.2305 3.801 0 6.75 1.0118 8.848 3.0118 2.106 1.9882 3.629 4.3086 4.574 6.9687 0.953 2.6524 1.504 5.2305 1.653 7.7305 0.152 2.5 0.222 4.2422 0.222 5.2422zm-53.996 72.296h22.199v-41.687c1.903 2.5 3.899 4.4181 6.004 5.7691 2.098 1.34 4.121 2.352 6.075 2.989 1.949 0.66 3.75 1.062 5.398 1.211 1.652 0.152 2.977 0.218 3.977 0.218 4.593 0 8.894-0.898 12.898-2.687 4-1.801 7.5-4.4102 10.5-7.8126 2.996-3.3984 5.348-7.5781 7.051-12.52 1.699-4.9492 2.547-10.629 2.547-17.027 0-7.1016-0.953-13.07-2.852-17.922-1.898-4.8477-4.344-8.7813-7.348-11.781-3-2.9882-6.371-5.1679-10.121-6.5195-3.75-1.3476-7.531-2.0273-11.328-2.0273-1.004 0-2.429 0.0781-4.273 0.2187-1.856 0.1602-3.852 0.6406-6 1.4297-2.156 0.8008-4.352 2-6.602 3.6016-2.254 1.6093-4.222 3.8984-5.926 6.9101-0.101-1.2031-0.203-2.7109-0.3-4.5-0.098-1.8125-0.25-3.8633-0.45-6.1601h-21.449v108.3"/><path d="m907.35 87c0 0.8984-0.024 2.1797-0.078 3.832-0.047 1.6485-0.122 3.418-0.223 5.3164-0.098 1.9102-0.227 3.7227-0.371 5.4806-0.153 1.75-0.281 3.18-0.375 4.281h20.847l0.45-14.551c0.699 1.5898 1.597 3.3008 2.699 5.1015 1.098 1.7891 2.598 3.4375 4.504 4.9491 1.894 1.488 4.344 2.692 7.347 3.59 2.997 0.91 6.747 1.25 11.25 1.059v-19.957c-5.601 0.5-10 0.25-13.203-0.75-3.199-0.9922-5.601-2.4532-7.199-4.3399-1.601-1.9101-2.574-4.0898-2.922-6.5312-0.351-2.4492-0.527-4.8789-0.527-7.2696v-37.359h-22.199v57.148"/><path d="m1008.3 65.559c-3.6 0.293-6.88 0.2422-9.827-0.1602-2.95-0.3984-5.528-1.1171-7.727-2.1679s-3.898-2.4297-5.098-4.1289c-1.199-1.7032-1.8-3.6524-1.8-5.8516 0-1.3008 0.222-2.5781 0.672-3.8281 0.453-1.25 1.128-2.3906 2.027-3.4414 0.898-1.0508 2.027-1.8985 3.375-2.5508 1.351-0.6602 2.926-0.9805 4.726-0.9805 1.997 0 3.797 0.4297 5.402 1.2813 1.6 0.8515 2.95 1.8789 4.05 3.0781 2 2.3906 3.19 5.0898 3.6 8.0898 0.4 3 0.6 6.5625 0.6 10.66zm2.85-35.707c-0.4 2.2968-0.63 4.3281-0.68 6.0781s-0.07 3.1719-0.07 4.2812c-2.1-3-4.28-5.332-6.53-6.9804-2.25-1.6485-4.374-2.8516-6.374-3.6016s-3.875-1.1992-5.625-1.3476c-1.75-0.1524-3.125-0.2227-4.121-0.2227-5.504 0-9.652 0.6406-12.453 1.9414s-4.949 2.6602-6.449 4.0508c-2.301 2.3086-3.977 4.9101-5.024 7.8086-1.051 2.9023-1.578 5.8515-1.578 8.8398 0 1.5117 0.176 3.2696 0.527 5.3321 0.348 2.0507 1.098 4.1484 2.25 6.289 1.149 2.1602 2.774 4.2813 4.875 6.3789 2.098 2.1016 4.899 3.961 8.399 5.5625 2.301 0.9883 4.824 1.7969 7.578 2.3867 2.746 0.6133 5.473 1.0313 8.172 1.2813 2.699 0.2422 5.301 0.4023 7.803 0.4492 2.5 0.0508 4.65 0.082 6.45 0.082 0 2.4883-0.05 4.4375-0.15 5.8477-0.1 1.3906-0.41 2.793-0.9 4.2031-0.5 1.3867-1.21 2.5-2.1 3.2969-0.9 0.8008-1.83 1.4219-2.78 1.8711s-1.9 0.7422-2.85 0.9023c-0.95 0.1485-1.672 0.2266-2.172 0.2266-1.602 0-3.149-0.3594-4.653-1.0586-1.5-0.6914-2.75-1.75-3.75-3.1406-0.8-1.3008-1.273-2.5274-1.422-3.6875-0.152-1.1406-0.226-2.1602-0.226-3.0625h-21.75c0 0.9922 0.074 2.2109 0.223 3.6719 0.152 1.4375 0.531 3 1.128 4.6484 0.598 1.6523 1.446 3.3008 2.551 4.9492 1.098 1.6524 2.645 3.1721 4.649 4.5701 3.5 2.5 7.297 4.153 11.398 4.949 4.098 0.801 7.949 1.204 11.551 1.204 1.601 0 3.553-0.102 5.853-0.301s4.7-0.653 7.2-1.352 4.97-1.668 7.42-2.918 4.63-2.98 6.53-5.1716c1.3-1.5078 2.3-3.1797 3-5.0274 0.69-1.8515 1.22-3.6328 1.57-5.332 0.35-1.6914 0.55-3.2812 0.6-4.7187 0.05-1.4493 0.08-2.6329 0.08-3.5313l0.15-30.449c0-3.1992 0.12-6.3906 0.37-9.6016 0.25-3.1992 0.73-6.3906 1.43-9.5976h-20.1"/><path d="m1052.1 87c0 0.8984-0.02 2.1797-0.08 3.832-0.05 1.6485-0.12 3.418-0.22 5.3164-0.1 1.9102-0.23 3.7227-0.37 5.4806-0.16 1.75-0.28 3.18-0.38 4.281h20.85l0.45-14.551c0.7 1.5898 1.6 3.3008 2.7 5.1015 1.1 1.7891 2.6 3.4375 4.5 4.9491 1.9 1.488 4.35 2.692 7.35 3.59 3 0.91 6.75 1.25 11.25 1.059v-19.957c-5.6 0.5-10 0.25-13.2-0.75-3.2-0.9922-5.6-2.4532-7.2-4.3399-1.6-1.9101-2.58-4.0898-2.93-6.5312-0.35-2.4492-0.52-4.8789-0.52-7.2696v-37.359h-22.2v57.148"/><path d="m1129.8 105.61 16.66-52.5 16.95 52.5h22.04l-28.64-74.41-9.15-30.141h-22.35l9.6 28.492-29.1 76.058h23.99"/><path d="m1263.9 66.898c0-8.5 1.39-14.668 4.2-18.52 2.79-3.8476 6.94-5.7695 12.45-5.7695 2.39 0 4.62 0.3906 6.67 1.1914s3.77 2.2109 5.17 4.2109c1.4 1.9883 2.5 4.668 3.3 8.0196 0.8 3.3476 1.2 7.5273 1.2 12.527 0 2.5-0.17 5.1406-0.52 7.9414-0.35 2.8086-1.1 5.3984-2.25 7.8086-1.15 2.3906-2.83 4.3711-5.02 5.9102-2.21 1.5625-5.15 2.332-8.86 2.332-4.1 0-7.25-1.0313-9.44-3.0703-2.21-2.0508-3.81-4.4492-4.8-7.1992-1-2.75-1.61-5.5821-1.81-8.4805-0.2-2.9024-0.29-5.1992-0.29-6.9024zm-22.81 0.1524c0 4.5976 0.65 9.2812 1.96 14.02 1.3 4.7617 3.44 9.0899 6.45 12.98 3 3.8984 6.99 7.0972 11.99 9.5972s11.25 3.75 18.75 3.75c6.9 0 12.83-1.066 17.78-3.218 4.95-2.149 9.02-5.0511 12.22-8.6995 3.21-3.6485 5.55-7.8711 7.05-12.68 1.51-4.7891 2.25-9.8516 2.25-15.141 0-5.3086-0.77-10.398-2.32-15.309-1.55-4.9024-3.95-9.2227-7.2-12.973s-7.37-6.7187-12.37-8.9297c-5.01-2.1992-10.96-3.289-17.86-3.289-5.4 0-10.44 0.8203-15.15 2.4687-4.7 1.6524-8.8 4.1524-12.3 7.5-3.5 3.3516-6.25 7.5195-8.24 12.531-2.01 4.9882-3.01 10.789-3.01 17.391"/><path d="m1340.7 89.852h-11.26v15.757h11.26v10.352c0 3.301 0.35 6.41 1.05 9.371 0.71 2.949 2.01 5.52 3.93 7.727 1.91 2.191 4.57 3.91 8.01 5.171 3.41 1.25 7.83 1.879 13.26 1.879 0.8 0 2.19-0.027 4.2-0.078 1.99-0.051 4.59-0.269 7.79-0.672v-15.308c-1.09 0.199-1.91 0.328-2.48 0.371-0.55 0.058-1.27 0.078-2.17 0.078-2.89 0-5.1-0.32-6.6-0.98-1.5-0.661-2.62-1.489-3.38-2.489-0.74-1.011-1.17-2.09-1.27-3.261-0.1-1.161-0.15-2.239-0.15-3.25v-8.911h14.1v-15.757h-14.1v-60h-22.19v60"/><path d="m1461.4 120.45h-32.25v17.699h87.76v-17.699h-32.27v-90.597h-23.24v90.597"/><path d="m1555.2 76.059c0 0.8906-0.08 2.2734-0.23 4.1211-0.14 1.8516-0.65 3.7305-1.49 5.6211-0.86 1.9101-2.19 3.5781-3.98 5.0312-1.8 1.4493-4.3 2.1797-7.5 2.1797-2.41 0-4.48-0.4804-6.23-1.4297-1.74-0.9531-3.21-2.2031-4.34-3.75-1.15-1.5507-2.03-3.3632-2.64-5.4023-0.6-2.0508-0.95-4.1797-1.05-6.3711zm-28.2-13.957c0-1.1914 0.08-2.9532 0.23-5.2422 0.14-2.3086 0.72-4.5508 1.72-6.75 1-2.211 2.52-4.1289 4.57-5.7774 2.05-1.6523 5.02-2.4726 8.93-2.4726 2.79 0 5.43 0.6914 7.87 2.1015 2.46 1.3907 4.24 4.1875 5.33 8.3907h20.25c-0.09-0.8907-0.23-1.9727-0.37-3.2227-0.15-1.25-0.49-2.5781-0.97-3.9687-0.51-1.4102-1.23-2.8985-2.19-4.5118-0.94-1.5976-2.17-3.1992-3.67-4.7968-2.8-2.9024-6.53-5.1016-11.18-6.5899-4.64-1.5117-9.78-2.2617-15.37-2.2617-1.6 0-3.53 0.1016-5.78 0.3086-2.24 0.2031-4.61 0.6523-7.05 1.3398-2.46 0.711-4.88 1.6524-7.3 2.8516-2.43 1.2109-4.63 2.8594-6.66 4.9609-3.52 3.5899-6.04 7.8985-7.54 12.898-1.53 5-2.27 10.539-2.27 16.652 0 3.0899 0.22 6.2969 0.69 9.5977 0.44 3.3008 1.25 6.5195 2.4 9.6719 1.17 3.1484 2.77 6.1484 4.84 9 2.05 2.8476 4.71 5.3671 7.93 7.5777 2.91 2 6.15 3.539 9.71 4.641 3.55 1.109 7.42 1.648 11.62 1.648 2.71 0 5.51-0.296 8.42-0.886 2.89-0.614 5.68-1.614 8.4-3 2.69-1.41 5.23-3.282 7.63-5.6331 2.4-2.3476 4.46-5.2773 6.15-8.7773 1.31-2.5899 2.29-5.2032 2.93-7.8008 0.65-2.6016 1.1-5.1289 1.35-7.5703 0.26-2.4492 0.37-4.7188 0.37-6.8203 0-2.1016-0.04-3.961-0.13-5.5586h-50.86"/><path d="m1635.5 78.75c-0.1 0.6992-0.25 1.8086-0.45 3.3008-0.19 1.5078-0.64 3.0586-1.34 4.6484-0.71 1.6016-1.68 3.0117-2.91 4.211-1.25 1.1914-2.93 1.8007-5.02 1.8007-2.58 0-4.65-0.8789-6.2-2.6289-1.54-1.75-2.71-3.8828-3.51-6.3828s-1.33-5.1289-1.56-7.8672c-0.26-2.75-0.39-5.1836-0.39-7.2734 0-1.1094 0.05-2.6602 0.15-4.6484 0.1-2.0118 0.33-4.1485 0.67-6.461 0.35-2.289 0.89-4.5508 1.64-6.75 0.74-2.1875 1.75-4 3.06-5.3984 1.1-1.1016 2.15-1.7891 3.21-2.1016 1.03-0.3008 1.95-0.4492 2.75-0.4492 0.59 0 1.41 0.1289 2.44 0.3789 1.06 0.25 2.09 0.8399 3.15 1.8008 1.03 0.9492 2.01 2.3906 2.89 4.3516 0.9 1.9492 1.44 4.6289 1.64 8.0273h21.91c-0.12-1.5078-0.25-3.1602-0.45-4.957-0.21-1.793-0.62-3.6719-1.29-5.6211-0.64-1.9492-1.6-3.961-2.85-6-1.25-2.0508-2.97-3.9688-5.17-5.7813-2.7-2.289-5.77-4.039-9.22-5.2383-3.46-1.1992-7.58-1.8125-12.37-1.8125-5.11 0-9.8 0.7032-14.1 2.1016-4.31 1.4102-8.2 4.0508-11.7 7.9492-3.3 3.8008-5.74 8.1992-7.28 13.199-1.55 5-2.33 10.551-2.33 16.652 0 8.6094 1.37 15.5 4.12 20.711 2.76 5.1875 6.04 9.168 9.83 11.918 3.81 2.742 7.69 4.55 11.7 5.402 4 0.848 7.24 1.27 9.76 1.27 3.5 0 7.07-0.52 10.73-1.571 3.63-1.051 6.97-2.699 9.96-4.949 3.01-2.25 5.45-5.1836 7.36-8.7734 1.9-3.6094 2.85-7.9492 2.85-13.059h-21.68"/><path d="m1674 138.15h22.05v-42.777c0.59 0.8906 1.45 1.9687 2.54 3.2578 1.09 1.293 2.5 2.5311 4.2 3.7111 1.7 1.199 3.77 2.211 6.23 3.051 2.44 0.839 5.43 1.257 8.92 1.257 2.8 0 5.36-0.316 7.66-0.976 2.29-0.641 4.38-1.442 6.21-2.391 1.86-0.961 3.46-2.031 4.81-3.23 1.34-1.1916 2.48-2.3908 3.38-3.5901 1.4-1.9101 2.57-4.5625 3.51-7.9492 0.96-3.4023 1.43-7.6133 1.43-12.602v-46.059h-22.19v45.41c0 1.1094-0.08 2.5781-0.24 4.4375-0.13 1.8516-0.58 3.6797-1.32 5.4922-0.75 1.7969-1.96 3.3594-3.64 4.6602-1.7 1.2968-4.06 1.957-7.13 1.957-1.58 0-3.2-0.2578-4.86-0.75-1.64-0.5078-3.16-1.3594-4.57-2.5586s-2.54-2.7891-3.46-4.7383c-0.89-1.9531-1.34-4.4297-1.34-7.4414l0.15-46.469h-22.34v108.3"/><path d="m1768.3 92.102v1.5781c0 0.9492-0.01 2.1016-0.07 3.4492-0.04 1.3516-0.1 2.8203-0.14 4.4221-0.06 1.597-0.14 3.051-0.23 4.359h21.3l0.61-11.41c0.49 0.8984 1.29 2.082 2.38 3.5313 1.12 1.4375 2.62 2.8987 4.51 4.3477 1.9 1.453 4.3 2.703 7.19 3.75 2.91 1.051 6.41 1.582 10.51 1.582 3.69 0 6.89-0.512 9.61-1.512 2.69-0.988 4.96-2.23 6.82-3.668 1.85-1.461 3.3-2.9997 4.35-4.6521 1.06-1.6484 1.82-3.1172 2.33-4.418 0.39-1.1992 0.74-2.3906 1.05-3.5312 0.29-1.1484 0.51-2.5508 0.66-4.1992 0.16-1.6485 0.26-3.6797 0.3-6.0703 0.06-2.3985 0.07-5.3516 0.07-8.8594v-40.949h-22.63v47.098c0 1.6094-0.06 3.0821-0.16 4.4297-0.1 1.3399-0.45 2.6211-1.05 3.832-0.8 1.6875-2.07 3.1875-3.83 4.5-1.74 1.3008-4.06 1.9375-6.97 1.9375-2.41 0-4.63-0.5195-6.68-1.5664-2.05-1.0507-3.68-2.4726-4.87-4.2812-0.7-0.9922-1.32-2.4492-1.87-4.3399-0.55-1.9101-0.82-4.3125-0.82-7.1992v-44.41h-22.37v62.25"/><path d="m1882 66.898c0-8.5 1.38-14.668 4.2-18.52 2.79-3.8476 6.95-5.7695 12.44-5.7695 2.4 0 4.63 0.3906 6.68 1.1914s3.77 2.2109 5.17 4.2109c1.41 1.9883 2.5 4.668 3.3 8.0196 0.8 3.3476 1.19 7.5273 1.19 12.527 0 2.5-0.17 5.1406-0.52 7.9414-0.35 2.8086-1.1 5.3984-2.25 7.8086-1.15 2.3906-2.83 4.3711-5.02 5.9102-2.21 1.5625-5.16 2.332-8.85 2.332-4.1 0-7.24-1.0313-9.45-3.0703-2.21-2.0508-3.81-4.4492-4.8-7.1992-1-2.75-1.61-5.5821-1.8-8.4805-0.2-2.9024-0.29-5.1992-0.29-6.9024zm-22.82 0.1524c0 4.5976 0.67 9.2812 1.96 14.02 1.31 4.7617 3.45 9.0899 6.44 12.98 3.01 3.8984 7.01 7.0972 12.01 9.5972s11.25 3.75 18.75 3.75c6.9 0 12.82-1.066 17.78-3.218 4.94-2.149 9.02-5.0511 12.22-8.6995 3.21-3.6485 5.55-7.8711 7.05-12.68 1.51-4.7891 2.25-9.8516 2.25-15.141 0-5.3086-0.78-10.398-2.32-15.309-1.57-4.9024-3.95-9.2227-7.21-12.973-3.24-3.75-7.36-6.7187-12.36-8.9297-5-2.1992-10.96-3.289-17.86-3.289-5.41 0-10.44 0.8203-15.15 2.4687-4.71 1.6524-8.81 4.1524-12.31 7.5-3.49 3.3516-6.25 7.5195-8.24 12.531-2.01 4.9882-3.01 10.789-3.01 17.391"/><path d="m1957.3 138.15h22.21v-108.3h-22.21v108.3"/><path d="m2021.4 66.898c0-8.5 1.41-14.668 4.2-18.52 2.79-3.8476 6.95-5.7695 12.46-5.7695 2.4 0 4.61 0.3906 6.66 1.1914s3.79 2.2109 5.18 4.2109c1.4 1.9883 2.5 4.668 3.3 8.0196 0.8 3.3476 1.21 7.5273 1.21 12.527 0 2.5-0.18 5.1406-0.53 7.9414-0.35 2.8086-1.11 5.3984-2.24 7.8086-1.16 2.3906-2.84 4.3711-5.04 5.9102-2.19 1.5625-5.14 2.332-8.85 2.332-4.1 0-7.25-1.0313-9.45-3.0703-2.19-2.0508-3.79-4.4492-4.79-7.1992-1.01-2.75-1.6-5.5821-1.8-8.4805-0.21-2.9024-0.31-5.1992-0.31-6.9024zm-22.79 0.1524c0 4.5976 0.64 9.2812 1.95 14.02 1.29 4.7617 3.44 9.0899 6.45 12.98 2.99 3.8984 6.99 7.0972 11.99 9.5972s11.25 3.75 18.75 3.75c6.91 0 12.83-1.066 17.77-3.218 4.96-2.149 9.03-5.0511 12.23-8.6995 3.2-3.6485 5.55-7.8711 7.05-12.68 1.5-4.7891 2.25-9.8516 2.25-15.141 0-5.3086-0.77-10.398-2.33-15.309-1.54-4.9024-3.94-9.2227-7.19-12.973-3.26-3.75-7.38-6.7187-12.38-8.9297-5-2.1992-10.94-3.289-17.85-3.289-5.39 0-10.45 0.8203-15.14 2.4687-4.7 1.6524-8.81 4.1524-12.3 7.5-3.5 3.3516-6.25 7.5195-8.26 12.531-2 4.9882-2.99 10.789-2.99 17.391"/><path d="m2115.6 68.559c0-0.8984 0.08-2.5781 0.24-5.0273 0.13-2.461 0.68-4.9297 1.64-7.4297 0.95-2.5 2.42-4.7227 4.43-6.6797 1.99-1.9414 4.84-2.9219 8.53-2.9219 3.91 0 6.92 0.9805 9.01 2.9219 2.11 1.957 3.65 4.1797 4.65 6.6797 0.99 2.5 1.58 4.9297 1.74 7.2773 0.13 2.3399 0.21 3.9297 0.21 4.7305 0 2.1015-0.16 4.5-0.45 7.1914-0.29 2.7109-0.98 5.2305-2.03 7.5781-1.04 2.3399-2.56 4.332-4.57 5.9219-1.99 1.5976-4.71 2.3984-8.11 2.3984-4.2 0-7.79-1.75-10.78-5.2383-3.01-3.5117-4.51-9.3125-4.51-17.402zm52.95 36.742c-0.29-2.992-0.55-5.9221-0.74-8.7697-0.22-2.8516-0.31-6.1797-0.31-9.9805v-55.941c0-7.0078-1.27-12.527-3.81-16.578-2.56-4.0508-5.76-7.1329-9.61-9.2227-3.85-2.0976-7.97-3.4297-12.39-3.9766-4.39-0.55078-8.39-0.83203-11.99-0.83203-2.69 0-5.9 0.21094-9.59 0.60938-3.71 0.40234-7.26 1.3906-10.66 2.9922-3.4 1.6094-6.35 4.0274-8.85 7.2773-2.5 3.25-3.91 7.7227-4.2 13.43h21.31c0.1-0.6094 0.27-1.4766 0.53-2.6289 0.23-1.1484 0.82-2.3008 1.72-3.4492 0.89-1.1485 2.18-2.1719 3.9-3.0703 1.7-0.8985 4.05-1.3594 7.03-1.3594 3.3 0 6.23 0.8086 8.79 2.3984 2.54 1.6016 4.22 4.1016 5.02 7.5 0.2 0.9024 0.37 1.8321 0.53 2.7696 0.16 0.9609 0.25 2.0625 0.29 3.3125 0.06 1.25 0.1 2.8281 0.16 4.7187 0.04 1.9102 0.08 4.3008 0.08 7.1992-1.8-2.3008-3.62-4.1484-5.41-5.5508-1.8-1.3867-3.6-2.4492-5.39-3.1367-1.8-0.7031-3.54-1.1523-5.18-1.3633-1.66-0.1875-3.12-0.289-4.43-0.289-5.39 0-10.12 1.0703-14.16 3.2226-4.07 2.1485-7.39 4.9688-9.98 8.4766-2.6 3.4922-4.55 7.4727-5.86 11.922-1.29 4.4414-1.96 8.9804-1.96 13.578 0 4.793 0.69 9.4531 2.04 13.941 1.34 4.5 3.37 8.5117 6.07 12 2.69 3.5 6.07 6.301 10.14 8.398 4.04 2.102 8.77 3.161 14.16 3.161 3.39 0 6.32-0.411 8.79-1.207 2.44-0.801 4.49-1.77 6.15-2.93 1.64-1.141 2.93-2.34 3.88-3.59 0.96-1.25 1.74-2.2734 2.33-3.082l0.76 10.051h20.84"/><path d="m2204.7 105.61 16.64-52.5 16.96 52.5h22.05l-28.66-74.41-9.16-30.141h-22.34l9.61 28.492-29.1 76.058h24"/></g></g></g></svg>
