<?xml version="1.0" encoding="UTF-8" standalone="no"?>
<!-- Created with Inkscape (http://www.inkscape.org/) -->

<svg
   xmlns:dc="http://purl.org/dc/elements/1.1/"
   xmlns:cc="http://creativecommons.org/ns#"
   xmlns:rdf="http://www.w3.org/1999/02/22-rdf-syntax-ns#"
   xmlns:svg="http://www.w3.org/2000/svg"
   xmlns="http://www.w3.org/2000/svg"
   xmlns:sodipodi="http://sodipodi.sourceforge.net/DTD/sodipodi-0.dtd"
   xmlns:inkscape="http://www.inkscape.org/namespaces/inkscape"
   version="1.1"
   id="svg2"
   xml:space="preserve"
   width="186"
   height="96"
   viewBox="0 0 186 95.999997"
   sodipodi:docname="MSMT_cz.svg"
   inkscape:version="0.92.3 (2405546, 2018-03-11)"><metadata
     id="metadata8"><rdf:RDF><cc:Work
         rdf:about=""><dc:format>image/svg+xml</dc:format><dc:type
           rdf:resource="http://purl.org/dc/dcmitype/StillImage" /><dc:title></dc:title></cc:Work></rdf:RDF></metadata><defs
     id="defs6" /><sodipodi:namedview
     pagecolor="#ffffff"
     bordercolor="#666666"
     borderopacity="1"
     objecttolerance="10"
     gridtolerance="10"
     guidetolerance="10"
     inkscape:pageopacity="0"
     inkscape:pageshadow="2"
     inkscape:window-width="1824"
     inkscape:window-height="907"
     id="namedview4"
     showgrid="false"
     inkscape:zoom="1.7543125"
     inkscape:cx="12.540524"
     inkscape:cy="56.693333"
     inkscape:window-x="0"
     inkscape:window-y="28"
     inkscape:window-maximized="0"
     inkscape:current-layer="g10"
     fit-margin-top="0"
     fit-margin-left="0"
     fit-margin-right="0"
     fit-margin-bottom="0" /><g
     id="g10"
     inkscape:groupmode="layer"
     inkscape:label="ink_ext_XXXXXX"
     transform="matrix(1.3333333,0,0,-1.3333333,0,96.000003)"><g
       id="g12"
       transform="matrix(0.07134433,0,0,0.07134433,6,4.6879478)"><path
         d="m 1050.84,797.871 88.31,52.52 h -27.93 l -81.16,-36.532 -82.564,36.532 h -26.34 l 88.944,-52.52 z m 42.88,-284.031 c 38.69,12.41 67.43,34.148 71.29,64.609 0,42.989 -50.29,60.184 -99.8,70.418 -71.874,14.328 -122.98,26.192 -130.968,57.305 -1.465,4.336 -1.609,6.562 -1.609,9.836 1.609,33.562 48.738,54.433 91.867,54.433 43.9,0 71.84,-5.703 99.78,-31.933 l 23.97,7.801 c -31.13,27.824 -73.46,35.207 -123.75,35.207 -41.828,0 -77.523,-7.012 -103.344,-19.582 v 88.457 H 857.449 L 695.141,639.758 H 693.59 L 528.148,850.391 h -62.117 v -258.02 h 30.293 V 817.727 L 678.223,587.941 H 622.242 V 329.91 H 647.91 V 555.285 L 831.992,322.734 h 0.758 l 185.63,235.735 V 329.91 h 54.36 v 171.543 h 96.08 v -240.64 h 55.91 v 240.64 h 115.74 v 12.387 z m -20.98,14.844 v 59.257 h -63.69 l -52.081,-67.597 c -21.621,5.605 -40.801,15.469 -55.461,30.261 l -26.367,-9.832 c 16.902,-16.32 42.304,-27.246 71.886,-33.351 L 846.742,377.305 h -1.551 L 681.543,585.684 866.762,820.938 V 592.371 h 54.394 v 62.785 c 28.711,-11.523 68.078,-18.894 108.114,-27.988 59.1,-12.695 76.66,-35.203 76.66,-56.902 0,-16.739 -12,-31.457 -33.19,-41.582"
         style="fill:#498f9a;fill-opacity:1;fill-rule:nonzero;stroke:none"
         id="path14"
         inkscape:connector-curvature="0" /><path
         d="m 0,195.969 h 12.9766 l 34.4101,-73.938 34.8828,73.938 h 11.9571 v -81.485 h -8.0039 l 0.3164,74.461 -34.5157,-74.461 H 42.6523 L 7.22266,188.945 8.00781,114.484 H 0 v 81.485"
         style="fill:#7b7979;fill-opacity:1;fill-rule:nonzero;stroke:none"
         id="path16"
         inkscape:connector-curvature="0" /><path
         d="m 125.371,195.969 h 8.121 v -81.477 h -8.121 v 81.477"
         style="fill:#7b7979;fill-opacity:1;fill-rule:nonzero;stroke:none"
         id="path18"
         inkscape:connector-curvature="0" /><path
         d="m 164.527,195.969 h 10.391 l 56.977,-73.125 v 73.125 h 7.902 v -81.485 h -10.844 l -56.527,73.125 v -73.125 h -7.899 v 81.485"
         style="fill:#7b7979;fill-opacity:1;fill-rule:nonzero;stroke:none"
         id="path20"
         inkscape:connector-curvature="0" /><path
         d="m 270.941,195.969 h 8.118 v -81.477 h -8.118 v 81.477"
         style="fill:#7b7979;fill-opacity:1;fill-rule:nonzero;stroke:none"
         id="path22"
         inkscape:connector-curvature="0" /><path
         d="m 315.289,141.328 v -0.43 c 0,-12.312 10.055,-20.546 25.84,-20.546 15.922,0 25.273,6.769 25.273,16.691 0,9.277 -6.543,11.617 -20.324,14.109 l -17.367,3.047 c -12.981,2.254 -19.301,9.024 -19.301,20.313 0,13.996 11.508,23.566 31.039,23.566 19.871,0 31.594,-9.465 32.039,-25.019 h -8.117 c -1.019,11.386 -9.141,17.578 -23.703,17.578 -14.445,0 -22.91,-6.301 -22.91,-15.684 0,-8.555 6.672,-11.496 20.312,-13.859 l 15.469,-2.715 c 14.781,-2.598 21.434,-8.914 21.434,-21.008 0,-15.562 -12.063,-25.035 -33.063,-25.035 -21.89,0 -34.871,10.828 -34.871,27.762 v 1.23 h 8.25"
         style="fill:#7b7979;fill-opacity:1;fill-rule:nonzero;stroke:none"
         id="path24"
         inkscape:connector-curvature="0" /><path
         d="m 424.625,188.508 h -31.488 v 7.461 h 71.086 v -7.461 h -31.481 v -74.016 h -8.117 v 74.016"
         style="fill:#7b7979;fill-opacity:1;fill-rule:nonzero;stroke:none"
         id="path26"
         inkscape:connector-curvature="0" /><path
         d="m 485.32,195.969 h 62.633 v -7.578 h -54.492 v -28.567 h 50.324 v -7.656 H 493.461 V 122.16 h 54.492 v -7.676 H 485.32 v 81.485"
         style="fill:#7b7979;fill-opacity:1;fill-rule:nonzero;stroke:none"
         id="path28"
         inkscape:connector-curvature="0" /><path
         d="m 574.137,195.969 h 39.054 c 19.403,0 29.227,-7.356 29.227,-21.914 0,-10.703 -4.293,-17.032 -14.113,-20.305 9.258,-1.473 11.402,-5.762 12.531,-15.469 1.238,-10.82 0.559,-19.062 3.949,-23.797 h -9.492 c -2.477,7.442 -1.797,15.567 -2.816,23.797 -1.012,8.379 -5.762,11.184 -15.911,11.184 h -34.293 v -34.981 h -8.136 z m 8.136,-7.578 v -31.262 h 30.012 c 15.012,0 21.891,4.191 21.891,15.676 0,12.09 -7.223,15.586 -22.91,15.586 h -28.993"
         style="fill:#7b7979;fill-opacity:1;fill-rule:nonzero;stroke:none"
         id="path30"
         inkscape:connector-curvature="0" /><path
         d="m 676.047,141.328 v -0.43 c 0,-12.312 10.031,-20.546 25.84,-20.546 15.89,0 25.269,6.769 25.269,16.691 0,9.277 -6.543,11.617 -20.32,14.109 l -17.367,3.047 c -12.981,2.254 -19.301,9.024 -19.301,20.313 0,13.996 11.508,23.566 31.027,23.566 19.86,0 31.614,-9.465 32.043,-25.019 h -8.121 c -1.012,11.386 -9.133,17.578 -23.691,17.578 -14.449,0 -22.903,-6.301 -22.903,-15.684 0,-8.555 6.665,-11.496 20.305,-13.859 l 15.469,-2.715 c 14.769,-2.598 21.43,-8.914 21.43,-21.008 0,-15.562 -12.059,-25.035 -33.059,-25.035 -21.891,0 -34.852,10.828 -34.852,27.762 v 1.23 h 8.231"
         style="fill:#7b7979;fill-opacity:1;fill-rule:nonzero;stroke:none"
         id="path32"
         inkscape:connector-curvature="0" /><path
         d="m 785.375,188.508 h -31.488 v 7.461 h 71.09 v -7.461 h -31.481 v -74.016 h -8.121 v 74.016"
         style="fill:#7b7979;fill-opacity:1;fill-rule:nonzero;stroke:none"
         id="path34"
         inkscape:connector-curvature="0" /><path
         d="m 837.07,195.969 h 8.91 l 32.719,-74.492 32.711,74.492 h 8.938 l -36.571,-81.485 h -10.265 l -36.442,81.485"
         style="fill:#7b7979;fill-opacity:1;fill-rule:nonzero;stroke:none"
         id="path36"
         inkscape:connector-curvature="0" /><path
         d="m 978.461,112.336 c -26.746,0 -42.762,16.355 -42.762,42.898 0,26.496 16.016,42.852 42.762,42.852 26.749,0 42.869,-16.356 42.869,-42.852 0,-26.543 -16.12,-42.898 -42.869,-42.898 m 34.519,42.898 c 0,21.868 -12.98,34.969 -34.519,34.969 -21.551,0 -34.531,-13.101 -34.531,-34.969 0,-21.914 12.98,-35 34.531,-35 21.539,0 34.519,13.086 34.519,35"
         style="fill:#7b7979;fill-opacity:1;fill-rule:nonzero;stroke:none"
         id="path38"
         inkscape:connector-curvature="0" /><path
         d="m 1100.89,141.328 v -0.43 c 0,-12.312 10.03,-20.546 25.83,-20.546 15.93,0 25.28,6.769 25.28,16.691 0,9.277 -6.55,11.617 -20.3,14.109 l -17.38,3.047 c -12.97,2.254 -19.29,9.024 -19.29,20.313 0,13.996 11.51,23.566 31.04,23.566 19.84,0 31.58,-9.465 32.04,-25.019 h -8.12 c -1.04,11.386 -9.16,17.578 -23.72,17.578 -14.43,0 -22.91,-6.301 -22.91,-15.684 0,-8.555 6.66,-11.496 20.33,-13.859 l 15.46,-2.715 c 14.79,-2.598 21.44,-8.914 21.44,-21.008 0,-15.562 -12.07,-25.035 -33.08,-25.035 -21.89,0 -34.85,10.828 -34.85,27.762 v 1.23 z m 36.9,79.563 h 8.7 l -15.7,-16.7 h -9.24 l -15.7,16.7 h 8.69 l 11.63,-12.071 11.62,12.071"
         style="fill:#7b7979;fill-opacity:1;fill-rule:nonzero;stroke:none"
         id="path40"
         inkscape:connector-curvature="0" /><path
         d="m 1188.11,195.969 h 8.14 v -44.59 l 50.42,44.59 h 11.29 l -38.37,-34.102 38.37,-47.383 h -10.38 l -34.07,42.079 -17.26,-15.118 v -26.961 h -8.14 v 81.485"
         style="fill:#7b7979;fill-opacity:1;fill-rule:nonzero;stroke:none"
         id="path42"
         inkscape:connector-curvature="0" /><path
         d="m 1314.5,112.336 c -26.74,0 -42.76,16.355 -42.76,42.898 0,26.496 16.02,42.852 42.76,42.852 26.75,0 42.88,-16.356 42.88,-42.852 0,-26.543 -16.13,-42.898 -42.88,-42.898 m 34.53,42.898 c 0,21.868 -12.99,34.969 -34.53,34.969 -21.56,0 -34.52,-13.101 -34.52,-34.969 0,-21.914 12.96,-35 34.52,-35 21.54,0 34.53,13.086 34.53,35"
         style="fill:#7b7979;fill-opacity:1;fill-rule:nonzero;stroke:none"
         id="path44"
         inkscape:connector-curvature="0" /><path
         d="m 1383.9,195.969 h 8.13 V 122.16 h 51.24 v -7.676 h -59.37 v 81.485"
         style="fill:#7b7979;fill-opacity:1;fill-rule:nonzero;stroke:none"
         id="path46"
         inkscape:connector-curvature="0" /><path
         d="m 1472.48,141.328 v -0.43 c 0,-12.312 10.05,-20.546 25.85,-20.546 15.9,0 25.28,6.769 25.28,16.691 0,9.277 -6.54,11.617 -20.32,14.109 l -17.37,3.047 c -12.99,2.254 -19.3,9.024 -19.3,20.313 0,13.996 11.5,23.566 31.02,23.566 19.86,0 31.61,-9.465 32.04,-25.019 h -8.11 c -1.02,11.386 -9.14,17.578 -23.7,17.578 -14.44,0 -22.9,-6.301 -22.9,-15.684 0,-8.555 6.65,-11.496 20.31,-13.859 l 15.46,-2.715 c 14.78,-2.598 21.43,-8.914 21.43,-21.008 0,-15.562 -12.06,-25.035 -33.04,-25.035 -21.91,0 -34.89,10.828 -34.89,27.762 v 1.23 h 8.24"
         style="fill:#7b7979;fill-opacity:1;fill-rule:nonzero;stroke:none"
         id="path48"
         inkscape:connector-curvature="0" /><path
         d="m 1581.83,188.508 h -31.48 v 7.461 h 71.08 v -7.461 h -31.47 v -74.016 h -8.13 v 74.016"
         style="fill:#7b7979;fill-opacity:1;fill-rule:nonzero;stroke:none"
         id="path50"
         inkscape:connector-curvature="0" /><path
         d="m 1633.51,195.969 h 8.92 l 32.72,-74.492 32.73,74.492 h 8.9 l -36.57,-81.485 h -10.26 l -36.44,81.485"
         style="fill:#7b7979;fill-opacity:1;fill-rule:nonzero;stroke:none"
         id="path52"
         inkscape:connector-curvature="0" /><path
         d="m 1738.78,195.969 h 8.13 v -81.477 h -8.13 z m 10.62,24.922 h 10.27 l -13.32,-16.711 h -6.66 l 9.71,16.711"
         style="fill:#7b7979;fill-opacity:1;fill-rule:nonzero;stroke:none"
         id="path54"
         inkscape:connector-curvature="0" /><path
         d="m 1782.1,124.426 h 9.15 v -13.223 c 0,-7.902 -2.03,-11.9647 -9.15,-14.3358 v 5.2028 c 3.07,1.575 4.08,3.84 4.08,7.559 v 4.863 h -4.08 v 9.934"
         style="fill:#7b7979;fill-opacity:1;fill-rule:nonzero;stroke:none"
         id="path56"
         inkscape:connector-curvature="0" /><path
         d="M 137.906,69.4258 H 148.66 L 177.242,8.05859 206.184,69.4258 h 9.929 V 1.77734 h -6.672 L 209.742,63.6055 181.074,1.77734 h -7.785 L 143.883,63.6055 144.531,1.77734 h -6.625 V 69.4258"
         style="fill:#7b7979;fill-opacity:1;fill-rule:nonzero;stroke:none"
         id="path58"
         inkscape:connector-curvature="0" /><path
         d="m 239.617,69.4258 h 6.75 V 8.15625 h 42.52 V 1.77734 h -49.27 V 69.4258"
         style="fill:#7b7979;fill-opacity:1;fill-rule:nonzero;stroke:none"
         id="path60"
         inkscape:connector-curvature="0" /><path
         d="m 330.941,69.4258 h 7.782 l 30.82,-67.64846 h -6.844 L 353.254,22.6758 H 316.25 L 306.68,1.77734 h -6.938 z M 350.238,29.2305 334.789,63.7813 319.238,29.2305 Z m -10.297,60.8867 h 8.532 L 337.422,76.25 h -5.543 l 8.062,13.8672"
         style="fill:#7b7979;fill-opacity:1;fill-rule:nonzero;stroke:none"
         id="path62"
         inkscape:connector-curvature="0" /><path
         d="m 438.191,63.3125 c 7.5,-5.793 10.875,-14.8828 10.875,-27.7148 0,-12.8321 -3.375,-21.9375 -10.875,-27.74614 C 431.266,2.53125 422.563,1.77734 410.465,1.77734 H 385.836 V 69.4258 h 24.629 c 12.098,0 20.801,-0.7656 27.726,-6.1133 m -45.617,0 V 8.24219 h 17.891 c 9.672,0 16.68,0.65625 22.203,4.31641 6.656,4.3945 9.465,11.9922 9.465,23.5078 0,11.2383 -2.996,18.7383 -9.465,23.0352 -5.703,3.75 -13.203,4.2109 -23.703,4.2109 h -16.391"
         style="fill:#7b7979;fill-opacity:1;fill-rule:nonzero;stroke:none"
         id="path64"
         inkscape:connector-curvature="0" /><path
         d="m 469.203,69.4258 h 51.985 V 63.1445 H 475.945 V 39.4336 h 41.782 v -6.375 H 475.945 V 8.15625 h 45.243 V 1.77734 H 469.203 V 69.4258"
         style="fill:#7b7979;fill-opacity:1;fill-rule:nonzero;stroke:none"
         id="path66"
         inkscape:connector-curvature="0" /><path
         d="M 536.078,8.42969 585.82,63.1445 h -47.289 v 6.2813 h 56.66 V 63.1445 L 544.508,8.42969 h 50.683 V 1.77734 h -59.113 z m 42.988,81.68751 h 7.223 L 573.281,76.2617 h -7.691 l -13.024,13.8555 h 7.223 l 9.649,-10.0274 9.628,10.0274"
         style="fill:#7b7979;fill-opacity:1;fill-rule:nonzero;stroke:none"
         id="path68"
         inkscape:connector-curvature="0" /><path
         d="m 613.734,69.4258 h 51.985 V 63.1445 H 620.488 V 39.4336 h 41.77 v -6.375 h -41.77 V 8.15625 h 45.231 V 1.77734 H 613.734 V 69.4258"
         style="fill:#7b7979;fill-opacity:1;fill-rule:nonzero;stroke:none"
         id="path70"
         inkscape:connector-curvature="0" /><path
         d="m 747.402,69.4258 h 7.77 l 30.82,-67.64846 h -6.832 l -9.449,20.89846 h -37.02 L 723.148,1.77734 h -6.949 z M 766.699,29.2305 751.25,63.7813 735.691,29.2305 Z"
         style="fill:#7b7979;fill-opacity:1;fill-rule:nonzero;stroke:none"
         id="path72"
         inkscape:connector-curvature="0" /><path
         d="m 858.5,63.2344 h -26.141 v 6.1914 h 59.02 V 63.2344 H 865.238 V 1.77734 H 858.5 V 63.2344"
         style="fill:#7b7979;fill-opacity:1;fill-rule:nonzero;stroke:none"
         id="path74"
         inkscape:connector-curvature="0" /><path
         d="M 907.027,69.4258 H 959.02 V 63.1445 H 913.766 V 39.4336 h 41.765 v -6.375 H 913.766 V 8.15625 H 959.02 V 1.77734 h -51.993 z m 36.153,20.6914 h 7.226 L 937.379,76.25 h -7.676 l -13.027,13.8672 h 7.195 l 9.66,-10.0391 9.649,10.0391"
         style="fill:#7b7979;fill-opacity:1;fill-rule:nonzero;stroke:none"
         id="path76"
         inkscape:connector-curvature="0" /><path
         d="m 978.883,69.4258 h 6.738 V 8.15625 h 42.509 V 1.77734 H 978.883 V 69.4258"
         style="fill:#7b7979;fill-opacity:1;fill-rule:nonzero;stroke:none"
         id="path78"
         inkscape:connector-curvature="0" /><path
         d="m 1071.51,0 c -22.21,0 -35.5,13.5859 -35.5,35.5859 0,22.0118 13.29,35.6055 35.5,35.6055 22.19,0 35.58,-13.5937 35.58,-35.6055 C 1107.09,13.5859 1093.7,0 1071.51,0 m 28.66,35.5859 c 0,18.1836 -10.77,29.0547 -28.66,29.0547 -17.89,0 -28.66,-10.8711 -28.66,-29.0547 0,-18.164 10.77,-29.03121 28.66,-29.03121 17.89,0 28.66,10.86721 28.66,29.03121"
         style="fill:#7b7979;fill-opacity:1;fill-rule:nonzero;stroke:none"
         id="path80"
         inkscape:connector-curvature="0" /><path
         d="m 1117.97,69.4258 h 7.39 l 27.18,-61.82814 27.14,61.82814 h 7.42 L 1156.75,1.77734 h -8.53 l -30.25,67.64846"
         style="fill:#7b7979;fill-opacity:1;fill-rule:nonzero;stroke:none"
         id="path82"
         inkscape:connector-curvature="0" /><path
         d="m 1225.32,31.0078 -29.14,38.418 h 8.61 l 23.9,-32.9883 24.15,32.9883 h 8.36 l -29.13,-38.418 V 1.77734 h -6.75 z m 9.83,59.1094 h 8.52 L 1232.62,76.25 h -5.54 l 8.07,13.8672"
         style="fill:#7b7979;fill-opacity:1;fill-rule:nonzero;stroke:none"
         id="path84"
         inkscape:connector-curvature="0" /><path
         d="m 1309.99,64.6406 c -17.72,0 -28.57,-10.9804 -28.57,-29.0429 0,-17.8946 10.85,-28.94536 27.25,-28.94536 13.6,0 23.97,7.87106 26.7,20.51566 h 7.22 C 1339.5,10.4961 1326.57,0 1308.87,0 c -20.72,0 -34.29,13.8594 -34.29,35.5977 0,22.0117 13.29,35.5859 35.51,35.5859 17.6,0 29.21,-9.0742 31.37,-23.8789 h -6.84 c -2.62,11.0547 -11.42,17.3359 -24.63,17.3359"
         style="fill:#7b7979;fill-opacity:1;fill-rule:nonzero;stroke:none"
         id="path86"
         inkscape:connector-curvature="0" /><path
         d="m 1361.23,69.4258 h 6.74 V 41.2227 H 1412 v 28.2031 h 6.74 V 1.77734 H 1412 V 34.7578 h -44.03 V 1.77734 h -6.74 V 69.4258"
         style="fill:#7b7979;fill-opacity:1;fill-rule:nonzero;stroke:none"
         id="path88"
         inkscape:connector-curvature="0" /><path
         d="m 1474.48,0 c -22.22,0 -35.51,13.5859 -35.51,35.5859 0,22.0118 13.29,35.6055 35.51,35.6055 22.19,0 35.58,-13.5937 35.58,-35.6055 0,-22 -13.39,-35.5859 -35.58,-35.5859 m 28.66,35.5859 c 0,18.1836 -10.76,29.0547 -28.66,29.0547 -17.89,0 -28.66,-10.8711 -28.66,-29.0547 0,-18.164 10.77,-29.03121 28.66,-29.03121 17.9,0 28.66,10.86721 28.66,29.03121"
         style="fill:#7b7979;fill-opacity:1;fill-rule:nonzero;stroke:none"
         id="path90"
         inkscape:connector-curvature="0" /><path
         d="m 1520.93,69.4258 h 7.4 l 27.17,-61.82814 27.17,61.82814 h 7.39 L 1559.71,1.77734 h -8.52 l -30.26,67.64846"
         style="fill:#7b7979;fill-opacity:1;fill-rule:nonzero;stroke:none"
         id="path92"
         inkscape:connector-curvature="0" /><path
         d="m 1628.29,31.0078 -29.14,38.418 h 8.61 l 23.89,-32.9883 24.18,32.9883 h 8.34 l -29.15,-38.418 V 1.77734 h -6.73 V 31.0078"
         style="fill:#7b7979;fill-opacity:1;fill-rule:nonzero;stroke:none"
         id="path94"
         inkscape:connector-curvature="0" /></g></g></svg>